G04 #@! TF.FileFunction,Paste,Top*
%FSLAX46Y46*%
G04 Gerber Fmt 4.6, Leading zero omitted, Abs format (unit mm)*
G04 Created by KiCad (PCBNEW 4.0.7) date Tuesday, April 03, 2018 'AMt' 10:26:05 AM*
%MOMM*%
%LPD*%
G01*
G04 APERTURE LIST*
%ADD10C,0.100000*%
%ADD11R,0.813000X0.305000*%
%ADD12R,0.305000X0.813000*%
%ADD13R,0.599440X0.899160*%
%ADD14R,0.899160X0.599440*%
%ADD15R,0.899160X1.597660*%
%ADD16R,1.597660X0.899160*%
%ADD17R,2.499360X1.699260*%
%ADD18R,1.600000X1.000000*%
%ADD19R,0.599440X0.497840*%
%ADD20R,1.060000X0.650000*%
%ADD21R,0.599440X1.198880*%
%ADD22R,1.198880X0.599440*%
%ADD23R,1.198880X1.198880*%
G04 APERTURE END LIST*
D10*
D11*
X120475000Y-91250000D03*
X123025000Y-91250000D03*
X120475000Y-91750000D03*
X120475000Y-92250000D03*
X120475000Y-90750000D03*
X120475000Y-90250000D03*
X123025000Y-90250000D03*
X123025000Y-90750000D03*
X123025000Y-91750000D03*
X123025000Y-92250000D03*
D12*
X121750000Y-92525000D03*
X121250000Y-92525000D03*
X122250000Y-92525000D03*
X122250000Y-89975000D03*
X121750000Y-89975000D03*
X121250000Y-89975000D03*
D13*
X108250700Y-122000000D03*
X109749300Y-122000000D03*
X108250700Y-120250000D03*
X109749300Y-120250000D03*
D14*
X119250000Y-111999300D03*
X119250000Y-110500700D03*
X117500000Y-111999300D03*
X117500000Y-110500700D03*
D15*
X97697800Y-67500000D03*
X94802200Y-67500000D03*
D16*
X83250000Y-81697800D03*
X83250000Y-78802200D03*
D13*
X92999300Y-67750000D03*
X91500700Y-67750000D03*
D14*
X81000000Y-81999300D03*
X81000000Y-80500700D03*
D15*
X99802200Y-67500000D03*
X102697800Y-67500000D03*
D16*
X83250000Y-86697800D03*
X83250000Y-83802200D03*
D13*
X104500700Y-68000000D03*
X105999300Y-68000000D03*
D14*
X81000000Y-86749300D03*
X81000000Y-85250700D03*
X124000000Y-94500700D03*
X124000000Y-95999300D03*
X122250000Y-94500700D03*
X122250000Y-95999300D03*
D13*
X125500000Y-91750000D03*
X126998600Y-91750000D03*
D17*
X113743989Y-121205756D03*
X117741949Y-121205756D03*
D18*
X118750000Y-117750000D03*
X118750000Y-114750000D03*
D13*
X113750700Y-113750000D03*
X115249300Y-113750000D03*
D19*
X110250000Y-115451360D03*
X110250000Y-116548640D03*
D14*
X108500000Y-116499300D03*
X108500000Y-115000700D03*
D13*
X119499300Y-79000000D03*
X118000700Y-79000000D03*
X120499300Y-80750000D03*
X119000700Y-80750000D03*
D14*
X123750000Y-86500700D03*
X123750000Y-87999300D03*
X122000000Y-86500700D03*
X122000000Y-87999300D03*
X120500000Y-94500700D03*
X120500000Y-95999300D03*
D10*
G36*
X77914078Y-85044565D02*
X78438588Y-84136087D01*
X78999512Y-84459937D01*
X78475002Y-85368415D01*
X77914078Y-85044565D01*
X77914078Y-85044565D01*
G37*
G36*
X75841438Y-88634483D02*
X76365948Y-87726005D01*
X76926872Y-88049855D01*
X76402362Y-88958333D01*
X75841438Y-88634483D01*
X75841438Y-88634483D01*
G37*
G36*
X76053128Y-83970145D02*
X76577638Y-83061667D01*
X77138562Y-83385517D01*
X76614052Y-84293995D01*
X76053128Y-83970145D01*
X76053128Y-83970145D01*
G37*
G36*
X73980488Y-87560063D02*
X74504998Y-86651585D01*
X75065922Y-86975435D01*
X74541412Y-87883913D01*
X73980488Y-87560063D01*
X73980488Y-87560063D01*
G37*
G36*
X75015681Y-90978883D02*
X75287187Y-89965608D01*
X75912817Y-90133245D01*
X75641311Y-91146520D01*
X75015681Y-90978883D01*
X75015681Y-90978883D01*
G37*
G36*
X73942803Y-94982916D02*
X74214309Y-93969641D01*
X74839939Y-94137278D01*
X74568433Y-95150553D01*
X73942803Y-94982916D01*
X73942803Y-94982916D01*
G37*
G36*
X72940061Y-90422722D02*
X73211567Y-89409447D01*
X73837197Y-89577084D01*
X73565691Y-90590359D01*
X72940061Y-90422722D01*
X72940061Y-90422722D01*
G37*
G36*
X71867183Y-94426755D02*
X72138689Y-93413480D01*
X72764319Y-93581117D01*
X72492813Y-94594392D01*
X71867183Y-94426755D01*
X71867183Y-94426755D01*
G37*
D20*
X113050000Y-115850000D03*
X113050000Y-116800000D03*
X113050000Y-117750000D03*
X115250000Y-117750000D03*
X115250000Y-115850000D03*
D21*
X100448280Y-69699440D03*
X99447520Y-69699440D03*
X98449300Y-69699440D03*
X97448540Y-69699440D03*
X96447780Y-69699440D03*
X95449560Y-69699440D03*
X94448800Y-69699440D03*
X93448040Y-69699440D03*
X92449820Y-69699440D03*
X91449060Y-69699440D03*
X90448300Y-69699440D03*
X89447540Y-69699440D03*
X88449320Y-69699440D03*
X87448560Y-69699440D03*
X86447800Y-69699440D03*
D22*
X85599440Y-71098980D03*
X85599440Y-72099740D03*
X85599440Y-73097960D03*
X85599440Y-74098720D03*
X85599440Y-75099480D03*
X85599440Y-76097700D03*
X85599440Y-77098460D03*
X85599440Y-78099220D03*
X85599440Y-79099980D03*
X85599440Y-80098200D03*
X85599440Y-81098960D03*
X85599440Y-82099720D03*
X85599440Y-83097940D03*
X85599440Y-84098700D03*
X85599440Y-85099460D03*
X85599440Y-86097680D03*
X85599440Y-87098440D03*
D21*
X86447800Y-88497980D03*
X87448560Y-88497980D03*
X88449320Y-88497980D03*
X89447540Y-88497980D03*
X90448300Y-88497980D03*
X91449060Y-88497980D03*
X92449820Y-88497980D03*
X93448040Y-88497980D03*
X94448800Y-88497980D03*
X95449560Y-88497980D03*
X96447780Y-88497980D03*
X97448540Y-88497980D03*
X98449300Y-88497980D03*
X99447520Y-88497980D03*
X100448280Y-88497980D03*
D22*
X101299180Y-87098440D03*
X101299180Y-86097680D03*
X101299180Y-85099460D03*
X101299180Y-84098700D03*
X101299180Y-83097940D03*
X101299180Y-82099720D03*
X101299180Y-81098960D03*
X101299180Y-80098200D03*
X101299180Y-79099980D03*
X101299180Y-78099220D03*
X101299180Y-77098460D03*
X101299180Y-76097700D03*
X101299180Y-75099480D03*
X101299180Y-74098720D03*
X101299180Y-73097960D03*
X101299180Y-72099740D03*
X101299180Y-71098980D03*
D23*
X96447780Y-75599860D03*
X93448040Y-75599860D03*
X90448300Y-75599860D03*
X96447780Y-79099980D03*
X93448040Y-79099980D03*
X90448300Y-79099980D03*
X96447780Y-82597560D03*
X93448040Y-82597560D03*
X90448300Y-82597560D03*
X112068780Y-88218580D03*
X112068780Y-69978840D03*
M02*
