M48
;DRILL file {KiCad 4.0.7} date Tuesday, April 03, 2018 'AMt' 10:26:08 AM
;FORMAT={-:-/ absolute / inch / decimal}
FMAT,2
INCH,TZ
T1C0.012
T2C0.016
T3C0.039
%
G90
G05
M72
T1
X2.6575Y-3.8878
X2.7067Y-3.563
X2.7165Y-4.2028
X2.8248Y-3.8976
X2.8248Y-4.498
X2.8445Y-3.2874
X2.9134Y-3.8091
X2.9134Y-3.9862
X3.0118Y-4.7736
X3.0315Y-3.0118
X3.0807Y-3.7106
X3.0906Y-4.252
X3.2382Y-3.5335
X3.2776Y-4.9508
X3.2874Y-2.8346
X3.3169Y-3.0315
X3.376Y-4.6063
X3.5728Y-5.0787
X3.622Y-3.0413
X3.6811Y-3.3858
X3.7303Y-4.7146
X3.7402Y-3.1791
X3.8878Y-5.128
X4.1634Y-4.6752
X4.2028Y-5.0787
X4.2126Y-4.7343
X4.2126Y-4.8031
X4.3799Y-4.7343
X4.3799Y-4.813
X4.498Y-4.9606
X4.5374Y-4.2913
X4.5669Y-3.5335
X4.6457Y-3.4449
X4.685Y-4.0551
X4.7343Y-3.3366
X4.7638Y-4.7736
X4.7933Y-3.8976
X4.8819Y-3.8189
X4.8819Y-3.9862
X4.9508Y-4.5177
X4.9705Y-3.8976
X4.9902Y-3.6516
X5.0689Y-3.4154
X5.0787Y-4.2323
X5.0886Y-3.6811
X5.1378Y-3.9075
T2
X2.9331Y-4.0354
X2.9626Y-3.6122
X2.9823Y-3.8287
X2.9823Y-4.2717
X3.022Y-3.9076
X3.0413Y-3.3268
X3.061Y-3.2579
X3.1299Y-3.2874
X3.2972Y-3.376
X3.2972Y-3.4646
X3.4132Y-3.4042
X3.4154Y-3.3169
X3.4154Y-4.7638
X3.4154Y-3.4409
X3.4547Y-3.1201
X3.4547Y-3.1988
X3.5039Y-3.435
X3.5433Y-3.435
X3.6024Y-2.8051
X3.6122Y-3.1299
X3.622Y-4.8425
X3.6319Y-3.435
X3.6417Y-2.8642
X3.686Y-2.6347
X3.7992Y-2.8248
X3.8878Y-2.7953
X3.9075Y-3.0906
X4.0256Y-2.6181
X4.0387Y-2.7406
X4.0551Y-4.8425
X4.124Y-2.7461
X4.2224Y-2.6969
X4.3072Y-4.5571
X4.3701Y-2.7165
X4.3996Y-4.626
X4.4167Y-3.2946
X4.4587Y-3.2972
X4.498Y-2.8051
X4.5276Y-3.1791
X4.5374Y-3.0709
X4.5669Y-3.2972
X4.5671Y-3.2657
X4.685Y-3.5728
X4.7539Y-4.1043
X4.7539Y-4.2323
X4.7638Y-3.8287
X4.7933Y-3.5925
X4.813Y-3.0217
X4.8524Y-3.5138
X4.9606Y-3.2382
T3
X2.9134Y-3.8976
X3.0968Y-4.4649
X3.1675Y-4.5356
X3.2382Y-4.6063
X3.3089Y-4.677
X4.5366Y-3.1221
X4.5866Y-3.2087
X4.6366Y-3.2953
X4.6866Y-3.3819
X4.8819Y-3.8976
T0
M30
