G04 #@! TF.FileFunction,Soldermask,Top*
%FSLAX46Y46*%
G04 Gerber Fmt 4.6, Leading zero omitted, Abs format (unit mm)*
G04 Created by KiCad (PCBNEW 4.0.7) date Tuesday, April 03, 2018 'AMt' 10:26:05 AM*
%MOMM*%
%LPD*%
G01*
G04 APERTURE LIST*
%ADD10C,0.100000*%
%ADD11R,1.213000X0.705000*%
%ADD12R,0.705000X1.213000*%
%ADD13R,0.802640X1.102360*%
%ADD14R,1.102360X0.802640*%
%ADD15R,1.153160X1.851660*%
%ADD16R,1.851660X1.153160*%
%ADD17R,2.899360X2.099260*%
%ADD18C,1.906220*%
%ADD19R,2.000000X1.400000*%
%ADD20R,0.802640X0.701040*%
%ADD21R,1.460000X1.050000*%
%ADD22R,0.999440X1.598880*%
%ADD23R,1.598880X0.999440*%
%ADD24R,1.598880X1.598880*%
G04 APERTURE END LIST*
D10*
D11*
X120475000Y-91250000D03*
X123025000Y-91250000D03*
X120475000Y-91750000D03*
X120475000Y-92250000D03*
X120475000Y-90750000D03*
X120475000Y-90250000D03*
X123025000Y-90250000D03*
X123025000Y-90750000D03*
X123025000Y-91750000D03*
X123025000Y-92250000D03*
D12*
X121750000Y-92525000D03*
X121250000Y-92525000D03*
X122250000Y-92525000D03*
X122250000Y-89975000D03*
X121750000Y-89975000D03*
X121250000Y-89975000D03*
D13*
X108250700Y-122000000D03*
X109749300Y-122000000D03*
X108250700Y-120250000D03*
X109749300Y-120250000D03*
D14*
X119250000Y-111999300D03*
X119250000Y-110500700D03*
X117500000Y-111999300D03*
X117500000Y-110500700D03*
D15*
X97697800Y-67500000D03*
X94802200Y-67500000D03*
D16*
X83250000Y-81697800D03*
X83250000Y-78802200D03*
D13*
X92999300Y-67750000D03*
X91500700Y-67750000D03*
D14*
X81000000Y-81999300D03*
X81000000Y-80500700D03*
D15*
X99802200Y-67500000D03*
X102697800Y-67500000D03*
D16*
X83250000Y-86697800D03*
X83250000Y-83802200D03*
D13*
X104500700Y-68000000D03*
X105999300Y-68000000D03*
D14*
X81000000Y-86749300D03*
X81000000Y-85250700D03*
X124000000Y-94500700D03*
X124000000Y-95999300D03*
X122250000Y-94500700D03*
X122250000Y-95999300D03*
D13*
X125500000Y-91750000D03*
X126998600Y-91750000D03*
D17*
X113743989Y-121205756D03*
X117741949Y-121205756D03*
D18*
X124000000Y-99000000D03*
X74000000Y-99000000D03*
D19*
X118750000Y-117750000D03*
X118750000Y-114750000D03*
D13*
X113750700Y-113750000D03*
X115249300Y-113750000D03*
D20*
X110250000Y-115451360D03*
X110250000Y-116548640D03*
D14*
X108500000Y-116499300D03*
X108500000Y-115000700D03*
D13*
X119499300Y-79000000D03*
X118000700Y-79000000D03*
X120499300Y-80750000D03*
X119000700Y-80750000D03*
D14*
X123750000Y-86500700D03*
X123750000Y-87999300D03*
X122000000Y-86500700D03*
X122000000Y-87999300D03*
X120500000Y-94500700D03*
X120500000Y-95999300D03*
D10*
G36*
X77740592Y-85091050D02*
X78392102Y-83962602D01*
X79172998Y-84413452D01*
X78521488Y-85541900D01*
X77740592Y-85091050D01*
X77740592Y-85091050D01*
G37*
G36*
X75667952Y-88680968D02*
X76319462Y-87552520D01*
X77100358Y-88003370D01*
X76448848Y-89131818D01*
X75667952Y-88680968D01*
X75667952Y-88680968D01*
G37*
G36*
X75879642Y-84016630D02*
X76531152Y-82888182D01*
X77312048Y-83339032D01*
X76660538Y-84467480D01*
X75879642Y-84016630D01*
X75879642Y-84016630D01*
G37*
G36*
X73807002Y-87606548D02*
X74458512Y-86478100D01*
X75239408Y-86928950D01*
X74587898Y-88057398D01*
X73807002Y-87606548D01*
X73807002Y-87606548D01*
G37*
G36*
X74860138Y-91068686D02*
X75197385Y-89810065D01*
X76068360Y-90043442D01*
X75731113Y-91302063D01*
X74860138Y-91068686D01*
X74860138Y-91068686D01*
G37*
G36*
X73787260Y-95072719D02*
X74124507Y-93814098D01*
X74995482Y-94047475D01*
X74658235Y-95306096D01*
X73787260Y-95072719D01*
X73787260Y-95072719D01*
G37*
G36*
X72784518Y-90512525D02*
X73121765Y-89253904D01*
X73992740Y-89487281D01*
X73655493Y-90745902D01*
X72784518Y-90512525D01*
X72784518Y-90512525D01*
G37*
G36*
X71711640Y-94516558D02*
X72048887Y-93257937D01*
X72919862Y-93491314D01*
X72582615Y-94749935D01*
X71711640Y-94516558D01*
X71711640Y-94516558D01*
G37*
D21*
X113050000Y-115850000D03*
X113050000Y-116800000D03*
X113050000Y-117750000D03*
X115250000Y-117750000D03*
X115250000Y-115850000D03*
D22*
X100448280Y-69699440D03*
X99447520Y-69699440D03*
X98449300Y-69699440D03*
X97448540Y-69699440D03*
X96447780Y-69699440D03*
X95449560Y-69699440D03*
X94448800Y-69699440D03*
X93448040Y-69699440D03*
X92449820Y-69699440D03*
X91449060Y-69699440D03*
X90448300Y-69699440D03*
X89447540Y-69699440D03*
X88449320Y-69699440D03*
X87448560Y-69699440D03*
X86447800Y-69699440D03*
D23*
X85599440Y-71098980D03*
X85599440Y-72099740D03*
X85599440Y-73097960D03*
X85599440Y-74098720D03*
X85599440Y-75099480D03*
X85599440Y-76097700D03*
X85599440Y-77098460D03*
X85599440Y-78099220D03*
X85599440Y-79099980D03*
X85599440Y-80098200D03*
X85599440Y-81098960D03*
X85599440Y-82099720D03*
X85599440Y-83097940D03*
X85599440Y-84098700D03*
X85599440Y-85099460D03*
X85599440Y-86097680D03*
X85599440Y-87098440D03*
D22*
X86447800Y-88497980D03*
X87448560Y-88497980D03*
X88449320Y-88497980D03*
X89447540Y-88497980D03*
X90448300Y-88497980D03*
X91449060Y-88497980D03*
X92449820Y-88497980D03*
X93448040Y-88497980D03*
X94448800Y-88497980D03*
X95449560Y-88497980D03*
X96447780Y-88497980D03*
X97448540Y-88497980D03*
X98449300Y-88497980D03*
X99447520Y-88497980D03*
X100448280Y-88497980D03*
D23*
X101299180Y-87098440D03*
X101299180Y-86097680D03*
X101299180Y-85099460D03*
X101299180Y-84098700D03*
X101299180Y-83097940D03*
X101299180Y-82099720D03*
X101299180Y-81098960D03*
X101299180Y-80098200D03*
X101299180Y-79099980D03*
X101299180Y-78099220D03*
X101299180Y-77098460D03*
X101299180Y-76097700D03*
X101299180Y-75099480D03*
X101299180Y-74098720D03*
X101299180Y-73097960D03*
X101299180Y-72099740D03*
X101299180Y-71098980D03*
D24*
X96447780Y-75599860D03*
X93448040Y-75599860D03*
X90448300Y-75599860D03*
X96447780Y-79099980D03*
X93448040Y-79099980D03*
X90448300Y-79099980D03*
X96447780Y-82597560D03*
X93448040Y-82597560D03*
X90448300Y-82597560D03*
X112068780Y-88218580D03*
X112068780Y-69978840D03*
D18*
X119040000Y-85899409D03*
X117770000Y-83699704D03*
X116500000Y-81500000D03*
X115230000Y-79300295D03*
X84046051Y-118796051D03*
X82250000Y-117000000D03*
X80453948Y-115203948D03*
X78657897Y-113407897D03*
M02*
