G04 #@! TF.FileFunction,Copper,L1,Top,Signal*
%FSLAX46Y46*%
G04 Gerber Fmt 4.6, Leading zero omitted, Abs format (unit mm)*
G04 Created by KiCad (PCBNEW 4.0.7) date Tuesday, April 03, 2018 'AMt' 10:26:05 AM*
%MOMM*%
%LPD*%
G01*
G04 APERTURE LIST*
%ADD10C,0.100000*%
%ADD11C,0.600000*%
%ADD12R,0.813000X0.305000*%
%ADD13R,0.305000X0.813000*%
%ADD14R,0.599440X0.899160*%
%ADD15R,0.899160X0.599440*%
%ADD16R,0.899160X1.597660*%
%ADD17R,1.597660X0.899160*%
%ADD18R,2.499360X1.699260*%
%ADD19C,1.506220*%
%ADD20R,1.600000X1.000000*%
%ADD21R,0.599440X0.497840*%
%ADD22R,1.060000X0.650000*%
%ADD23R,0.599440X1.198880*%
%ADD24R,1.198880X0.599440*%
%ADD25R,1.198880X1.198880*%
%ADD26C,0.400000*%
%ADD27C,0.250000*%
%ADD28C,0.300000*%
%ADD29C,0.350000*%
%ADD30C,0.450000*%
%ADD31C,0.500000*%
G04 APERTURE END LIST*
D10*
D11*
X84250000Y-77000000D03*
X93500000Y-86000000D03*
X111250000Y-122250000D03*
X111250000Y-120250000D03*
X107000000Y-122000000D03*
X107000000Y-120250000D03*
X116000000Y-89750000D03*
X119000000Y-103000000D03*
X115250000Y-109000000D03*
X83500000Y-72000000D03*
X77000000Y-76500000D03*
X72250000Y-83500000D03*
X68750000Y-90500000D03*
X82250000Y-89750000D03*
X78250000Y-94250000D03*
X67500000Y-98750000D03*
X69000000Y-106750000D03*
X130500000Y-99250000D03*
X129000000Y-107500000D03*
X125750000Y-114750000D03*
X121000000Y-121250000D03*
X114250000Y-126000000D03*
X106750000Y-129000000D03*
X98750000Y-130250000D03*
X90750000Y-129000000D03*
X83250000Y-125750000D03*
X76500000Y-121250000D03*
X71750000Y-114250000D03*
X78500000Y-108000000D03*
X85750000Y-117000000D03*
X94750000Y-119750000D03*
X105750000Y-118750000D03*
X129250000Y-93500000D03*
X128750000Y-86750000D03*
X118000000Y-87500000D03*
X120250000Y-84750000D03*
X126750000Y-92750000D03*
D12*
X120475000Y-91250000D03*
X123025000Y-91250000D03*
X120475000Y-91750000D03*
X120475000Y-92250000D03*
X120475000Y-90750000D03*
X120475000Y-90250000D03*
X123025000Y-90250000D03*
X123025000Y-90750000D03*
X123025000Y-91750000D03*
X123025000Y-92250000D03*
D13*
X121750000Y-92525000D03*
X121250000Y-92525000D03*
X122250000Y-92525000D03*
X122250000Y-89975000D03*
X121750000Y-89975000D03*
X121250000Y-89975000D03*
D11*
X121750000Y-99000000D03*
X124000000Y-97000000D03*
X124000000Y-101250000D03*
X126250000Y-99000000D03*
X71750000Y-99000000D03*
X74000000Y-96750000D03*
X74000000Y-101250000D03*
X92000000Y-77250000D03*
D14*
X108250700Y-122000000D03*
X109749300Y-122000000D03*
X108250700Y-120250000D03*
X109749300Y-120250000D03*
D15*
X119250000Y-111999300D03*
X119250000Y-110500700D03*
X117500000Y-111999300D03*
X117500000Y-110500700D03*
D16*
X97697800Y-67500000D03*
X94802200Y-67500000D03*
D17*
X83250000Y-81697800D03*
X83250000Y-78802200D03*
D14*
X92999300Y-67750000D03*
X91500700Y-67750000D03*
D15*
X81000000Y-81999300D03*
X81000000Y-80500700D03*
D16*
X99802200Y-67500000D03*
X102697800Y-67500000D03*
D17*
X83250000Y-86697800D03*
X83250000Y-83802200D03*
D14*
X104500700Y-68000000D03*
X105999300Y-68000000D03*
D15*
X81000000Y-86749300D03*
X81000000Y-85250700D03*
X124000000Y-94500700D03*
X124000000Y-95999300D03*
X122250000Y-94500700D03*
X122250000Y-95999300D03*
D14*
X125500000Y-91750000D03*
X126998600Y-91750000D03*
D18*
X113743989Y-121205756D03*
X117741949Y-121205756D03*
D19*
X124000000Y-99000000D03*
X74000000Y-99000000D03*
D20*
X118750000Y-117750000D03*
X118750000Y-114750000D03*
D14*
X113750700Y-113750000D03*
X115249300Y-113750000D03*
D21*
X110250000Y-115451360D03*
X110250000Y-116548640D03*
D15*
X108500000Y-116499300D03*
X108500000Y-115000700D03*
D14*
X119499300Y-79000000D03*
X118000700Y-79000000D03*
X120499300Y-80750000D03*
X119000700Y-80750000D03*
D15*
X123750000Y-86500700D03*
X123750000Y-87999300D03*
X122000000Y-86500700D03*
X122000000Y-87999300D03*
X120500000Y-94500700D03*
X120500000Y-95999300D03*
D10*
G36*
X77914078Y-85044565D02*
X78438588Y-84136087D01*
X78999512Y-84459937D01*
X78475002Y-85368415D01*
X77914078Y-85044565D01*
X77914078Y-85044565D01*
G37*
G36*
X75841438Y-88634483D02*
X76365948Y-87726005D01*
X76926872Y-88049855D01*
X76402362Y-88958333D01*
X75841438Y-88634483D01*
X75841438Y-88634483D01*
G37*
G36*
X76053128Y-83970145D02*
X76577638Y-83061667D01*
X77138562Y-83385517D01*
X76614052Y-84293995D01*
X76053128Y-83970145D01*
X76053128Y-83970145D01*
G37*
G36*
X73980488Y-87560063D02*
X74504998Y-86651585D01*
X75065922Y-86975435D01*
X74541412Y-87883913D01*
X73980488Y-87560063D01*
X73980488Y-87560063D01*
G37*
G36*
X75015681Y-90978883D02*
X75287187Y-89965608D01*
X75912817Y-90133245D01*
X75641311Y-91146520D01*
X75015681Y-90978883D01*
X75015681Y-90978883D01*
G37*
G36*
X73942803Y-94982916D02*
X74214309Y-93969641D01*
X74839939Y-94137278D01*
X74568433Y-95150553D01*
X73942803Y-94982916D01*
X73942803Y-94982916D01*
G37*
G36*
X72940061Y-90422722D02*
X73211567Y-89409447D01*
X73837197Y-89577084D01*
X73565691Y-90590359D01*
X72940061Y-90422722D01*
X72940061Y-90422722D01*
G37*
G36*
X71867183Y-94426755D02*
X72138689Y-93413480D01*
X72764319Y-93581117D01*
X72492813Y-94594392D01*
X71867183Y-94426755D01*
X71867183Y-94426755D01*
G37*
D22*
X113050000Y-115850000D03*
X113050000Y-116800000D03*
X113050000Y-117750000D03*
X115250000Y-117750000D03*
X115250000Y-115850000D03*
D23*
X100448280Y-69699440D03*
X99447520Y-69699440D03*
X98449300Y-69699440D03*
X97448540Y-69699440D03*
X96447780Y-69699440D03*
X95449560Y-69699440D03*
X94448800Y-69699440D03*
X93448040Y-69699440D03*
X92449820Y-69699440D03*
X91449060Y-69699440D03*
X90448300Y-69699440D03*
X89447540Y-69699440D03*
X88449320Y-69699440D03*
X87448560Y-69699440D03*
X86447800Y-69699440D03*
D24*
X85599440Y-71098980D03*
X85599440Y-72099740D03*
X85599440Y-73097960D03*
X85599440Y-74098720D03*
X85599440Y-75099480D03*
X85599440Y-76097700D03*
X85599440Y-77098460D03*
X85599440Y-78099220D03*
X85599440Y-79099980D03*
X85599440Y-80098200D03*
X85599440Y-81098960D03*
X85599440Y-82099720D03*
X85599440Y-83097940D03*
X85599440Y-84098700D03*
X85599440Y-85099460D03*
X85599440Y-86097680D03*
X85599440Y-87098440D03*
D23*
X86447800Y-88497980D03*
X87448560Y-88497980D03*
X88449320Y-88497980D03*
X89447540Y-88497980D03*
X90448300Y-88497980D03*
X91449060Y-88497980D03*
X92449820Y-88497980D03*
X93448040Y-88497980D03*
X94448800Y-88497980D03*
X95449560Y-88497980D03*
X96447780Y-88497980D03*
X97448540Y-88497980D03*
X98449300Y-88497980D03*
X99447520Y-88497980D03*
X100448280Y-88497980D03*
D24*
X101299180Y-87098440D03*
X101299180Y-86097680D03*
X101299180Y-85099460D03*
X101299180Y-84098700D03*
X101299180Y-83097940D03*
X101299180Y-82099720D03*
X101299180Y-81098960D03*
X101299180Y-80098200D03*
X101299180Y-79099980D03*
X101299180Y-78099220D03*
X101299180Y-77098460D03*
X101299180Y-76097700D03*
X101299180Y-75099480D03*
X101299180Y-74098720D03*
X101299180Y-73097960D03*
X101299180Y-72099740D03*
X101299180Y-71098980D03*
D25*
X96447780Y-75599860D03*
X93448040Y-75599860D03*
X90448300Y-75599860D03*
X96447780Y-79099980D03*
X93448040Y-79099980D03*
X90448300Y-79099980D03*
X96447780Y-82597560D03*
X93448040Y-82597560D03*
X90448300Y-82597560D03*
X112068780Y-88218580D03*
X112068780Y-69978840D03*
D11*
X95000000Y-80750000D03*
D19*
X119040000Y-85899409D03*
X117770000Y-83699704D03*
X116500000Y-81500000D03*
X115230000Y-79300295D03*
X84046051Y-118796051D03*
X82250000Y-117000000D03*
X80453948Y-115203948D03*
X78657897Y-113407897D03*
D11*
X86750000Y-121000000D03*
X92000000Y-123000000D03*
X103000000Y-123000000D03*
X109401640Y-115750000D03*
X120750000Y-107500000D03*
X120750000Y-104250000D03*
X96500000Y-71750000D03*
X92500000Y-72750000D03*
X87750000Y-79250000D03*
X87750000Y-81250000D03*
X83750000Y-85750000D03*
X86694150Y-86466023D03*
X91750000Y-79500000D03*
X126000000Y-82250000D03*
X98750000Y-71000000D03*
X99250000Y-78500000D03*
X91500000Y-71250000D03*
X93624717Y-66921048D03*
X122250000Y-76750000D03*
X102250000Y-66500000D03*
X121750000Y-91249998D03*
X121000000Y-97250000D03*
X114250000Y-71250000D03*
X111000000Y-69000000D03*
X107250000Y-68500000D03*
X111750000Y-117500000D03*
X119000000Y-90750000D03*
X123250000Y-89250000D03*
X115000000Y-80750000D03*
X115250000Y-78000000D03*
X90000000Y-87250000D03*
X92250000Y-87250000D03*
X102583296Y-69610368D03*
X104750000Y-69750000D03*
X88999998Y-87250000D03*
X112183051Y-83683051D03*
X116003147Y-82949994D03*
X113250000Y-83750004D03*
X116000000Y-83749994D03*
X79500000Y-83500000D03*
X86750000Y-84250000D03*
X83750000Y-88000000D03*
X86750631Y-87398547D03*
X77750000Y-82750000D03*
X75750000Y-97250000D03*
X74500000Y-102500006D03*
X75750000Y-108500000D03*
X76758948Y-99252982D03*
X75250000Y-91750000D03*
X77250000Y-84500000D03*
D26*
X120750000Y-104250000D02*
X120750000Y-98963998D01*
X120750000Y-98963998D02*
X121963998Y-97750000D01*
X124086001Y-97700001D02*
X124336001Y-97700001D01*
X121963998Y-97750000D02*
X124036002Y-97750000D01*
X124036002Y-97750000D02*
X124086001Y-97700001D01*
X124336001Y-97700001D02*
X124700001Y-97336001D01*
X124700001Y-97336001D02*
X124700001Y-97086001D01*
X124849581Y-96936421D02*
X124849580Y-95200420D01*
X124700001Y-97086001D02*
X124849581Y-96936421D01*
X124849580Y-95200420D02*
X124149860Y-94500700D01*
X124149860Y-94500700D02*
X124000000Y-94500700D01*
D27*
X86750000Y-121000000D02*
X84546051Y-118796051D01*
X84546051Y-118796051D02*
X84046051Y-118796051D01*
X102500000Y-123500000D02*
X92500000Y-123500000D01*
X92500000Y-123500000D02*
X92000000Y-123000000D01*
X103000000Y-123000000D02*
X102500000Y-123500000D01*
X110250000Y-115451360D02*
X109700280Y-115451360D01*
X109700280Y-115451360D02*
X109401640Y-115750000D01*
D28*
X83750000Y-85750000D02*
X84373831Y-85126169D01*
X84373831Y-82472381D02*
X83599250Y-81697800D01*
X84373831Y-85126169D02*
X84373831Y-82472381D01*
D27*
X83599250Y-81697800D02*
X83250000Y-81697800D01*
D26*
X120750000Y-110649160D02*
X120750000Y-107500000D01*
X119399860Y-111999300D02*
X120750000Y-110649160D01*
X119250000Y-111999300D02*
X119399860Y-111999300D01*
D27*
X122250000Y-94500700D02*
X120500000Y-94500700D01*
D26*
X104500700Y-68149860D02*
X104500700Y-68000000D01*
X112178290Y-71678292D02*
X108029132Y-71678292D01*
X120276487Y-77700408D02*
X118200406Y-77700408D01*
X127700001Y-93336001D02*
X127700001Y-85123922D01*
X108029132Y-71678292D02*
X104500700Y-68149860D01*
X126535302Y-94500700D02*
X127700001Y-93336001D01*
X124000000Y-94500700D02*
X126535302Y-94500700D01*
X118200406Y-77700408D02*
X112178290Y-71678292D01*
X127700001Y-85123922D02*
X120276487Y-77700408D01*
X117500000Y-111999300D02*
X119250000Y-111999300D01*
X96447780Y-69699440D02*
X96447780Y-71697780D01*
X96447780Y-71697780D02*
X96500000Y-71750000D01*
X87750000Y-79250000D02*
X87750000Y-76379278D01*
X87750000Y-76379278D02*
X91379278Y-72750000D01*
X91379278Y-72750000D02*
X92500000Y-72750000D01*
X85599440Y-81098960D02*
X87598960Y-81098960D01*
X87598960Y-81098960D02*
X87750000Y-81250000D01*
D27*
X126250000Y-93084302D02*
X126250000Y-88301120D01*
X123025000Y-92250000D02*
X123681500Y-92250000D01*
X123681500Y-92250000D02*
X124000000Y-92568500D01*
X124000000Y-92568500D02*
X124000000Y-93500000D01*
X121250000Y-92525000D02*
X121250000Y-94500700D01*
X123750000Y-86500700D02*
X122000000Y-86500700D01*
X123750000Y-86500700D02*
X124449580Y-86500700D01*
X124449580Y-86500700D02*
X126250000Y-88301120D01*
X126250000Y-93084302D02*
X125834302Y-93500000D01*
X125834302Y-93500000D02*
X124000000Y-93500000D01*
X124000000Y-93500000D02*
X124000000Y-93950980D01*
X123649860Y-86500700D02*
X123500000Y-86500700D01*
X123025000Y-92250000D02*
X123279000Y-92250000D01*
X124000000Y-93950980D02*
X124000000Y-94500700D01*
X120500000Y-94500700D02*
X121250000Y-94500700D01*
X121250000Y-94500700D02*
X124000000Y-94500700D01*
D29*
X110250000Y-114807499D02*
X110250000Y-115451360D01*
X112832091Y-112225408D02*
X110250000Y-114807499D01*
X118750000Y-114750000D02*
X116225408Y-112225408D01*
X116225408Y-112225408D02*
X112832091Y-112225408D01*
X119250000Y-111999300D02*
X119250000Y-114250000D01*
X119250000Y-114250000D02*
X118750000Y-114750000D01*
X117500000Y-111999300D02*
X117500000Y-113500000D01*
X117500000Y-113500000D02*
X118750000Y-114750000D01*
X99802200Y-67500000D02*
X97697800Y-67500000D01*
D27*
X98449300Y-69699440D02*
X99447520Y-69699440D01*
X83250000Y-81697800D02*
X81301500Y-81697800D01*
X81301500Y-81697800D02*
X81000000Y-81999300D01*
X85599440Y-82099720D02*
X85599440Y-81098960D01*
X85599440Y-81098960D02*
X83848840Y-81098960D01*
X83848840Y-81098960D02*
X83250000Y-81697800D01*
D30*
X99802200Y-67500000D02*
X100501780Y-67500000D01*
X103950980Y-68000000D02*
X104500700Y-68000000D01*
X103327149Y-68623831D02*
X103950980Y-68000000D01*
X100501780Y-67500000D02*
X101625611Y-68623831D01*
X101625611Y-68623831D02*
X103327149Y-68623831D01*
D27*
X99447520Y-69699440D02*
X99447520Y-67854680D01*
X99447520Y-67854680D02*
X99802200Y-67500000D01*
X98449300Y-69699440D02*
X98449300Y-69399720D01*
X99802200Y-68046820D02*
X99802200Y-67500000D01*
X92999300Y-67750000D02*
X92999300Y-67899860D01*
D29*
X92999300Y-67899860D02*
X93874439Y-68774999D01*
X96447780Y-68850000D02*
X96447780Y-69699440D01*
X96372779Y-68774999D02*
X96447780Y-68850000D01*
X93874439Y-68774999D02*
X96372779Y-68774999D01*
D27*
X97697800Y-67500000D02*
X97697800Y-67849250D01*
D29*
X97697800Y-67849250D02*
X96447780Y-69099270D01*
X96447780Y-69099270D02*
X96447780Y-69699440D01*
D27*
X91449060Y-88497980D02*
X91449060Y-87648540D01*
X91449060Y-87648540D02*
X90175518Y-86374998D01*
X90175518Y-86374998D02*
X86785175Y-86374998D01*
X86785175Y-86374998D02*
X86694150Y-86466023D01*
X83250000Y-86697800D02*
X81051500Y-86697800D01*
X81051500Y-86697800D02*
X81000000Y-86749300D01*
X83750000Y-85750000D02*
X83750000Y-86197800D01*
X83750000Y-86197800D02*
X83250000Y-86697800D01*
D31*
X77317829Y-83677831D02*
X76595845Y-83677831D01*
X77389999Y-83750001D02*
X77317829Y-83677831D01*
X78110001Y-83750001D02*
X77389999Y-83750001D01*
X79250000Y-82610002D02*
X78110001Y-83750001D01*
X79250000Y-82250700D02*
X79250000Y-82610002D01*
X83950001Y-77299999D02*
X83902621Y-77299999D01*
X84250000Y-77000000D02*
X83950001Y-77299999D01*
X83250000Y-77952620D02*
X83250000Y-78802200D01*
X83902621Y-77299999D02*
X83250000Y-77952620D01*
D26*
X84250000Y-77000000D02*
X84250000Y-77802200D01*
X84250000Y-77802200D02*
X83250000Y-78802200D01*
D31*
X98750000Y-71000000D02*
X98450001Y-70700001D01*
X97599661Y-70700001D02*
X97448540Y-70548880D01*
X98450001Y-70700001D02*
X97599661Y-70700001D01*
D27*
X100448280Y-70548880D02*
X100000000Y-70997160D01*
D31*
X99250000Y-78500000D02*
X97047760Y-78500000D01*
X97047760Y-78500000D02*
X96447780Y-79099980D01*
D27*
X93578039Y-66975419D02*
X93624717Y-66921048D01*
X93624717Y-66921048D02*
X92125421Y-66975419D01*
D29*
X102697800Y-67500000D02*
X102697800Y-66947800D01*
X102697800Y-66947800D02*
X102250000Y-66500000D01*
D27*
X126750000Y-92750000D02*
X126750000Y-91998600D01*
X126750000Y-91998600D02*
X126998600Y-91750000D01*
X121250002Y-90750000D02*
X121750000Y-91249998D01*
X120475000Y-90750000D02*
X121250002Y-90750000D01*
D31*
X124000000Y-95999300D02*
X122250000Y-95999300D01*
X122250000Y-95999300D02*
X122250000Y-96000000D01*
X122250000Y-96000000D02*
X121000000Y-97250000D01*
X111000000Y-70250000D02*
X111019339Y-70250000D01*
X111019339Y-70250000D02*
X111019339Y-70938281D01*
X111019339Y-70938281D02*
X111109339Y-71028281D01*
X111109339Y-71028281D02*
X114028281Y-71028281D01*
X114028281Y-71028281D02*
X114250000Y-71250000D01*
X111000000Y-69000000D02*
X111000000Y-70250000D01*
X105999300Y-68000000D02*
X106750000Y-68000000D01*
X106750000Y-68000000D02*
X107250000Y-68500000D01*
D26*
X112450000Y-116800000D02*
X111750000Y-117500000D01*
X113050000Y-116800000D02*
X112450000Y-116800000D01*
D31*
X110249300Y-120750000D02*
X111250000Y-120750000D01*
X111250000Y-120750000D02*
X113288233Y-120750000D01*
X111250000Y-120250000D02*
X111250000Y-120750000D01*
X113199745Y-121750000D02*
X111250000Y-121750000D01*
X111250000Y-121750000D02*
X109999300Y-121750000D01*
X111250000Y-122250000D02*
X111250000Y-121750000D01*
D27*
X119500000Y-91250000D02*
X119000000Y-90750000D01*
X119743499Y-91250000D02*
X119500000Y-91250000D01*
X123025000Y-89475000D02*
X123250000Y-89250000D01*
X90448300Y-87698300D02*
X90000000Y-87250000D01*
X90448300Y-88497980D02*
X90448300Y-87698300D01*
X97448540Y-71726464D02*
X97448540Y-70548880D01*
X96800002Y-72375002D02*
X97448540Y-71726464D01*
X95449560Y-71624564D02*
X96199998Y-72375002D01*
X95449560Y-70548880D02*
X95449560Y-71624564D01*
X96199998Y-72375002D02*
X96800002Y-72375002D01*
X123025000Y-90250000D02*
X123025000Y-89475000D01*
X119743499Y-90837499D02*
X119743499Y-91250000D01*
X119743499Y-91250000D02*
X119743499Y-91662501D01*
X119743499Y-91662501D02*
X119808499Y-91727501D01*
X119808499Y-90772499D02*
X119743499Y-90837499D01*
X120452501Y-90772499D02*
X119808499Y-90772499D01*
X120452501Y-91727501D02*
X120475000Y-91750000D01*
X120475000Y-90750000D02*
X120452501Y-90772499D01*
X119808499Y-91727501D02*
X120452501Y-91727501D01*
D31*
X109749300Y-120250000D02*
X110249300Y-120750000D01*
X113288233Y-120750000D02*
X113743989Y-121205756D01*
X113743989Y-121205756D02*
X113199745Y-121750000D01*
X109999300Y-121750000D02*
X109749300Y-122000000D01*
D27*
X75900000Y-87488532D02*
X75900000Y-84373676D01*
D31*
X75900000Y-84373676D02*
X76595845Y-83677831D01*
D27*
X73388629Y-89999903D02*
X75900000Y-87488532D01*
D31*
X79250000Y-82250700D02*
X80300420Y-81200280D01*
X80300420Y-81050420D02*
X80850140Y-80500700D01*
X80300420Y-81200280D02*
X80300420Y-81050420D01*
D27*
X81000000Y-85250700D02*
X81000000Y-84000700D01*
X81000000Y-84000700D02*
X79250000Y-82250700D01*
X80850140Y-80500700D02*
X81000000Y-80500700D01*
X92250000Y-87250000D02*
X92250000Y-88298160D01*
X92250000Y-88298160D02*
X92449820Y-88497980D01*
X88524321Y-70623881D02*
X93500000Y-70623881D01*
X88449320Y-70548880D02*
X88524321Y-70623881D01*
X93500000Y-70623881D02*
X95374559Y-70623881D01*
X93448040Y-75599860D02*
X93448040Y-70675841D01*
X93448040Y-70675841D02*
X93500000Y-70623881D01*
X95374559Y-70623881D02*
X95449560Y-70548880D01*
X86447800Y-69699440D02*
X86447800Y-70548880D01*
X86447800Y-70548880D02*
X86522801Y-70623881D01*
X86522801Y-70623881D02*
X88374319Y-70623881D01*
X88374319Y-70623881D02*
X88449320Y-70548880D01*
X88449320Y-70548880D02*
X88449320Y-69699440D01*
X85599440Y-83097940D02*
X89947920Y-83097940D01*
X89947920Y-83097940D02*
X90448300Y-82597560D01*
X85599440Y-80098200D02*
X90299520Y-80098200D01*
X90299520Y-80098200D02*
X90448300Y-79949420D01*
X90448300Y-79949420D02*
X90448300Y-79099980D01*
X90448300Y-79099980D02*
X96447780Y-79099980D01*
X93448040Y-75599860D02*
X93448040Y-82597560D01*
X96447780Y-82597560D02*
X96447780Y-75599860D01*
X90448300Y-82597560D02*
X96447780Y-82597560D01*
X90448300Y-75599860D02*
X90448300Y-76449300D01*
X90448300Y-76449300D02*
X90448300Y-82597560D01*
X93448040Y-75599860D02*
X92598600Y-75599860D01*
X92598600Y-75599860D02*
X90448300Y-75599860D01*
X96447780Y-75599860D02*
X93448040Y-75599860D01*
X101299180Y-76097700D02*
X96945620Y-76097700D01*
X96945620Y-76097700D02*
X96447780Y-75599860D01*
X97448540Y-70548880D02*
X97523541Y-70623881D01*
X97523541Y-70623881D02*
X100373279Y-70623881D01*
X100373279Y-70623881D02*
X100448280Y-70548880D01*
X100448280Y-70548880D02*
X100448280Y-69699440D01*
X95449560Y-69699440D02*
X95449560Y-70548880D01*
X97448540Y-70548880D02*
X97448540Y-69699440D01*
D29*
X102697800Y-67500000D02*
X103397380Y-67500000D01*
X105374579Y-67225419D02*
X105999300Y-67850140D01*
X103671961Y-67225419D02*
X105374579Y-67225419D01*
X103397380Y-67500000D02*
X103671961Y-67225419D01*
D27*
X105999300Y-67850140D02*
X105999300Y-68000000D01*
X94802200Y-67500000D02*
X94102620Y-67500000D01*
X94102620Y-67500000D02*
X93578039Y-66975419D01*
X92125421Y-66975419D02*
X91500700Y-67600140D01*
X91500700Y-67600140D02*
X91500700Y-67750000D01*
X83250000Y-83802200D02*
X82598360Y-83802200D01*
X82598360Y-83802200D02*
X81149860Y-85250700D01*
X81149860Y-85250700D02*
X81000000Y-85250700D01*
X83250000Y-78802200D02*
X82848360Y-78802200D01*
D31*
X82848360Y-78802200D02*
X81149860Y-80500700D01*
D27*
X81149860Y-80500700D02*
X81000000Y-80500700D01*
D31*
X104750000Y-69750000D02*
X102722928Y-69750000D01*
X102722928Y-69750000D02*
X102583296Y-69610368D01*
X108250700Y-122000000D02*
X107000000Y-122000000D01*
X108250700Y-120250000D02*
X107000000Y-120250000D01*
X115250000Y-115850000D02*
X115455000Y-115850000D01*
X115455000Y-115850000D02*
X116500000Y-116895000D01*
X116500000Y-116895000D02*
X116500000Y-118500000D01*
X116500000Y-118500000D02*
X115699580Y-119300420D01*
X115699580Y-119300420D02*
X109050420Y-119300420D01*
X109050420Y-119300420D02*
X108250700Y-120100140D01*
X108250700Y-120100140D02*
X108250700Y-120250000D01*
D29*
X115249300Y-113750000D02*
X115249300Y-115849300D01*
X115249300Y-115849300D02*
X115250000Y-115850000D01*
D31*
X108250700Y-122000000D02*
X108250700Y-120250000D01*
D27*
X89447540Y-88497980D02*
X89447540Y-87697542D01*
X89447540Y-87697542D02*
X88999998Y-87250000D01*
X101299180Y-81098960D02*
X109098960Y-81098960D01*
X109098960Y-81098960D02*
X111683051Y-83683051D01*
X111683051Y-83683051D02*
X112183051Y-83683051D01*
X123750000Y-87999300D02*
X123600140Y-87999300D01*
X119050423Y-87374579D02*
X118300001Y-88125001D01*
X118300001Y-88125001D02*
X117699998Y-88125001D01*
X122975419Y-87374579D02*
X119050423Y-87374579D01*
X123600140Y-87999300D02*
X122975419Y-87374579D01*
X116124996Y-82949994D02*
X116003147Y-82949994D01*
X116625001Y-83449999D02*
X116124996Y-82949994D01*
X117699998Y-88125001D02*
X116625001Y-87050004D01*
X116625001Y-87050004D02*
X116625001Y-83449999D01*
X123681500Y-90750000D02*
X123025000Y-90750000D01*
X123875002Y-90556498D02*
X123681500Y-90750000D01*
X123750000Y-87999300D02*
X123875002Y-88124302D01*
X123875002Y-88124302D02*
X123875002Y-90556498D01*
X113175006Y-83750004D02*
X113250000Y-83750004D01*
X101299180Y-80098200D02*
X109523202Y-80098200D01*
X109523202Y-80098200D02*
X113175006Y-83750004D01*
X122000000Y-87999300D02*
X121249300Y-88750000D01*
X121249300Y-88750000D02*
X117688586Y-88750000D01*
X117688586Y-88750000D02*
X116000000Y-87061414D01*
X116000000Y-87061414D02*
X116000000Y-83749994D01*
X122250000Y-89975000D02*
X122250000Y-88249300D01*
X122250000Y-88249300D02*
X122000000Y-87999300D01*
X79500000Y-83500000D02*
X79500000Y-83959046D01*
X79500000Y-83959046D02*
X78716795Y-84742251D01*
X99447520Y-88497980D02*
X99447520Y-87648540D01*
X99447520Y-87648540D02*
X96048980Y-84250000D01*
X96048980Y-84250000D02*
X86750000Y-84250000D01*
X75900676Y-90556064D02*
X78456740Y-88000000D01*
X78456740Y-88000000D02*
X83750000Y-88000000D01*
X75464249Y-90556064D02*
X75900676Y-90556064D01*
X87448560Y-88497980D02*
X87448560Y-88096476D01*
X87448560Y-88096476D02*
X86750631Y-87398547D01*
D31*
X118750000Y-117750000D02*
X118750000Y-120197705D01*
X118750000Y-120197705D02*
X117741949Y-121205756D01*
D26*
X113000000Y-112941398D02*
X113000000Y-114975000D01*
X113090979Y-112850419D02*
X113000000Y-112941398D01*
X118750000Y-116750000D02*
X115999021Y-113999021D01*
X115999021Y-112940419D02*
X115909021Y-112850419D01*
X118750000Y-117750000D02*
X118750000Y-116750000D01*
X115909021Y-112850419D02*
X113090979Y-112850419D01*
X115999021Y-113999021D02*
X115999021Y-112940419D01*
X113050000Y-115025000D02*
X113050000Y-115850000D01*
X113000000Y-114975000D02*
X113050000Y-115025000D01*
D27*
X125500000Y-91750000D02*
X123025000Y-91750000D01*
X120499300Y-80750000D02*
X120499300Y-80899860D01*
X120499300Y-80899860D02*
X117770000Y-83629160D01*
X117770000Y-83629160D02*
X117770000Y-83699704D01*
X116500000Y-81500000D02*
X117253109Y-80746891D01*
X117253109Y-80746891D02*
X117752409Y-80746891D01*
X117752409Y-80746891D02*
X118799720Y-79699580D01*
X118949580Y-79699580D02*
X119499300Y-79149860D01*
X118799720Y-79699580D02*
X118949580Y-79699580D01*
X119499300Y-79149860D02*
X119499300Y-79000000D01*
D29*
X113750700Y-113750000D02*
X113750700Y-114549580D01*
X113750700Y-114549580D02*
X114250000Y-115048880D01*
X114250000Y-115048880D02*
X114250000Y-116955000D01*
X114250000Y-116955000D02*
X115045000Y-117750000D01*
X115045000Y-117750000D02*
X115250000Y-117750000D01*
X112624999Y-118175001D02*
X113050000Y-117750000D01*
X109250000Y-117750000D02*
X109675001Y-118175001D01*
X109675001Y-118175001D02*
X112624999Y-118175001D01*
X109100980Y-117750000D02*
X109250000Y-117750000D01*
X110250000Y-116548640D02*
X110250000Y-117147560D01*
X110250000Y-117147560D02*
X109647560Y-117750000D01*
X109647560Y-117750000D02*
X109250000Y-117750000D01*
X108500000Y-116499300D02*
X108500000Y-117149020D01*
X108500000Y-117149020D02*
X109100980Y-117750000D01*
D27*
X118000700Y-79000000D02*
X111750700Y-72750000D01*
X102148620Y-74098720D02*
X101299180Y-74098720D01*
X103497340Y-72750000D02*
X102148620Y-74098720D01*
X111750700Y-72750000D02*
X103497340Y-72750000D01*
X103310940Y-72299989D02*
X102512969Y-73097960D01*
X112057512Y-72299989D02*
X103310940Y-72299989D01*
X120059021Y-78225419D02*
X117982942Y-78225419D01*
X117982942Y-78225419D02*
X112057512Y-72299989D01*
X120124021Y-78290419D02*
X120059021Y-78225419D01*
X120124021Y-79626679D02*
X120124021Y-78290419D01*
X119000700Y-80750000D02*
X120124021Y-79626679D01*
X102512969Y-73097960D02*
X101299180Y-73097960D01*
X121750000Y-89318500D02*
X121750000Y-89975000D01*
X118374998Y-90449998D02*
X119624985Y-89200011D01*
X119500000Y-95149160D02*
X119500000Y-92175004D01*
X120350140Y-95999300D02*
X119500000Y-95149160D01*
X119500000Y-92175004D02*
X118374998Y-91050002D01*
X120500000Y-95999300D02*
X120350140Y-95999300D01*
X121631511Y-89200011D02*
X121750000Y-89318500D01*
X118374998Y-91050002D02*
X118374998Y-90449998D01*
X119624985Y-89200011D02*
X121631511Y-89200011D01*
X84068698Y-76097700D02*
X77750000Y-82416398D01*
X77750000Y-82416398D02*
X77750000Y-82750000D01*
X85599440Y-76097700D02*
X84068698Y-76097700D01*
X76758948Y-99252982D02*
X76758948Y-98258948D01*
X76758948Y-98258948D02*
X75750000Y-97250000D01*
X74750000Y-102750006D02*
X74500000Y-102500006D01*
X74750000Y-105750000D02*
X74750000Y-102750006D01*
X75500000Y-106500000D02*
X74750000Y-105750000D01*
X75750000Y-108500000D02*
X75500000Y-108250000D01*
X75500000Y-108250000D02*
X75500000Y-106500000D01*
X74859402Y-89640598D02*
X74690671Y-89809329D01*
X74690671Y-89809329D02*
X74690671Y-91190671D01*
X74690671Y-91190671D02*
X75250000Y-91750000D01*
X77500000Y-88000000D02*
X77500000Y-88320329D01*
X77500000Y-88320329D02*
X76179731Y-89640598D01*
X76179731Y-89640598D02*
X74859402Y-89640598D01*
X76500000Y-87000000D02*
X77500000Y-88000000D01*
X76500000Y-85250000D02*
X76500000Y-87000000D01*
X77250000Y-84500000D02*
X76500000Y-85250000D01*
G36*
X85679330Y-69574440D02*
X86322800Y-69574440D01*
X86322800Y-69554440D01*
X86511596Y-69554440D01*
X86511596Y-69844440D01*
X86322800Y-69844440D01*
X86322800Y-69824440D01*
X85679330Y-69824440D01*
X85523080Y-69980690D01*
X85523080Y-70162016D01*
X85000000Y-70162016D01*
X84768389Y-70205597D01*
X84555668Y-70342479D01*
X84412962Y-70551336D01*
X84362756Y-70799260D01*
X84362756Y-71398700D01*
X84401899Y-71606726D01*
X84362756Y-71800020D01*
X84362756Y-72399460D01*
X84401651Y-72606169D01*
X84362756Y-72798240D01*
X84362756Y-73397680D01*
X84401899Y-73605706D01*
X84362756Y-73799000D01*
X84362756Y-74398440D01*
X84401899Y-74606466D01*
X84362756Y-74799760D01*
X84362756Y-75347700D01*
X84068698Y-75347700D01*
X83781685Y-75404790D01*
X83538368Y-75567370D01*
X77219670Y-81886068D01*
X77057090Y-82129385D01*
X77055772Y-82136009D01*
X76966280Y-82225345D01*
X76852730Y-82498804D01*
X76782473Y-82458241D01*
X76535960Y-82425786D01*
X76295792Y-82490140D01*
X76098532Y-82641503D01*
X75974212Y-82856831D01*
X75914742Y-82959836D01*
X75971933Y-83173278D01*
X76550092Y-83507078D01*
X76560092Y-83489757D01*
X76776598Y-83614757D01*
X76766598Y-83632078D01*
X76783919Y-83642078D01*
X76746272Y-83707285D01*
X76726714Y-83715366D01*
X76596317Y-83845535D01*
X76415092Y-83740905D01*
X76425092Y-83723584D01*
X75846933Y-83389784D01*
X75633492Y-83446976D01*
X75574022Y-83549981D01*
X75449702Y-83765309D01*
X75417248Y-84011823D01*
X75481600Y-84251992D01*
X75632963Y-84449251D01*
X75777520Y-84532711D01*
X75990959Y-84475520D01*
X75912835Y-84610835D01*
X76017866Y-84671474D01*
X75969670Y-84719670D01*
X75807090Y-84962987D01*
X75750000Y-85250000D01*
X75750000Y-87000000D01*
X75807090Y-87287013D01*
X75855886Y-87360042D01*
X75814079Y-87407383D01*
X75289569Y-88315861D01*
X75211505Y-88538232D01*
X75223688Y-88790894D01*
X75271579Y-88890598D01*
X74859402Y-88890598D01*
X74572389Y-88947688D01*
X74388845Y-89070329D01*
X74329072Y-89110268D01*
X74297132Y-89142208D01*
X74119043Y-89005557D01*
X73957811Y-88962354D01*
X73766444Y-89072840D01*
X73541722Y-89911515D01*
X73561040Y-89916691D01*
X73496335Y-90158172D01*
X73477017Y-90152996D01*
X73252295Y-90991671D01*
X73362781Y-91183037D01*
X73524013Y-91226239D01*
X73770526Y-91193786D01*
X73940671Y-91095552D01*
X73940671Y-91190671D01*
X73997761Y-91477684D01*
X74160341Y-91721001D01*
X74324882Y-91885542D01*
X74324840Y-91933187D01*
X74465366Y-92273286D01*
X74725345Y-92533720D01*
X75065199Y-92674839D01*
X75433187Y-92675160D01*
X75773286Y-92534634D01*
X76033720Y-92274655D01*
X76174839Y-91934801D01*
X76175160Y-91566813D01*
X76154584Y-91517015D01*
X76256841Y-91311451D01*
X76292313Y-91179066D01*
X76431006Y-91086394D01*
X78767400Y-88750000D01*
X83191684Y-88750000D01*
X83225345Y-88783720D01*
X83565199Y-88924839D01*
X83933187Y-88925160D01*
X84273286Y-88784634D01*
X84533720Y-88524655D01*
X84674839Y-88184801D01*
X84675059Y-87932575D01*
X84752076Y-87985198D01*
X85000000Y-88035404D01*
X85510836Y-88035404D01*
X85510836Y-89097420D01*
X85521636Y-89154818D01*
X84710470Y-90369476D01*
X84677825Y-90448343D01*
X84633844Y-90521492D01*
X82523268Y-96394455D01*
X82482817Y-96664569D01*
X82780386Y-102898162D01*
X82780386Y-102898163D01*
X82846383Y-103163195D01*
X85506793Y-108808411D01*
X85669189Y-109028013D01*
X85669192Y-109028015D01*
X90287417Y-113225414D01*
X90287419Y-113225417D01*
X90521492Y-113366156D01*
X96394455Y-115476732D01*
X96664569Y-115517183D01*
X102898162Y-115219614D01*
X102898163Y-115219614D01*
X103163195Y-115153617D01*
X104387460Y-114576660D01*
X107425420Y-114576660D01*
X107425420Y-114719450D01*
X107581670Y-114875700D01*
X108375000Y-114875700D01*
X108375000Y-114232230D01*
X108218750Y-114075980D01*
X107926100Y-114075980D01*
X107696386Y-114171131D01*
X107520570Y-114346946D01*
X107425420Y-114576660D01*
X104387460Y-114576660D01*
X108808411Y-112493207D01*
X109028013Y-112330811D01*
X109028015Y-112330808D01*
X111076758Y-110076660D01*
X116425420Y-110076660D01*
X116425420Y-110219450D01*
X116581670Y-110375700D01*
X117375000Y-110375700D01*
X117375000Y-109732230D01*
X117625000Y-109732230D01*
X117625000Y-110375700D01*
X119125000Y-110375700D01*
X119125000Y-109732230D01*
X118968750Y-109575980D01*
X118676100Y-109575980D01*
X118446386Y-109671131D01*
X118375000Y-109742517D01*
X118303614Y-109671131D01*
X118073900Y-109575980D01*
X117781250Y-109575980D01*
X117625000Y-109732230D01*
X117375000Y-109732230D01*
X117218750Y-109575980D01*
X116926100Y-109575980D01*
X116696386Y-109671131D01*
X116520570Y-109846946D01*
X116425420Y-110076660D01*
X111076758Y-110076660D01*
X113225414Y-107712583D01*
X113225417Y-107712581D01*
X113366156Y-107478508D01*
X115476732Y-101605545D01*
X115517183Y-101335431D01*
X115517183Y-101335430D01*
X115219614Y-95101838D01*
X115212827Y-95074580D01*
X115153617Y-94836805D01*
X112617468Y-89455264D01*
X112668220Y-89455264D01*
X112899831Y-89411683D01*
X113112552Y-89274801D01*
X113255258Y-89065944D01*
X113305464Y-88818020D01*
X113305464Y-87619140D01*
X113261883Y-87387529D01*
X113125001Y-87174808D01*
X112916144Y-87032102D01*
X112668220Y-86981896D01*
X111469340Y-86981896D01*
X111237729Y-87025477D01*
X111025008Y-87162359D01*
X111008294Y-87186821D01*
X107373602Y-84538967D01*
X107350298Y-84525566D01*
X103050298Y-82635566D01*
X103026205Y-82627778D01*
X102976590Y-82627212D01*
X102930662Y-82645994D01*
X102535864Y-82909193D01*
X102535864Y-82798220D01*
X102496969Y-82591511D01*
X102535864Y-82399440D01*
X102535864Y-81848960D01*
X108788300Y-81848960D01*
X111152721Y-84213381D01*
X111396039Y-84375962D01*
X111610287Y-84418578D01*
X111658396Y-84466771D01*
X111998250Y-84607890D01*
X112366238Y-84608211D01*
X112673122Y-84481409D01*
X112725345Y-84533724D01*
X113065199Y-84674843D01*
X113433187Y-84675164D01*
X113773286Y-84534638D01*
X114033720Y-84274659D01*
X114174839Y-83934805D01*
X114175160Y-83566817D01*
X114034634Y-83226718D01*
X113774655Y-82966284D01*
X113434801Y-82825165D01*
X113310719Y-82825057D01*
X112330973Y-81845311D01*
X113154080Y-82356205D01*
X113216547Y-82374952D01*
X113265432Y-82366451D01*
X113307159Y-82339601D01*
X113335152Y-82298632D01*
X113345000Y-82250000D01*
X113345000Y-79278319D01*
X113825063Y-79278319D01*
X113923597Y-79817638D01*
X114221019Y-80278197D01*
X114546563Y-80527994D01*
X114787654Y-80468190D01*
X115076907Y-79388683D01*
X114417170Y-79211907D01*
X115383093Y-79211907D01*
X116462600Y-79501160D01*
X116634937Y-79322271D01*
X116536403Y-78782952D01*
X116238981Y-78322393D01*
X115913437Y-78072596D01*
X115672346Y-78132400D01*
X115383093Y-79211907D01*
X114417170Y-79211907D01*
X113997400Y-79099430D01*
X113825063Y-79278319D01*
X113345000Y-79278319D01*
X113345000Y-78616858D01*
X114002301Y-78616858D01*
X114062105Y-78857949D01*
X115141612Y-79147202D01*
X115430865Y-78067695D01*
X115251976Y-77895358D01*
X114712657Y-77993892D01*
X114252098Y-78291314D01*
X114002301Y-78616858D01*
X113345000Y-78616858D01*
X113345000Y-75430000D01*
X113341745Y-75401705D01*
X117063736Y-79123696D01*
X117063736Y-79449580D01*
X117107317Y-79681191D01*
X117244199Y-79893912D01*
X117394914Y-79996891D01*
X117253109Y-79996891D01*
X116966096Y-80053981D01*
X116830079Y-80144865D01*
X116775326Y-80122130D01*
X116351787Y-80121760D01*
X116457699Y-79983732D01*
X116397895Y-79742641D01*
X115648261Y-79541777D01*
X115420920Y-79314436D01*
X115244141Y-79491215D01*
X115294704Y-79541778D01*
X115029135Y-80532895D01*
X115208024Y-80705232D01*
X115376311Y-80674486D01*
X115332376Y-80718344D01*
X115122130Y-81224674D01*
X115121651Y-81772920D01*
X115331014Y-82279617D01*
X115348179Y-82296812D01*
X115219427Y-82425339D01*
X115078308Y-82765193D01*
X115077987Y-83133181D01*
X115166049Y-83346308D01*
X115075161Y-83565193D01*
X115074840Y-83933181D01*
X115215366Y-84273280D01*
X115250000Y-84307975D01*
X115250000Y-87061414D01*
X115307090Y-87348427D01*
X115469670Y-87591744D01*
X117158256Y-89280330D01*
X117401573Y-89442910D01*
X117688586Y-89500000D01*
X118264336Y-89500000D01*
X117844668Y-89919668D01*
X117682088Y-90162985D01*
X117624998Y-90449998D01*
X117624998Y-91050002D01*
X117682088Y-91337015D01*
X117844668Y-91580332D01*
X118750000Y-92485664D01*
X118750000Y-95149160D01*
X118807090Y-95436173D01*
X118969670Y-95679490D01*
X119413176Y-96122996D01*
X119413176Y-96299020D01*
X119456757Y-96530631D01*
X119593639Y-96743352D01*
X119802496Y-96886058D01*
X120050420Y-96936264D01*
X120949580Y-96936264D01*
X121181191Y-96892683D01*
X121381381Y-96763864D01*
X121446386Y-96828869D01*
X121676100Y-96924020D01*
X121968750Y-96924020D01*
X122125000Y-96767770D01*
X122125000Y-96124300D01*
X122105000Y-96124300D01*
X122105000Y-95874300D01*
X122125000Y-95874300D01*
X122125000Y-95854300D01*
X122375000Y-95854300D01*
X122375000Y-95874300D01*
X123875000Y-95874300D01*
X123875000Y-95854300D01*
X124024581Y-95854300D01*
X124024581Y-96075021D01*
X123816813Y-96074840D01*
X123697111Y-96124300D01*
X122375000Y-96124300D01*
X122375000Y-96767770D01*
X122531250Y-96924020D01*
X122823900Y-96924020D01*
X123053614Y-96828869D01*
X123080754Y-96801729D01*
X123075161Y-96815199D01*
X123075065Y-96925000D01*
X121963998Y-96925000D01*
X121648284Y-96987799D01*
X121380635Y-97166637D01*
X120166637Y-98380635D01*
X119987799Y-98648284D01*
X119925000Y-98963998D01*
X119925000Y-103824759D01*
X119825161Y-104065199D01*
X119824840Y-104433187D01*
X119965366Y-104773286D01*
X120225345Y-105033720D01*
X120565199Y-105174839D01*
X120933187Y-105175160D01*
X121273286Y-105034634D01*
X121533720Y-104774655D01*
X121674839Y-104434801D01*
X121675160Y-104066813D01*
X121575000Y-103824407D01*
X121575000Y-99924848D01*
X121933187Y-99925160D01*
X122273286Y-99784634D01*
X122533720Y-99524655D01*
X122629930Y-99292956D01*
X122831014Y-99779617D01*
X123218344Y-100167624D01*
X123706617Y-100370372D01*
X123476714Y-100465366D01*
X123216280Y-100725345D01*
X123075161Y-101065199D01*
X123074840Y-101433187D01*
X123215366Y-101773286D01*
X123475345Y-102033720D01*
X123815199Y-102174839D01*
X124183187Y-102175160D01*
X124523286Y-102034634D01*
X124783720Y-101774655D01*
X124924839Y-101434801D01*
X124925160Y-101066813D01*
X124784634Y-100726714D01*
X124524655Y-100466280D01*
X124292956Y-100370070D01*
X124779617Y-100168986D01*
X125167624Y-99781656D01*
X125370372Y-99293383D01*
X125465366Y-99523286D01*
X125725345Y-99783720D01*
X126065199Y-99924839D01*
X126433187Y-99925160D01*
X126773286Y-99784634D01*
X127033720Y-99524655D01*
X127174839Y-99184801D01*
X127175160Y-98816813D01*
X127034634Y-98476714D01*
X126774655Y-98216280D01*
X126434801Y-98075161D01*
X126066813Y-98074840D01*
X125726714Y-98215366D01*
X125466280Y-98475345D01*
X125370070Y-98707044D01*
X125168986Y-98220383D01*
X125075747Y-98126981D01*
X125283364Y-97919364D01*
X125462202Y-97651715D01*
X125511970Y-97401514D01*
X125611782Y-97252135D01*
X125674581Y-96936421D01*
X125674580Y-95325700D01*
X126535302Y-95325700D01*
X126851016Y-95262901D01*
X127118665Y-95084063D01*
X128283364Y-93919364D01*
X128462202Y-93651715D01*
X128525001Y-93336001D01*
X128525001Y-85724595D01*
X129072279Y-86543654D01*
X131550000Y-99000000D01*
X129072279Y-111456346D01*
X122016326Y-122016326D01*
X111456346Y-129072279D01*
X99000000Y-131550000D01*
X86543654Y-129072279D01*
X77730005Y-123183187D01*
X91074840Y-123183187D01*
X91215366Y-123523286D01*
X91475345Y-123783720D01*
X91815199Y-123924839D01*
X91864222Y-123924882D01*
X91969670Y-124030330D01*
X92212987Y-124192910D01*
X92500000Y-124250000D01*
X102500000Y-124250000D01*
X102787013Y-124192910D01*
X103030330Y-124030330D01*
X103135542Y-123925118D01*
X103183187Y-123925160D01*
X103523286Y-123784634D01*
X103783720Y-123524655D01*
X103924839Y-123184801D01*
X103925160Y-122816813D01*
X103784634Y-122476714D01*
X103524655Y-122216280D01*
X103184801Y-122075161D01*
X102816813Y-122074840D01*
X102476714Y-122215366D01*
X102216280Y-122475345D01*
X102102234Y-122750000D01*
X92897553Y-122750000D01*
X92784634Y-122476714D01*
X92524655Y-122216280D01*
X92184801Y-122075161D01*
X91816813Y-122074840D01*
X91476714Y-122215366D01*
X91216280Y-122475345D01*
X91075161Y-122815199D01*
X91074840Y-123183187D01*
X77730005Y-123183187D01*
X75983674Y-122016326D01*
X71660571Y-115546345D01*
X79091195Y-115546345D01*
X79325958Y-116041785D01*
X79732447Y-116409672D01*
X80111551Y-116566701D01*
X80328948Y-116446536D01*
X80328948Y-115394868D01*
X80468089Y-115394868D01*
X80578948Y-115505727D01*
X80578948Y-116446536D01*
X80796345Y-116566701D01*
X80972358Y-116483298D01*
X80872130Y-116724674D01*
X80871651Y-117272920D01*
X81081014Y-117779617D01*
X81468344Y-118167624D01*
X81974674Y-118377870D01*
X82522920Y-118378349D01*
X82769629Y-118276411D01*
X82668181Y-118520725D01*
X82667702Y-119068971D01*
X82877065Y-119575668D01*
X83264395Y-119963675D01*
X83770725Y-120173921D01*
X84318971Y-120174400D01*
X84704459Y-120015119D01*
X85824882Y-121135542D01*
X85824840Y-121183187D01*
X85965366Y-121523286D01*
X86225345Y-121783720D01*
X86565199Y-121924839D01*
X86933187Y-121925160D01*
X87273286Y-121784634D01*
X87533720Y-121524655D01*
X87674839Y-121184801D01*
X87675160Y-120816813D01*
X87534634Y-120476714D01*
X87491184Y-120433187D01*
X106074840Y-120433187D01*
X106215366Y-120773286D01*
X106475345Y-121033720D01*
X106695294Y-121125050D01*
X106476714Y-121215366D01*
X106216280Y-121475345D01*
X106075161Y-121815199D01*
X106074840Y-122183187D01*
X106215366Y-122523286D01*
X106475345Y-122783720D01*
X106815199Y-122924839D01*
X107183187Y-122925160D01*
X107304584Y-122875000D01*
X107482029Y-122875000D01*
X107494199Y-122893912D01*
X107703056Y-123036618D01*
X107950980Y-123086824D01*
X108550420Y-123086824D01*
X108782031Y-123043243D01*
X108994752Y-122906361D01*
X109006006Y-122889890D01*
X109095546Y-122979430D01*
X109325260Y-123074580D01*
X109468050Y-123074580D01*
X109624300Y-122918330D01*
X109624300Y-122125000D01*
X109874300Y-122125000D01*
X109874300Y-122918330D01*
X110030550Y-123074580D01*
X110173340Y-123074580D01*
X110403054Y-122979430D01*
X110578869Y-122803614D01*
X110674020Y-122573900D01*
X110674020Y-122281250D01*
X110517770Y-122125000D01*
X109874300Y-122125000D01*
X109624300Y-122125000D01*
X109604300Y-122125000D01*
X109604300Y-121875000D01*
X109624300Y-121875000D01*
X109624300Y-120375000D01*
X109874300Y-120375000D01*
X109874300Y-121875000D01*
X110517770Y-121875000D01*
X110674020Y-121718750D01*
X110674020Y-121487006D01*
X111869309Y-121487006D01*
X111869309Y-122179706D01*
X111964460Y-122409420D01*
X112140275Y-122585236D01*
X112369989Y-122680386D01*
X113462739Y-122680386D01*
X113618989Y-122524136D01*
X113618989Y-121330756D01*
X113868989Y-121330756D01*
X113868989Y-122524136D01*
X114025239Y-122680386D01*
X115117989Y-122680386D01*
X115347703Y-122585236D01*
X115523518Y-122409420D01*
X115618669Y-122179706D01*
X115618669Y-121487006D01*
X115462419Y-121330756D01*
X113868989Y-121330756D01*
X113618989Y-121330756D01*
X112025559Y-121330756D01*
X111869309Y-121487006D01*
X110674020Y-121487006D01*
X110674020Y-121426100D01*
X110578869Y-121196386D01*
X110507483Y-121125000D01*
X110578869Y-121053614D01*
X110674020Y-120823900D01*
X110674020Y-120531250D01*
X110517770Y-120375000D01*
X109874300Y-120375000D01*
X109624300Y-120375000D01*
X109604300Y-120375000D01*
X109604300Y-120175420D01*
X111892665Y-120175420D01*
X111869309Y-120231806D01*
X111869309Y-120924506D01*
X112025559Y-121080756D01*
X113618989Y-121080756D01*
X113618989Y-121060756D01*
X113868989Y-121060756D01*
X113868989Y-121080756D01*
X115462419Y-121080756D01*
X115618669Y-120924506D01*
X115618669Y-120231806D01*
X115595313Y-120175420D01*
X115699580Y-120175420D01*
X115899679Y-120135618D01*
X115855025Y-120356126D01*
X115855025Y-122055386D01*
X115898606Y-122286997D01*
X116035488Y-122499718D01*
X116244345Y-122642424D01*
X116492269Y-122692630D01*
X118991629Y-122692630D01*
X119223240Y-122649049D01*
X119435961Y-122512167D01*
X119578667Y-122303310D01*
X119628873Y-122055386D01*
X119628873Y-120356126D01*
X119611672Y-120264711D01*
X119625000Y-120197705D01*
X119625000Y-118873132D01*
X119781611Y-118843663D01*
X119994332Y-118706781D01*
X120137038Y-118497924D01*
X120187244Y-118250000D01*
X120187244Y-117250000D01*
X120143663Y-117018389D01*
X120006781Y-116805668D01*
X119797924Y-116662962D01*
X119550000Y-116612756D01*
X119547701Y-116612756D01*
X119512201Y-116434286D01*
X119333363Y-116166637D01*
X119053970Y-115887244D01*
X119550000Y-115887244D01*
X119781611Y-115843663D01*
X119994332Y-115706781D01*
X120137038Y-115497924D01*
X120187244Y-115250000D01*
X120187244Y-114250000D01*
X120143663Y-114018389D01*
X120050000Y-113872832D01*
X120050000Y-112816232D01*
X120143912Y-112755801D01*
X120286618Y-112546944D01*
X120336824Y-112299020D01*
X120336824Y-112229062D01*
X121333363Y-111232523D01*
X121512201Y-110964874D01*
X121575000Y-110649160D01*
X121575000Y-107925241D01*
X121674839Y-107684801D01*
X121675160Y-107316813D01*
X121534634Y-106976714D01*
X121274655Y-106716280D01*
X120934801Y-106575161D01*
X120566813Y-106574840D01*
X120226714Y-106715366D01*
X119966280Y-106975345D01*
X119825161Y-107315199D01*
X119824840Y-107683187D01*
X119925000Y-107925593D01*
X119925000Y-109617857D01*
X119823900Y-109575980D01*
X119531250Y-109575980D01*
X119375000Y-109732230D01*
X119375000Y-110375700D01*
X119395000Y-110375700D01*
X119395000Y-110625700D01*
X119375000Y-110625700D01*
X119375000Y-110645700D01*
X119125000Y-110645700D01*
X119125000Y-110625700D01*
X117625000Y-110625700D01*
X117625000Y-110645700D01*
X117375000Y-110645700D01*
X117375000Y-110625700D01*
X116581670Y-110625700D01*
X116425420Y-110781950D01*
X116425420Y-110924740D01*
X116520570Y-111154454D01*
X116607808Y-111241692D01*
X116606088Y-111242799D01*
X116463382Y-111451656D01*
X116459277Y-111471927D01*
X116225408Y-111425408D01*
X112832091Y-111425408D01*
X112525944Y-111486304D01*
X112266405Y-111659723D01*
X109684315Y-114241814D01*
X109530953Y-114471335D01*
X109479430Y-114346946D01*
X109303614Y-114171131D01*
X109073900Y-114075980D01*
X108781250Y-114075980D01*
X108625000Y-114232230D01*
X108625000Y-114875700D01*
X108645000Y-114875700D01*
X108645000Y-115125700D01*
X108625000Y-115125700D01*
X108625000Y-115145700D01*
X108375000Y-115145700D01*
X108375000Y-115125700D01*
X107581670Y-115125700D01*
X107425420Y-115281950D01*
X107425420Y-115424740D01*
X107520570Y-115654454D01*
X107607808Y-115741692D01*
X107606088Y-115742799D01*
X107463382Y-115951656D01*
X107413176Y-116199580D01*
X107413176Y-116799020D01*
X107456757Y-117030631D01*
X107593639Y-117243352D01*
X107738444Y-117342293D01*
X107756846Y-117434804D01*
X107760896Y-117455167D01*
X107934315Y-117714705D01*
X108535295Y-118315685D01*
X108780019Y-118479206D01*
X108730257Y-118489104D01*
X108715572Y-118492025D01*
X108431702Y-118681701D01*
X107950053Y-119163350D01*
X107719369Y-119206757D01*
X107506648Y-119343639D01*
X107485220Y-119375000D01*
X107304827Y-119375000D01*
X107184801Y-119325161D01*
X106816813Y-119324840D01*
X106476714Y-119465366D01*
X106216280Y-119725345D01*
X106075161Y-120065199D01*
X106074840Y-120433187D01*
X87491184Y-120433187D01*
X87274655Y-120216280D01*
X86934801Y-120075161D01*
X86885778Y-120075118D01*
X85424321Y-118613661D01*
X85424400Y-118523131D01*
X85215037Y-118016434D01*
X84827707Y-117628427D01*
X84321377Y-117418181D01*
X83773131Y-117417702D01*
X83526422Y-117519640D01*
X83627870Y-117275326D01*
X83628349Y-116727080D01*
X83418986Y-116220383D01*
X83031656Y-115832376D01*
X82525326Y-115622130D01*
X81977080Y-115621651D01*
X81745951Y-115717152D01*
X81816701Y-115546345D01*
X81696536Y-115328948D01*
X80755727Y-115328948D01*
X80644868Y-115218089D01*
X80468089Y-115394868D01*
X80328948Y-115394868D01*
X80328948Y-115328948D01*
X79211360Y-115328948D01*
X79091195Y-115546345D01*
X71660571Y-115546345D01*
X70414065Y-113680817D01*
X77279548Y-113680817D01*
X77488911Y-114187514D01*
X77876241Y-114575521D01*
X78382571Y-114785767D01*
X78930817Y-114786246D01*
X79161944Y-114690746D01*
X79091195Y-114861551D01*
X79211360Y-115078948D01*
X80152169Y-115078948D01*
X80263028Y-115189807D01*
X80439807Y-115013028D01*
X80328948Y-114902169D01*
X80328948Y-113961360D01*
X80578948Y-113961360D01*
X80578948Y-115078948D01*
X81696536Y-115078948D01*
X81816701Y-114861551D01*
X81581938Y-114366111D01*
X81175449Y-113998224D01*
X80796345Y-113841195D01*
X80578948Y-113961360D01*
X80328948Y-113961360D01*
X80111551Y-113841195D01*
X79935540Y-113924597D01*
X80035767Y-113683223D01*
X80036246Y-113134977D01*
X79826883Y-112628280D01*
X79439553Y-112240273D01*
X78933223Y-112030027D01*
X78384977Y-112029548D01*
X77878280Y-112238911D01*
X77490273Y-112626241D01*
X77280027Y-113132571D01*
X77279548Y-113680817D01*
X70414065Y-113680817D01*
X68927721Y-111456346D01*
X67182634Y-102683193D01*
X73574840Y-102683193D01*
X73715366Y-103023292D01*
X73975345Y-103283726D01*
X74000000Y-103293964D01*
X74000000Y-105750000D01*
X74057090Y-106037013D01*
X74219670Y-106280330D01*
X74750000Y-106810660D01*
X74750000Y-108250000D01*
X74807090Y-108537013D01*
X74824944Y-108563734D01*
X74824840Y-108683187D01*
X74965366Y-109023286D01*
X75225345Y-109283720D01*
X75565199Y-109424839D01*
X75933187Y-109425160D01*
X76273286Y-109284634D01*
X76533720Y-109024655D01*
X76674839Y-108684801D01*
X76675160Y-108316813D01*
X76534634Y-107976714D01*
X76274655Y-107716280D01*
X76250000Y-107706042D01*
X76250000Y-106500000D01*
X76192910Y-106212987D01*
X76030330Y-105969670D01*
X75500000Y-105439340D01*
X75500000Y-102750006D01*
X75442910Y-102462993D01*
X75425056Y-102436272D01*
X75425160Y-102316819D01*
X75284634Y-101976720D01*
X75024655Y-101716286D01*
X74684801Y-101575167D01*
X74316813Y-101574846D01*
X73976714Y-101715372D01*
X73716280Y-101975351D01*
X73575161Y-102315205D01*
X73574840Y-102683193D01*
X67182634Y-102683193D01*
X66642355Y-99967031D01*
X73209746Y-99967031D01*
X73278499Y-100205723D01*
X73794831Y-100390050D01*
X74342397Y-100362754D01*
X74721501Y-100205723D01*
X74790254Y-99967031D01*
X74000000Y-99176777D01*
X73209746Y-99967031D01*
X66642355Y-99967031D01*
X66450000Y-99000000D01*
X66490810Y-98794831D01*
X72609950Y-98794831D01*
X72637246Y-99342397D01*
X72794277Y-99721501D01*
X73032969Y-99790254D01*
X73823223Y-99000000D01*
X74176777Y-99000000D01*
X74967031Y-99790254D01*
X75205723Y-99721501D01*
X75390050Y-99205169D01*
X75362754Y-98657603D01*
X75205723Y-98278499D01*
X74967031Y-98209746D01*
X74176777Y-99000000D01*
X73823223Y-99000000D01*
X73032969Y-98209746D01*
X72794277Y-98278499D01*
X72609950Y-98794831D01*
X66490810Y-98794831D01*
X66642353Y-98032969D01*
X73209746Y-98032969D01*
X74000000Y-98823223D01*
X74790254Y-98032969D01*
X74721501Y-97794277D01*
X74205169Y-97609950D01*
X73657603Y-97637246D01*
X73278499Y-97794277D01*
X73209746Y-98032969D01*
X66642353Y-98032969D01*
X66761657Y-97433187D01*
X74824840Y-97433187D01*
X74965366Y-97773286D01*
X75225345Y-98033720D01*
X75565199Y-98174839D01*
X75614222Y-98174882D01*
X76008948Y-98569608D01*
X76008948Y-98694666D01*
X75975228Y-98728327D01*
X75834109Y-99068181D01*
X75833788Y-99436169D01*
X75974314Y-99776268D01*
X76234293Y-100036702D01*
X76574147Y-100177821D01*
X76942135Y-100178142D01*
X77282234Y-100037616D01*
X77542668Y-99777637D01*
X77683787Y-99437783D01*
X77684108Y-99069795D01*
X77543582Y-98729696D01*
X77508948Y-98695001D01*
X77508948Y-98258948D01*
X77451858Y-97971935D01*
X77289278Y-97728618D01*
X76675118Y-97114458D01*
X76675160Y-97066813D01*
X76534634Y-96726714D01*
X76274655Y-96466280D01*
X75934801Y-96325161D01*
X75566813Y-96324840D01*
X75226714Y-96465366D01*
X74966280Y-96725345D01*
X74825161Y-97065199D01*
X74824840Y-97433187D01*
X66761657Y-97433187D01*
X67345737Y-94496823D01*
X71233803Y-94496823D01*
X71310965Y-94737723D01*
X71475771Y-94929623D01*
X71702252Y-95042285D01*
X72327882Y-95209922D01*
X72562881Y-95227772D01*
X72803781Y-95150610D01*
X72917456Y-95052984D01*
X73309423Y-95052984D01*
X73386585Y-95293884D01*
X73551391Y-95485784D01*
X73777872Y-95598446D01*
X74403502Y-95766083D01*
X74638501Y-95783933D01*
X74879401Y-95706771D01*
X75071301Y-95541965D01*
X75183963Y-95315484D01*
X75455469Y-94302209D01*
X75473319Y-94067210D01*
X75396157Y-93826310D01*
X75231351Y-93634410D01*
X75004870Y-93521748D01*
X74379240Y-93354111D01*
X74144241Y-93336261D01*
X73903341Y-93413423D01*
X73711441Y-93578229D01*
X73598779Y-93804710D01*
X73327273Y-94817985D01*
X73309423Y-95052984D01*
X72917456Y-95052984D01*
X72995681Y-94985804D01*
X73108343Y-94759323D01*
X73379849Y-93746048D01*
X73397699Y-93511049D01*
X73320537Y-93270149D01*
X73155731Y-93078249D01*
X72929250Y-92965587D01*
X72303620Y-92797950D01*
X72068621Y-92780100D01*
X71827721Y-92857262D01*
X71635821Y-93022068D01*
X71523159Y-93248549D01*
X71251653Y-94261824D01*
X71233803Y-94496823D01*
X67345737Y-94496823D01*
X68164416Y-90381044D01*
X72304181Y-90381044D01*
X72336635Y-90627558D01*
X72460955Y-90842887D01*
X72658215Y-90994249D01*
X72819447Y-91037452D01*
X73010814Y-90926966D01*
X73235536Y-90088291D01*
X72590684Y-89915504D01*
X72399317Y-90025989D01*
X72368533Y-90140876D01*
X72304181Y-90381044D01*
X68164416Y-90381044D01*
X68343116Y-89482656D01*
X72544903Y-89482656D01*
X72655389Y-89674022D01*
X73300241Y-89846810D01*
X73524963Y-89008135D01*
X73414477Y-88816769D01*
X73253245Y-88773567D01*
X73006732Y-88806020D01*
X72791403Y-88930341D01*
X72640040Y-89127601D01*
X72575687Y-89367769D01*
X72544903Y-89482656D01*
X68343116Y-89482656D01*
X68744689Y-87463812D01*
X73350555Y-87463812D01*
X73362738Y-87716474D01*
X73472261Y-87944491D01*
X73661866Y-88111932D01*
X74222790Y-88435782D01*
X74445161Y-88513846D01*
X74697824Y-88501663D01*
X74925840Y-88392140D01*
X75093281Y-88202535D01*
X75617791Y-87294057D01*
X75695855Y-87071686D01*
X75683672Y-86819024D01*
X75574149Y-86591007D01*
X75384544Y-86423566D01*
X74823620Y-86099716D01*
X74601249Y-86021652D01*
X74348586Y-86033835D01*
X74120570Y-86143358D01*
X73953129Y-86332963D01*
X73428619Y-87241441D01*
X73350555Y-87463812D01*
X68744689Y-87463812D01*
X68927721Y-86543654D01*
X75983674Y-75983674D01*
X85637850Y-69532960D01*
X85679330Y-69574440D01*
X85679330Y-69574440D01*
G37*
X85679330Y-69574440D02*
X86322800Y-69574440D01*
X86322800Y-69554440D01*
X86511596Y-69554440D01*
X86511596Y-69844440D01*
X86322800Y-69844440D01*
X86322800Y-69824440D01*
X85679330Y-69824440D01*
X85523080Y-69980690D01*
X85523080Y-70162016D01*
X85000000Y-70162016D01*
X84768389Y-70205597D01*
X84555668Y-70342479D01*
X84412962Y-70551336D01*
X84362756Y-70799260D01*
X84362756Y-71398700D01*
X84401899Y-71606726D01*
X84362756Y-71800020D01*
X84362756Y-72399460D01*
X84401651Y-72606169D01*
X84362756Y-72798240D01*
X84362756Y-73397680D01*
X84401899Y-73605706D01*
X84362756Y-73799000D01*
X84362756Y-74398440D01*
X84401899Y-74606466D01*
X84362756Y-74799760D01*
X84362756Y-75347700D01*
X84068698Y-75347700D01*
X83781685Y-75404790D01*
X83538368Y-75567370D01*
X77219670Y-81886068D01*
X77057090Y-82129385D01*
X77055772Y-82136009D01*
X76966280Y-82225345D01*
X76852730Y-82498804D01*
X76782473Y-82458241D01*
X76535960Y-82425786D01*
X76295792Y-82490140D01*
X76098532Y-82641503D01*
X75974212Y-82856831D01*
X75914742Y-82959836D01*
X75971933Y-83173278D01*
X76550092Y-83507078D01*
X76560092Y-83489757D01*
X76776598Y-83614757D01*
X76766598Y-83632078D01*
X76783919Y-83642078D01*
X76746272Y-83707285D01*
X76726714Y-83715366D01*
X76596317Y-83845535D01*
X76415092Y-83740905D01*
X76425092Y-83723584D01*
X75846933Y-83389784D01*
X75633492Y-83446976D01*
X75574022Y-83549981D01*
X75449702Y-83765309D01*
X75417248Y-84011823D01*
X75481600Y-84251992D01*
X75632963Y-84449251D01*
X75777520Y-84532711D01*
X75990959Y-84475520D01*
X75912835Y-84610835D01*
X76017866Y-84671474D01*
X75969670Y-84719670D01*
X75807090Y-84962987D01*
X75750000Y-85250000D01*
X75750000Y-87000000D01*
X75807090Y-87287013D01*
X75855886Y-87360042D01*
X75814079Y-87407383D01*
X75289569Y-88315861D01*
X75211505Y-88538232D01*
X75223688Y-88790894D01*
X75271579Y-88890598D01*
X74859402Y-88890598D01*
X74572389Y-88947688D01*
X74388845Y-89070329D01*
X74329072Y-89110268D01*
X74297132Y-89142208D01*
X74119043Y-89005557D01*
X73957811Y-88962354D01*
X73766444Y-89072840D01*
X73541722Y-89911515D01*
X73561040Y-89916691D01*
X73496335Y-90158172D01*
X73477017Y-90152996D01*
X73252295Y-90991671D01*
X73362781Y-91183037D01*
X73524013Y-91226239D01*
X73770526Y-91193786D01*
X73940671Y-91095552D01*
X73940671Y-91190671D01*
X73997761Y-91477684D01*
X74160341Y-91721001D01*
X74324882Y-91885542D01*
X74324840Y-91933187D01*
X74465366Y-92273286D01*
X74725345Y-92533720D01*
X75065199Y-92674839D01*
X75433187Y-92675160D01*
X75773286Y-92534634D01*
X76033720Y-92274655D01*
X76174839Y-91934801D01*
X76175160Y-91566813D01*
X76154584Y-91517015D01*
X76256841Y-91311451D01*
X76292313Y-91179066D01*
X76431006Y-91086394D01*
X78767400Y-88750000D01*
X83191684Y-88750000D01*
X83225345Y-88783720D01*
X83565199Y-88924839D01*
X83933187Y-88925160D01*
X84273286Y-88784634D01*
X84533720Y-88524655D01*
X84674839Y-88184801D01*
X84675059Y-87932575D01*
X84752076Y-87985198D01*
X85000000Y-88035404D01*
X85510836Y-88035404D01*
X85510836Y-89097420D01*
X85521636Y-89154818D01*
X84710470Y-90369476D01*
X84677825Y-90448343D01*
X84633844Y-90521492D01*
X82523268Y-96394455D01*
X82482817Y-96664569D01*
X82780386Y-102898162D01*
X82780386Y-102898163D01*
X82846383Y-103163195D01*
X85506793Y-108808411D01*
X85669189Y-109028013D01*
X85669192Y-109028015D01*
X90287417Y-113225414D01*
X90287419Y-113225417D01*
X90521492Y-113366156D01*
X96394455Y-115476732D01*
X96664569Y-115517183D01*
X102898162Y-115219614D01*
X102898163Y-115219614D01*
X103163195Y-115153617D01*
X104387460Y-114576660D01*
X107425420Y-114576660D01*
X107425420Y-114719450D01*
X107581670Y-114875700D01*
X108375000Y-114875700D01*
X108375000Y-114232230D01*
X108218750Y-114075980D01*
X107926100Y-114075980D01*
X107696386Y-114171131D01*
X107520570Y-114346946D01*
X107425420Y-114576660D01*
X104387460Y-114576660D01*
X108808411Y-112493207D01*
X109028013Y-112330811D01*
X109028015Y-112330808D01*
X111076758Y-110076660D01*
X116425420Y-110076660D01*
X116425420Y-110219450D01*
X116581670Y-110375700D01*
X117375000Y-110375700D01*
X117375000Y-109732230D01*
X117625000Y-109732230D01*
X117625000Y-110375700D01*
X119125000Y-110375700D01*
X119125000Y-109732230D01*
X118968750Y-109575980D01*
X118676100Y-109575980D01*
X118446386Y-109671131D01*
X118375000Y-109742517D01*
X118303614Y-109671131D01*
X118073900Y-109575980D01*
X117781250Y-109575980D01*
X117625000Y-109732230D01*
X117375000Y-109732230D01*
X117218750Y-109575980D01*
X116926100Y-109575980D01*
X116696386Y-109671131D01*
X116520570Y-109846946D01*
X116425420Y-110076660D01*
X111076758Y-110076660D01*
X113225414Y-107712583D01*
X113225417Y-107712581D01*
X113366156Y-107478508D01*
X115476732Y-101605545D01*
X115517183Y-101335431D01*
X115517183Y-101335430D01*
X115219614Y-95101838D01*
X115212827Y-95074580D01*
X115153617Y-94836805D01*
X112617468Y-89455264D01*
X112668220Y-89455264D01*
X112899831Y-89411683D01*
X113112552Y-89274801D01*
X113255258Y-89065944D01*
X113305464Y-88818020D01*
X113305464Y-87619140D01*
X113261883Y-87387529D01*
X113125001Y-87174808D01*
X112916144Y-87032102D01*
X112668220Y-86981896D01*
X111469340Y-86981896D01*
X111237729Y-87025477D01*
X111025008Y-87162359D01*
X111008294Y-87186821D01*
X107373602Y-84538967D01*
X107350298Y-84525566D01*
X103050298Y-82635566D01*
X103026205Y-82627778D01*
X102976590Y-82627212D01*
X102930662Y-82645994D01*
X102535864Y-82909193D01*
X102535864Y-82798220D01*
X102496969Y-82591511D01*
X102535864Y-82399440D01*
X102535864Y-81848960D01*
X108788300Y-81848960D01*
X111152721Y-84213381D01*
X111396039Y-84375962D01*
X111610287Y-84418578D01*
X111658396Y-84466771D01*
X111998250Y-84607890D01*
X112366238Y-84608211D01*
X112673122Y-84481409D01*
X112725345Y-84533724D01*
X113065199Y-84674843D01*
X113433187Y-84675164D01*
X113773286Y-84534638D01*
X114033720Y-84274659D01*
X114174839Y-83934805D01*
X114175160Y-83566817D01*
X114034634Y-83226718D01*
X113774655Y-82966284D01*
X113434801Y-82825165D01*
X113310719Y-82825057D01*
X112330973Y-81845311D01*
X113154080Y-82356205D01*
X113216547Y-82374952D01*
X113265432Y-82366451D01*
X113307159Y-82339601D01*
X113335152Y-82298632D01*
X113345000Y-82250000D01*
X113345000Y-79278319D01*
X113825063Y-79278319D01*
X113923597Y-79817638D01*
X114221019Y-80278197D01*
X114546563Y-80527994D01*
X114787654Y-80468190D01*
X115076907Y-79388683D01*
X114417170Y-79211907D01*
X115383093Y-79211907D01*
X116462600Y-79501160D01*
X116634937Y-79322271D01*
X116536403Y-78782952D01*
X116238981Y-78322393D01*
X115913437Y-78072596D01*
X115672346Y-78132400D01*
X115383093Y-79211907D01*
X114417170Y-79211907D01*
X113997400Y-79099430D01*
X113825063Y-79278319D01*
X113345000Y-79278319D01*
X113345000Y-78616858D01*
X114002301Y-78616858D01*
X114062105Y-78857949D01*
X115141612Y-79147202D01*
X115430865Y-78067695D01*
X115251976Y-77895358D01*
X114712657Y-77993892D01*
X114252098Y-78291314D01*
X114002301Y-78616858D01*
X113345000Y-78616858D01*
X113345000Y-75430000D01*
X113341745Y-75401705D01*
X117063736Y-79123696D01*
X117063736Y-79449580D01*
X117107317Y-79681191D01*
X117244199Y-79893912D01*
X117394914Y-79996891D01*
X117253109Y-79996891D01*
X116966096Y-80053981D01*
X116830079Y-80144865D01*
X116775326Y-80122130D01*
X116351787Y-80121760D01*
X116457699Y-79983732D01*
X116397895Y-79742641D01*
X115648261Y-79541777D01*
X115420920Y-79314436D01*
X115244141Y-79491215D01*
X115294704Y-79541778D01*
X115029135Y-80532895D01*
X115208024Y-80705232D01*
X115376311Y-80674486D01*
X115332376Y-80718344D01*
X115122130Y-81224674D01*
X115121651Y-81772920D01*
X115331014Y-82279617D01*
X115348179Y-82296812D01*
X115219427Y-82425339D01*
X115078308Y-82765193D01*
X115077987Y-83133181D01*
X115166049Y-83346308D01*
X115075161Y-83565193D01*
X115074840Y-83933181D01*
X115215366Y-84273280D01*
X115250000Y-84307975D01*
X115250000Y-87061414D01*
X115307090Y-87348427D01*
X115469670Y-87591744D01*
X117158256Y-89280330D01*
X117401573Y-89442910D01*
X117688586Y-89500000D01*
X118264336Y-89500000D01*
X117844668Y-89919668D01*
X117682088Y-90162985D01*
X117624998Y-90449998D01*
X117624998Y-91050002D01*
X117682088Y-91337015D01*
X117844668Y-91580332D01*
X118750000Y-92485664D01*
X118750000Y-95149160D01*
X118807090Y-95436173D01*
X118969670Y-95679490D01*
X119413176Y-96122996D01*
X119413176Y-96299020D01*
X119456757Y-96530631D01*
X119593639Y-96743352D01*
X119802496Y-96886058D01*
X120050420Y-96936264D01*
X120949580Y-96936264D01*
X121181191Y-96892683D01*
X121381381Y-96763864D01*
X121446386Y-96828869D01*
X121676100Y-96924020D01*
X121968750Y-96924020D01*
X122125000Y-96767770D01*
X122125000Y-96124300D01*
X122105000Y-96124300D01*
X122105000Y-95874300D01*
X122125000Y-95874300D01*
X122125000Y-95854300D01*
X122375000Y-95854300D01*
X122375000Y-95874300D01*
X123875000Y-95874300D01*
X123875000Y-95854300D01*
X124024581Y-95854300D01*
X124024581Y-96075021D01*
X123816813Y-96074840D01*
X123697111Y-96124300D01*
X122375000Y-96124300D01*
X122375000Y-96767770D01*
X122531250Y-96924020D01*
X122823900Y-96924020D01*
X123053614Y-96828869D01*
X123080754Y-96801729D01*
X123075161Y-96815199D01*
X123075065Y-96925000D01*
X121963998Y-96925000D01*
X121648284Y-96987799D01*
X121380635Y-97166637D01*
X120166637Y-98380635D01*
X119987799Y-98648284D01*
X119925000Y-98963998D01*
X119925000Y-103824759D01*
X119825161Y-104065199D01*
X119824840Y-104433187D01*
X119965366Y-104773286D01*
X120225345Y-105033720D01*
X120565199Y-105174839D01*
X120933187Y-105175160D01*
X121273286Y-105034634D01*
X121533720Y-104774655D01*
X121674839Y-104434801D01*
X121675160Y-104066813D01*
X121575000Y-103824407D01*
X121575000Y-99924848D01*
X121933187Y-99925160D01*
X122273286Y-99784634D01*
X122533720Y-99524655D01*
X122629930Y-99292956D01*
X122831014Y-99779617D01*
X123218344Y-100167624D01*
X123706617Y-100370372D01*
X123476714Y-100465366D01*
X123216280Y-100725345D01*
X123075161Y-101065199D01*
X123074840Y-101433187D01*
X123215366Y-101773286D01*
X123475345Y-102033720D01*
X123815199Y-102174839D01*
X124183187Y-102175160D01*
X124523286Y-102034634D01*
X124783720Y-101774655D01*
X124924839Y-101434801D01*
X124925160Y-101066813D01*
X124784634Y-100726714D01*
X124524655Y-100466280D01*
X124292956Y-100370070D01*
X124779617Y-100168986D01*
X125167624Y-99781656D01*
X125370372Y-99293383D01*
X125465366Y-99523286D01*
X125725345Y-99783720D01*
X126065199Y-99924839D01*
X126433187Y-99925160D01*
X126773286Y-99784634D01*
X127033720Y-99524655D01*
X127174839Y-99184801D01*
X127175160Y-98816813D01*
X127034634Y-98476714D01*
X126774655Y-98216280D01*
X126434801Y-98075161D01*
X126066813Y-98074840D01*
X125726714Y-98215366D01*
X125466280Y-98475345D01*
X125370070Y-98707044D01*
X125168986Y-98220383D01*
X125075747Y-98126981D01*
X125283364Y-97919364D01*
X125462202Y-97651715D01*
X125511970Y-97401514D01*
X125611782Y-97252135D01*
X125674581Y-96936421D01*
X125674580Y-95325700D01*
X126535302Y-95325700D01*
X126851016Y-95262901D01*
X127118665Y-95084063D01*
X128283364Y-93919364D01*
X128462202Y-93651715D01*
X128525001Y-93336001D01*
X128525001Y-85724595D01*
X129072279Y-86543654D01*
X131550000Y-99000000D01*
X129072279Y-111456346D01*
X122016326Y-122016326D01*
X111456346Y-129072279D01*
X99000000Y-131550000D01*
X86543654Y-129072279D01*
X77730005Y-123183187D01*
X91074840Y-123183187D01*
X91215366Y-123523286D01*
X91475345Y-123783720D01*
X91815199Y-123924839D01*
X91864222Y-123924882D01*
X91969670Y-124030330D01*
X92212987Y-124192910D01*
X92500000Y-124250000D01*
X102500000Y-124250000D01*
X102787013Y-124192910D01*
X103030330Y-124030330D01*
X103135542Y-123925118D01*
X103183187Y-123925160D01*
X103523286Y-123784634D01*
X103783720Y-123524655D01*
X103924839Y-123184801D01*
X103925160Y-122816813D01*
X103784634Y-122476714D01*
X103524655Y-122216280D01*
X103184801Y-122075161D01*
X102816813Y-122074840D01*
X102476714Y-122215366D01*
X102216280Y-122475345D01*
X102102234Y-122750000D01*
X92897553Y-122750000D01*
X92784634Y-122476714D01*
X92524655Y-122216280D01*
X92184801Y-122075161D01*
X91816813Y-122074840D01*
X91476714Y-122215366D01*
X91216280Y-122475345D01*
X91075161Y-122815199D01*
X91074840Y-123183187D01*
X77730005Y-123183187D01*
X75983674Y-122016326D01*
X71660571Y-115546345D01*
X79091195Y-115546345D01*
X79325958Y-116041785D01*
X79732447Y-116409672D01*
X80111551Y-116566701D01*
X80328948Y-116446536D01*
X80328948Y-115394868D01*
X80468089Y-115394868D01*
X80578948Y-115505727D01*
X80578948Y-116446536D01*
X80796345Y-116566701D01*
X80972358Y-116483298D01*
X80872130Y-116724674D01*
X80871651Y-117272920D01*
X81081014Y-117779617D01*
X81468344Y-118167624D01*
X81974674Y-118377870D01*
X82522920Y-118378349D01*
X82769629Y-118276411D01*
X82668181Y-118520725D01*
X82667702Y-119068971D01*
X82877065Y-119575668D01*
X83264395Y-119963675D01*
X83770725Y-120173921D01*
X84318971Y-120174400D01*
X84704459Y-120015119D01*
X85824882Y-121135542D01*
X85824840Y-121183187D01*
X85965366Y-121523286D01*
X86225345Y-121783720D01*
X86565199Y-121924839D01*
X86933187Y-121925160D01*
X87273286Y-121784634D01*
X87533720Y-121524655D01*
X87674839Y-121184801D01*
X87675160Y-120816813D01*
X87534634Y-120476714D01*
X87491184Y-120433187D01*
X106074840Y-120433187D01*
X106215366Y-120773286D01*
X106475345Y-121033720D01*
X106695294Y-121125050D01*
X106476714Y-121215366D01*
X106216280Y-121475345D01*
X106075161Y-121815199D01*
X106074840Y-122183187D01*
X106215366Y-122523286D01*
X106475345Y-122783720D01*
X106815199Y-122924839D01*
X107183187Y-122925160D01*
X107304584Y-122875000D01*
X107482029Y-122875000D01*
X107494199Y-122893912D01*
X107703056Y-123036618D01*
X107950980Y-123086824D01*
X108550420Y-123086824D01*
X108782031Y-123043243D01*
X108994752Y-122906361D01*
X109006006Y-122889890D01*
X109095546Y-122979430D01*
X109325260Y-123074580D01*
X109468050Y-123074580D01*
X109624300Y-122918330D01*
X109624300Y-122125000D01*
X109874300Y-122125000D01*
X109874300Y-122918330D01*
X110030550Y-123074580D01*
X110173340Y-123074580D01*
X110403054Y-122979430D01*
X110578869Y-122803614D01*
X110674020Y-122573900D01*
X110674020Y-122281250D01*
X110517770Y-122125000D01*
X109874300Y-122125000D01*
X109624300Y-122125000D01*
X109604300Y-122125000D01*
X109604300Y-121875000D01*
X109624300Y-121875000D01*
X109624300Y-120375000D01*
X109874300Y-120375000D01*
X109874300Y-121875000D01*
X110517770Y-121875000D01*
X110674020Y-121718750D01*
X110674020Y-121487006D01*
X111869309Y-121487006D01*
X111869309Y-122179706D01*
X111964460Y-122409420D01*
X112140275Y-122585236D01*
X112369989Y-122680386D01*
X113462739Y-122680386D01*
X113618989Y-122524136D01*
X113618989Y-121330756D01*
X113868989Y-121330756D01*
X113868989Y-122524136D01*
X114025239Y-122680386D01*
X115117989Y-122680386D01*
X115347703Y-122585236D01*
X115523518Y-122409420D01*
X115618669Y-122179706D01*
X115618669Y-121487006D01*
X115462419Y-121330756D01*
X113868989Y-121330756D01*
X113618989Y-121330756D01*
X112025559Y-121330756D01*
X111869309Y-121487006D01*
X110674020Y-121487006D01*
X110674020Y-121426100D01*
X110578869Y-121196386D01*
X110507483Y-121125000D01*
X110578869Y-121053614D01*
X110674020Y-120823900D01*
X110674020Y-120531250D01*
X110517770Y-120375000D01*
X109874300Y-120375000D01*
X109624300Y-120375000D01*
X109604300Y-120375000D01*
X109604300Y-120175420D01*
X111892665Y-120175420D01*
X111869309Y-120231806D01*
X111869309Y-120924506D01*
X112025559Y-121080756D01*
X113618989Y-121080756D01*
X113618989Y-121060756D01*
X113868989Y-121060756D01*
X113868989Y-121080756D01*
X115462419Y-121080756D01*
X115618669Y-120924506D01*
X115618669Y-120231806D01*
X115595313Y-120175420D01*
X115699580Y-120175420D01*
X115899679Y-120135618D01*
X115855025Y-120356126D01*
X115855025Y-122055386D01*
X115898606Y-122286997D01*
X116035488Y-122499718D01*
X116244345Y-122642424D01*
X116492269Y-122692630D01*
X118991629Y-122692630D01*
X119223240Y-122649049D01*
X119435961Y-122512167D01*
X119578667Y-122303310D01*
X119628873Y-122055386D01*
X119628873Y-120356126D01*
X119611672Y-120264711D01*
X119625000Y-120197705D01*
X119625000Y-118873132D01*
X119781611Y-118843663D01*
X119994332Y-118706781D01*
X120137038Y-118497924D01*
X120187244Y-118250000D01*
X120187244Y-117250000D01*
X120143663Y-117018389D01*
X120006781Y-116805668D01*
X119797924Y-116662962D01*
X119550000Y-116612756D01*
X119547701Y-116612756D01*
X119512201Y-116434286D01*
X119333363Y-116166637D01*
X119053970Y-115887244D01*
X119550000Y-115887244D01*
X119781611Y-115843663D01*
X119994332Y-115706781D01*
X120137038Y-115497924D01*
X120187244Y-115250000D01*
X120187244Y-114250000D01*
X120143663Y-114018389D01*
X120050000Y-113872832D01*
X120050000Y-112816232D01*
X120143912Y-112755801D01*
X120286618Y-112546944D01*
X120336824Y-112299020D01*
X120336824Y-112229062D01*
X121333363Y-111232523D01*
X121512201Y-110964874D01*
X121575000Y-110649160D01*
X121575000Y-107925241D01*
X121674839Y-107684801D01*
X121675160Y-107316813D01*
X121534634Y-106976714D01*
X121274655Y-106716280D01*
X120934801Y-106575161D01*
X120566813Y-106574840D01*
X120226714Y-106715366D01*
X119966280Y-106975345D01*
X119825161Y-107315199D01*
X119824840Y-107683187D01*
X119925000Y-107925593D01*
X119925000Y-109617857D01*
X119823900Y-109575980D01*
X119531250Y-109575980D01*
X119375000Y-109732230D01*
X119375000Y-110375700D01*
X119395000Y-110375700D01*
X119395000Y-110625700D01*
X119375000Y-110625700D01*
X119375000Y-110645700D01*
X119125000Y-110645700D01*
X119125000Y-110625700D01*
X117625000Y-110625700D01*
X117625000Y-110645700D01*
X117375000Y-110645700D01*
X117375000Y-110625700D01*
X116581670Y-110625700D01*
X116425420Y-110781950D01*
X116425420Y-110924740D01*
X116520570Y-111154454D01*
X116607808Y-111241692D01*
X116606088Y-111242799D01*
X116463382Y-111451656D01*
X116459277Y-111471927D01*
X116225408Y-111425408D01*
X112832091Y-111425408D01*
X112525944Y-111486304D01*
X112266405Y-111659723D01*
X109684315Y-114241814D01*
X109530953Y-114471335D01*
X109479430Y-114346946D01*
X109303614Y-114171131D01*
X109073900Y-114075980D01*
X108781250Y-114075980D01*
X108625000Y-114232230D01*
X108625000Y-114875700D01*
X108645000Y-114875700D01*
X108645000Y-115125700D01*
X108625000Y-115125700D01*
X108625000Y-115145700D01*
X108375000Y-115145700D01*
X108375000Y-115125700D01*
X107581670Y-115125700D01*
X107425420Y-115281950D01*
X107425420Y-115424740D01*
X107520570Y-115654454D01*
X107607808Y-115741692D01*
X107606088Y-115742799D01*
X107463382Y-115951656D01*
X107413176Y-116199580D01*
X107413176Y-116799020D01*
X107456757Y-117030631D01*
X107593639Y-117243352D01*
X107738444Y-117342293D01*
X107756846Y-117434804D01*
X107760896Y-117455167D01*
X107934315Y-117714705D01*
X108535295Y-118315685D01*
X108780019Y-118479206D01*
X108730257Y-118489104D01*
X108715572Y-118492025D01*
X108431702Y-118681701D01*
X107950053Y-119163350D01*
X107719369Y-119206757D01*
X107506648Y-119343639D01*
X107485220Y-119375000D01*
X107304827Y-119375000D01*
X107184801Y-119325161D01*
X106816813Y-119324840D01*
X106476714Y-119465366D01*
X106216280Y-119725345D01*
X106075161Y-120065199D01*
X106074840Y-120433187D01*
X87491184Y-120433187D01*
X87274655Y-120216280D01*
X86934801Y-120075161D01*
X86885778Y-120075118D01*
X85424321Y-118613661D01*
X85424400Y-118523131D01*
X85215037Y-118016434D01*
X84827707Y-117628427D01*
X84321377Y-117418181D01*
X83773131Y-117417702D01*
X83526422Y-117519640D01*
X83627870Y-117275326D01*
X83628349Y-116727080D01*
X83418986Y-116220383D01*
X83031656Y-115832376D01*
X82525326Y-115622130D01*
X81977080Y-115621651D01*
X81745951Y-115717152D01*
X81816701Y-115546345D01*
X81696536Y-115328948D01*
X80755727Y-115328948D01*
X80644868Y-115218089D01*
X80468089Y-115394868D01*
X80328948Y-115394868D01*
X80328948Y-115328948D01*
X79211360Y-115328948D01*
X79091195Y-115546345D01*
X71660571Y-115546345D01*
X70414065Y-113680817D01*
X77279548Y-113680817D01*
X77488911Y-114187514D01*
X77876241Y-114575521D01*
X78382571Y-114785767D01*
X78930817Y-114786246D01*
X79161944Y-114690746D01*
X79091195Y-114861551D01*
X79211360Y-115078948D01*
X80152169Y-115078948D01*
X80263028Y-115189807D01*
X80439807Y-115013028D01*
X80328948Y-114902169D01*
X80328948Y-113961360D01*
X80578948Y-113961360D01*
X80578948Y-115078948D01*
X81696536Y-115078948D01*
X81816701Y-114861551D01*
X81581938Y-114366111D01*
X81175449Y-113998224D01*
X80796345Y-113841195D01*
X80578948Y-113961360D01*
X80328948Y-113961360D01*
X80111551Y-113841195D01*
X79935540Y-113924597D01*
X80035767Y-113683223D01*
X80036246Y-113134977D01*
X79826883Y-112628280D01*
X79439553Y-112240273D01*
X78933223Y-112030027D01*
X78384977Y-112029548D01*
X77878280Y-112238911D01*
X77490273Y-112626241D01*
X77280027Y-113132571D01*
X77279548Y-113680817D01*
X70414065Y-113680817D01*
X68927721Y-111456346D01*
X67182634Y-102683193D01*
X73574840Y-102683193D01*
X73715366Y-103023292D01*
X73975345Y-103283726D01*
X74000000Y-103293964D01*
X74000000Y-105750000D01*
X74057090Y-106037013D01*
X74219670Y-106280330D01*
X74750000Y-106810660D01*
X74750000Y-108250000D01*
X74807090Y-108537013D01*
X74824944Y-108563734D01*
X74824840Y-108683187D01*
X74965366Y-109023286D01*
X75225345Y-109283720D01*
X75565199Y-109424839D01*
X75933187Y-109425160D01*
X76273286Y-109284634D01*
X76533720Y-109024655D01*
X76674839Y-108684801D01*
X76675160Y-108316813D01*
X76534634Y-107976714D01*
X76274655Y-107716280D01*
X76250000Y-107706042D01*
X76250000Y-106500000D01*
X76192910Y-106212987D01*
X76030330Y-105969670D01*
X75500000Y-105439340D01*
X75500000Y-102750006D01*
X75442910Y-102462993D01*
X75425056Y-102436272D01*
X75425160Y-102316819D01*
X75284634Y-101976720D01*
X75024655Y-101716286D01*
X74684801Y-101575167D01*
X74316813Y-101574846D01*
X73976714Y-101715372D01*
X73716280Y-101975351D01*
X73575161Y-102315205D01*
X73574840Y-102683193D01*
X67182634Y-102683193D01*
X66642355Y-99967031D01*
X73209746Y-99967031D01*
X73278499Y-100205723D01*
X73794831Y-100390050D01*
X74342397Y-100362754D01*
X74721501Y-100205723D01*
X74790254Y-99967031D01*
X74000000Y-99176777D01*
X73209746Y-99967031D01*
X66642355Y-99967031D01*
X66450000Y-99000000D01*
X66490810Y-98794831D01*
X72609950Y-98794831D01*
X72637246Y-99342397D01*
X72794277Y-99721501D01*
X73032969Y-99790254D01*
X73823223Y-99000000D01*
X74176777Y-99000000D01*
X74967031Y-99790254D01*
X75205723Y-99721501D01*
X75390050Y-99205169D01*
X75362754Y-98657603D01*
X75205723Y-98278499D01*
X74967031Y-98209746D01*
X74176777Y-99000000D01*
X73823223Y-99000000D01*
X73032969Y-98209746D01*
X72794277Y-98278499D01*
X72609950Y-98794831D01*
X66490810Y-98794831D01*
X66642353Y-98032969D01*
X73209746Y-98032969D01*
X74000000Y-98823223D01*
X74790254Y-98032969D01*
X74721501Y-97794277D01*
X74205169Y-97609950D01*
X73657603Y-97637246D01*
X73278499Y-97794277D01*
X73209746Y-98032969D01*
X66642353Y-98032969D01*
X66761657Y-97433187D01*
X74824840Y-97433187D01*
X74965366Y-97773286D01*
X75225345Y-98033720D01*
X75565199Y-98174839D01*
X75614222Y-98174882D01*
X76008948Y-98569608D01*
X76008948Y-98694666D01*
X75975228Y-98728327D01*
X75834109Y-99068181D01*
X75833788Y-99436169D01*
X75974314Y-99776268D01*
X76234293Y-100036702D01*
X76574147Y-100177821D01*
X76942135Y-100178142D01*
X77282234Y-100037616D01*
X77542668Y-99777637D01*
X77683787Y-99437783D01*
X77684108Y-99069795D01*
X77543582Y-98729696D01*
X77508948Y-98695001D01*
X77508948Y-98258948D01*
X77451858Y-97971935D01*
X77289278Y-97728618D01*
X76675118Y-97114458D01*
X76675160Y-97066813D01*
X76534634Y-96726714D01*
X76274655Y-96466280D01*
X75934801Y-96325161D01*
X75566813Y-96324840D01*
X75226714Y-96465366D01*
X74966280Y-96725345D01*
X74825161Y-97065199D01*
X74824840Y-97433187D01*
X66761657Y-97433187D01*
X67345737Y-94496823D01*
X71233803Y-94496823D01*
X71310965Y-94737723D01*
X71475771Y-94929623D01*
X71702252Y-95042285D01*
X72327882Y-95209922D01*
X72562881Y-95227772D01*
X72803781Y-95150610D01*
X72917456Y-95052984D01*
X73309423Y-95052984D01*
X73386585Y-95293884D01*
X73551391Y-95485784D01*
X73777872Y-95598446D01*
X74403502Y-95766083D01*
X74638501Y-95783933D01*
X74879401Y-95706771D01*
X75071301Y-95541965D01*
X75183963Y-95315484D01*
X75455469Y-94302209D01*
X75473319Y-94067210D01*
X75396157Y-93826310D01*
X75231351Y-93634410D01*
X75004870Y-93521748D01*
X74379240Y-93354111D01*
X74144241Y-93336261D01*
X73903341Y-93413423D01*
X73711441Y-93578229D01*
X73598779Y-93804710D01*
X73327273Y-94817985D01*
X73309423Y-95052984D01*
X72917456Y-95052984D01*
X72995681Y-94985804D01*
X73108343Y-94759323D01*
X73379849Y-93746048D01*
X73397699Y-93511049D01*
X73320537Y-93270149D01*
X73155731Y-93078249D01*
X72929250Y-92965587D01*
X72303620Y-92797950D01*
X72068621Y-92780100D01*
X71827721Y-92857262D01*
X71635821Y-93022068D01*
X71523159Y-93248549D01*
X71251653Y-94261824D01*
X71233803Y-94496823D01*
X67345737Y-94496823D01*
X68164416Y-90381044D01*
X72304181Y-90381044D01*
X72336635Y-90627558D01*
X72460955Y-90842887D01*
X72658215Y-90994249D01*
X72819447Y-91037452D01*
X73010814Y-90926966D01*
X73235536Y-90088291D01*
X72590684Y-89915504D01*
X72399317Y-90025989D01*
X72368533Y-90140876D01*
X72304181Y-90381044D01*
X68164416Y-90381044D01*
X68343116Y-89482656D01*
X72544903Y-89482656D01*
X72655389Y-89674022D01*
X73300241Y-89846810D01*
X73524963Y-89008135D01*
X73414477Y-88816769D01*
X73253245Y-88773567D01*
X73006732Y-88806020D01*
X72791403Y-88930341D01*
X72640040Y-89127601D01*
X72575687Y-89367769D01*
X72544903Y-89482656D01*
X68343116Y-89482656D01*
X68744689Y-87463812D01*
X73350555Y-87463812D01*
X73362738Y-87716474D01*
X73472261Y-87944491D01*
X73661866Y-88111932D01*
X74222790Y-88435782D01*
X74445161Y-88513846D01*
X74697824Y-88501663D01*
X74925840Y-88392140D01*
X75093281Y-88202535D01*
X75617791Y-87294057D01*
X75695855Y-87071686D01*
X75683672Y-86819024D01*
X75574149Y-86591007D01*
X75384544Y-86423566D01*
X74823620Y-86099716D01*
X74601249Y-86021652D01*
X74348586Y-86033835D01*
X74120570Y-86143358D01*
X73953129Y-86332963D01*
X73428619Y-87241441D01*
X73350555Y-87463812D01*
X68744689Y-87463812D01*
X68927721Y-86543654D01*
X75983674Y-75983674D01*
X85637850Y-69532960D01*
X85679330Y-69574440D01*
G36*
X112175000Y-114975000D02*
X112180167Y-115000976D01*
X112075668Y-115068219D01*
X111932962Y-115277076D01*
X111882756Y-115525000D01*
X111882756Y-116175000D01*
X111909312Y-116316129D01*
X111895000Y-116350680D01*
X111895000Y-116518750D01*
X112051250Y-116675000D01*
X112144692Y-116675000D01*
X112272076Y-116762038D01*
X112457318Y-116799551D01*
X112288389Y-116831337D01*
X112142832Y-116925000D01*
X112051250Y-116925000D01*
X111895000Y-117081250D01*
X111895000Y-117249320D01*
X111910671Y-117287153D01*
X111892881Y-117375001D01*
X111004759Y-117375001D01*
X111043014Y-117182683D01*
X111136758Y-117045484D01*
X111186964Y-116797560D01*
X111186964Y-116299720D01*
X111143383Y-116068109D01*
X111100435Y-116001365D01*
X111136758Y-115948204D01*
X111186964Y-115700280D01*
X111186964Y-115202440D01*
X111155206Y-115033663D01*
X112175000Y-114013870D01*
X112175000Y-114975000D01*
X112175000Y-114975000D01*
G37*
X112175000Y-114975000D02*
X112180167Y-115000976D01*
X112075668Y-115068219D01*
X111932962Y-115277076D01*
X111882756Y-115525000D01*
X111882756Y-116175000D01*
X111909312Y-116316129D01*
X111895000Y-116350680D01*
X111895000Y-116518750D01*
X112051250Y-116675000D01*
X112144692Y-116675000D01*
X112272076Y-116762038D01*
X112457318Y-116799551D01*
X112288389Y-116831337D01*
X112142832Y-116925000D01*
X112051250Y-116925000D01*
X111895000Y-117081250D01*
X111895000Y-117249320D01*
X111910671Y-117287153D01*
X111892881Y-117375001D01*
X111004759Y-117375001D01*
X111043014Y-117182683D01*
X111136758Y-117045484D01*
X111186964Y-116797560D01*
X111186964Y-116299720D01*
X111143383Y-116068109D01*
X111100435Y-116001365D01*
X111136758Y-115948204D01*
X111186964Y-115700280D01*
X111186964Y-115202440D01*
X111155206Y-115033663D01*
X112175000Y-114013870D01*
X112175000Y-114975000D01*
G36*
X121597500Y-91018744D02*
X121902500Y-91018744D01*
X121999688Y-91000457D01*
X122000276Y-91003579D01*
X121981256Y-91097500D01*
X121981256Y-91402500D01*
X121999543Y-91499688D01*
X121996421Y-91500276D01*
X121902500Y-91481256D01*
X121597500Y-91481256D01*
X121506500Y-91498379D01*
X121506500Y-91473180D01*
X121505110Y-91469825D01*
X121518744Y-91402500D01*
X121518744Y-91097500D01*
X121505774Y-91028572D01*
X121506500Y-91026820D01*
X121506500Y-91000316D01*
X121597500Y-91018744D01*
X121597500Y-91018744D01*
G37*
X121597500Y-91018744D02*
X121902500Y-91018744D01*
X121999688Y-91000457D01*
X122000276Y-91003579D01*
X121981256Y-91097500D01*
X121981256Y-91402500D01*
X121999543Y-91499688D01*
X121996421Y-91500276D01*
X121902500Y-91481256D01*
X121597500Y-91481256D01*
X121506500Y-91498379D01*
X121506500Y-91473180D01*
X121505110Y-91469825D01*
X121518744Y-91402500D01*
X121518744Y-91097500D01*
X121505774Y-91028572D01*
X121506500Y-91026820D01*
X121506500Y-91000316D01*
X121597500Y-91018744D01*
G36*
X123052496Y-88886058D02*
X123125002Y-88900741D01*
X123125002Y-89960256D01*
X123039744Y-89960256D01*
X123039744Y-89568500D01*
X123000000Y-89357281D01*
X123000000Y-88850189D01*
X123052496Y-88886058D01*
X123052496Y-88886058D01*
G37*
X123052496Y-88886058D02*
X123125002Y-88900741D01*
X123125002Y-89960256D01*
X123039744Y-89960256D01*
X123039744Y-89568500D01*
X123000000Y-89357281D01*
X123000000Y-88850189D01*
X123052496Y-88886058D01*
G36*
X98023365Y-87285045D02*
X97941554Y-87300439D01*
X97748260Y-87261296D01*
X97148820Y-87261296D01*
X96940794Y-87300439D01*
X96747500Y-87261296D01*
X96148060Y-87261296D01*
X95941351Y-87300191D01*
X95749280Y-87261296D01*
X95149840Y-87261296D01*
X94941814Y-87300439D01*
X94748520Y-87261296D01*
X94149080Y-87261296D01*
X93941054Y-87300439D01*
X93747760Y-87261296D01*
X93148320Y-87261296D01*
X92939267Y-87300632D01*
X92873860Y-87273540D01*
X92731070Y-87273540D01*
X92574820Y-87429790D01*
X92574820Y-87630802D01*
X92561282Y-87650616D01*
X92511076Y-87898540D01*
X92511076Y-88642980D01*
X92386024Y-88642980D01*
X92386024Y-87898540D01*
X92342443Y-87666929D01*
X92324820Y-87639542D01*
X92324820Y-87429790D01*
X92168570Y-87273540D01*
X92083179Y-87273540D01*
X91979390Y-87118210D01*
X90705848Y-85844668D01*
X90462531Y-85682088D01*
X90175518Y-85624998D01*
X87080799Y-85624998D01*
X86878951Y-85541184D01*
X86807380Y-85541122D01*
X86836124Y-85399180D01*
X86836124Y-85175075D01*
X86933187Y-85175160D01*
X87273286Y-85034634D01*
X87307981Y-85000000D01*
X95738320Y-85000000D01*
X98023365Y-87285045D01*
X98023365Y-87285045D01*
G37*
X98023365Y-87285045D02*
X97941554Y-87300439D01*
X97748260Y-87261296D01*
X97148820Y-87261296D01*
X96940794Y-87300439D01*
X96747500Y-87261296D01*
X96148060Y-87261296D01*
X95941351Y-87300191D01*
X95749280Y-87261296D01*
X95149840Y-87261296D01*
X94941814Y-87300439D01*
X94748520Y-87261296D01*
X94149080Y-87261296D01*
X93941054Y-87300439D01*
X93747760Y-87261296D01*
X93148320Y-87261296D01*
X92939267Y-87300632D01*
X92873860Y-87273540D01*
X92731070Y-87273540D01*
X92574820Y-87429790D01*
X92574820Y-87630802D01*
X92561282Y-87650616D01*
X92511076Y-87898540D01*
X92511076Y-88642980D01*
X92386024Y-88642980D01*
X92386024Y-87898540D01*
X92342443Y-87666929D01*
X92324820Y-87639542D01*
X92324820Y-87429790D01*
X92168570Y-87273540D01*
X92083179Y-87273540D01*
X91979390Y-87118210D01*
X90705848Y-85844668D01*
X90462531Y-85682088D01*
X90175518Y-85624998D01*
X87080799Y-85624998D01*
X86878951Y-85541184D01*
X86807380Y-85541122D01*
X86836124Y-85399180D01*
X86836124Y-85175075D01*
X86933187Y-85175160D01*
X87273286Y-85034634D01*
X87307981Y-85000000D01*
X95738320Y-85000000D01*
X98023365Y-87285045D01*
G36*
X90512096Y-88642980D02*
X90384504Y-88642980D01*
X90384504Y-88352980D01*
X90512096Y-88352980D01*
X90512096Y-88642980D01*
X90512096Y-88642980D01*
G37*
X90512096Y-88642980D02*
X90384504Y-88642980D01*
X90384504Y-88352980D01*
X90512096Y-88352980D01*
X90512096Y-88642980D01*
G36*
X80107808Y-81241692D02*
X80106088Y-81242799D01*
X79963382Y-81451656D01*
X79913176Y-81699580D01*
X79913176Y-82299020D01*
X79956757Y-82530631D01*
X80093639Y-82743352D01*
X80302496Y-82886058D01*
X80550420Y-82936264D01*
X81449580Y-82936264D01*
X81681191Y-82892683D01*
X81893912Y-82755801D01*
X82002325Y-82597134D01*
X82203246Y-82734418D01*
X82275241Y-82748997D01*
X82097136Y-82822771D01*
X81921320Y-82998586D01*
X81826170Y-83228300D01*
X81826170Y-83520950D01*
X81982420Y-83677200D01*
X83125000Y-83677200D01*
X83125000Y-83657200D01*
X83375000Y-83657200D01*
X83375000Y-83677200D01*
X83395000Y-83677200D01*
X83395000Y-83927200D01*
X83375000Y-83927200D01*
X83375000Y-84720530D01*
X83504894Y-84850424D01*
X83226714Y-84965366D01*
X82966280Y-85225345D01*
X82825161Y-85565199D01*
X82825121Y-85610976D01*
X82451170Y-85610976D01*
X82219559Y-85654557D01*
X82033293Y-85774415D01*
X82074580Y-85674740D01*
X82074580Y-85531950D01*
X81918330Y-85375700D01*
X81125000Y-85375700D01*
X81125000Y-85395700D01*
X80875000Y-85395700D01*
X80875000Y-85375700D01*
X80081670Y-85375700D01*
X79925420Y-85531950D01*
X79925420Y-85674740D01*
X80020570Y-85904454D01*
X80107808Y-85991692D01*
X80106088Y-85992799D01*
X79963382Y-86201656D01*
X79913176Y-86449580D01*
X79913176Y-87049020D01*
X79950993Y-87250000D01*
X78456740Y-87250000D01*
X78169727Y-87307090D01*
X77988705Y-87428045D01*
X77250000Y-86689340D01*
X77250000Y-85560660D01*
X77385542Y-85425118D01*
X77403998Y-85425135D01*
X77405851Y-85428993D01*
X77595456Y-85596434D01*
X78156380Y-85920284D01*
X78378751Y-85998348D01*
X78631414Y-85986165D01*
X78859430Y-85876642D01*
X79026871Y-85687037D01*
X79292156Y-85227550D01*
X79693046Y-84826660D01*
X79925420Y-84826660D01*
X79925420Y-84969450D01*
X80081670Y-85125700D01*
X80875000Y-85125700D01*
X80875000Y-84482230D01*
X81125000Y-84482230D01*
X81125000Y-85125700D01*
X81918330Y-85125700D01*
X82074580Y-84969450D01*
X82074580Y-84826660D01*
X82026790Y-84711283D01*
X82097136Y-84781629D01*
X82326850Y-84876780D01*
X82968750Y-84876780D01*
X83125000Y-84720530D01*
X83125000Y-83927200D01*
X81982420Y-83927200D01*
X81826170Y-84083450D01*
X81826170Y-84376100D01*
X81873960Y-84491477D01*
X81803614Y-84421131D01*
X81573900Y-84325980D01*
X81281250Y-84325980D01*
X81125000Y-84482230D01*
X80875000Y-84482230D01*
X80718750Y-84325980D01*
X80426100Y-84325980D01*
X80196386Y-84421131D01*
X80020570Y-84596946D01*
X79925420Y-84826660D01*
X79693046Y-84826660D01*
X80030330Y-84489376D01*
X80192910Y-84246059D01*
X80225362Y-84082911D01*
X80283720Y-84024655D01*
X80424839Y-83684801D01*
X80425160Y-83316813D01*
X80284634Y-82976714D01*
X80024655Y-82716280D01*
X79684801Y-82575161D01*
X79316813Y-82574840D01*
X78976714Y-82715366D01*
X78716280Y-82975345D01*
X78575161Y-83315199D01*
X78574982Y-83520246D01*
X78534839Y-83506154D01*
X78289989Y-83517960D01*
X78533720Y-83274655D01*
X78674839Y-82934801D01*
X78675160Y-82566813D01*
X78670799Y-82556259D01*
X80046587Y-81180471D01*
X80107808Y-81241692D01*
X80107808Y-81241692D01*
G37*
X80107808Y-81241692D02*
X80106088Y-81242799D01*
X79963382Y-81451656D01*
X79913176Y-81699580D01*
X79913176Y-82299020D01*
X79956757Y-82530631D01*
X80093639Y-82743352D01*
X80302496Y-82886058D01*
X80550420Y-82936264D01*
X81449580Y-82936264D01*
X81681191Y-82892683D01*
X81893912Y-82755801D01*
X82002325Y-82597134D01*
X82203246Y-82734418D01*
X82275241Y-82748997D01*
X82097136Y-82822771D01*
X81921320Y-82998586D01*
X81826170Y-83228300D01*
X81826170Y-83520950D01*
X81982420Y-83677200D01*
X83125000Y-83677200D01*
X83125000Y-83657200D01*
X83375000Y-83657200D01*
X83375000Y-83677200D01*
X83395000Y-83677200D01*
X83395000Y-83927200D01*
X83375000Y-83927200D01*
X83375000Y-84720530D01*
X83504894Y-84850424D01*
X83226714Y-84965366D01*
X82966280Y-85225345D01*
X82825161Y-85565199D01*
X82825121Y-85610976D01*
X82451170Y-85610976D01*
X82219559Y-85654557D01*
X82033293Y-85774415D01*
X82074580Y-85674740D01*
X82074580Y-85531950D01*
X81918330Y-85375700D01*
X81125000Y-85375700D01*
X81125000Y-85395700D01*
X80875000Y-85395700D01*
X80875000Y-85375700D01*
X80081670Y-85375700D01*
X79925420Y-85531950D01*
X79925420Y-85674740D01*
X80020570Y-85904454D01*
X80107808Y-85991692D01*
X80106088Y-85992799D01*
X79963382Y-86201656D01*
X79913176Y-86449580D01*
X79913176Y-87049020D01*
X79950993Y-87250000D01*
X78456740Y-87250000D01*
X78169727Y-87307090D01*
X77988705Y-87428045D01*
X77250000Y-86689340D01*
X77250000Y-85560660D01*
X77385542Y-85425118D01*
X77403998Y-85425135D01*
X77405851Y-85428993D01*
X77595456Y-85596434D01*
X78156380Y-85920284D01*
X78378751Y-85998348D01*
X78631414Y-85986165D01*
X78859430Y-85876642D01*
X79026871Y-85687037D01*
X79292156Y-85227550D01*
X79693046Y-84826660D01*
X79925420Y-84826660D01*
X79925420Y-84969450D01*
X80081670Y-85125700D01*
X80875000Y-85125700D01*
X80875000Y-84482230D01*
X81125000Y-84482230D01*
X81125000Y-85125700D01*
X81918330Y-85125700D01*
X82074580Y-84969450D01*
X82074580Y-84826660D01*
X82026790Y-84711283D01*
X82097136Y-84781629D01*
X82326850Y-84876780D01*
X82968750Y-84876780D01*
X83125000Y-84720530D01*
X83125000Y-83927200D01*
X81982420Y-83927200D01*
X81826170Y-84083450D01*
X81826170Y-84376100D01*
X81873960Y-84491477D01*
X81803614Y-84421131D01*
X81573900Y-84325980D01*
X81281250Y-84325980D01*
X81125000Y-84482230D01*
X80875000Y-84482230D01*
X80718750Y-84325980D01*
X80426100Y-84325980D01*
X80196386Y-84421131D01*
X80020570Y-84596946D01*
X79925420Y-84826660D01*
X79693046Y-84826660D01*
X80030330Y-84489376D01*
X80192910Y-84246059D01*
X80225362Y-84082911D01*
X80283720Y-84024655D01*
X80424839Y-83684801D01*
X80425160Y-83316813D01*
X80284634Y-82976714D01*
X80024655Y-82716280D01*
X79684801Y-82575161D01*
X79316813Y-82574840D01*
X78976714Y-82715366D01*
X78716280Y-82975345D01*
X78575161Y-83315199D01*
X78574982Y-83520246D01*
X78534839Y-83506154D01*
X78289989Y-83517960D01*
X78533720Y-83274655D01*
X78674839Y-82934801D01*
X78675160Y-82566813D01*
X78670799Y-82556259D01*
X80046587Y-81180471D01*
X80107808Y-81241692D01*
G36*
X88510576Y-70298880D02*
X88554157Y-70530491D01*
X88574320Y-70561825D01*
X88574320Y-70767630D01*
X88730570Y-70923880D01*
X88873360Y-70923880D01*
X88943628Y-70894774D01*
X89147820Y-70936124D01*
X89747260Y-70936124D01*
X89955286Y-70896981D01*
X90148580Y-70936124D01*
X90748020Y-70936124D01*
X90956046Y-70896981D01*
X91149340Y-70936124D01*
X91748780Y-70936124D01*
X91956806Y-70896981D01*
X92150100Y-70936124D01*
X92749540Y-70936124D01*
X92956249Y-70897229D01*
X93148320Y-70936124D01*
X93747760Y-70936124D01*
X93955786Y-70896981D01*
X94149080Y-70936124D01*
X94748520Y-70936124D01*
X94959320Y-70896459D01*
X95025520Y-70923880D01*
X95168310Y-70923880D01*
X95324560Y-70767630D01*
X95324560Y-70562900D01*
X95335558Y-70546804D01*
X95385764Y-70298880D01*
X95385764Y-69574999D01*
X95510816Y-69574999D01*
X95510816Y-70298880D01*
X95554397Y-70530491D01*
X95574560Y-70561825D01*
X95574560Y-70767630D01*
X95622780Y-70815850D01*
X95622780Y-71450519D01*
X95575161Y-71565199D01*
X95574840Y-71933187D01*
X95715366Y-72273286D01*
X95975345Y-72533720D01*
X96315199Y-72674839D01*
X96683187Y-72675160D01*
X97023286Y-72534634D01*
X97283720Y-72274655D01*
X97424839Y-71934801D01*
X97425160Y-71566813D01*
X97284634Y-71226714D01*
X97272780Y-71214839D01*
X97272780Y-70818390D01*
X97323540Y-70767630D01*
X97323540Y-70562900D01*
X97334538Y-70546804D01*
X97384744Y-70298880D01*
X97384744Y-69554440D01*
X97512336Y-69554440D01*
X97512336Y-70298880D01*
X97555917Y-70530491D01*
X97573540Y-70557878D01*
X97573540Y-70767630D01*
X97729790Y-70923880D01*
X97872580Y-70923880D01*
X97943682Y-70894428D01*
X98149580Y-70936124D01*
X98749020Y-70936124D01*
X98955729Y-70897229D01*
X99147800Y-70936124D01*
X99747240Y-70936124D01*
X99958040Y-70896459D01*
X100024240Y-70923880D01*
X100062496Y-70923880D01*
X100062496Y-71398700D01*
X100101639Y-71606726D01*
X100062496Y-71800020D01*
X100062496Y-72399460D01*
X100101391Y-72606169D01*
X100062496Y-72798240D01*
X100062496Y-73397680D01*
X100101639Y-73605706D01*
X100062496Y-73799000D01*
X100062496Y-74398440D01*
X100101639Y-74606466D01*
X100062496Y-74799760D01*
X100062496Y-75399200D01*
X100101832Y-75608253D01*
X100074740Y-75673660D01*
X100074740Y-75816450D01*
X100230990Y-75972700D01*
X100432002Y-75972700D01*
X100451816Y-75986238D01*
X100699740Y-76036444D01*
X101444180Y-76036444D01*
X101444180Y-76161496D01*
X100699740Y-76161496D01*
X100468129Y-76205077D01*
X100440742Y-76222700D01*
X100230990Y-76222700D01*
X100074740Y-76378950D01*
X100074740Y-76521740D01*
X100104192Y-76592842D01*
X100062496Y-76798740D01*
X100062496Y-77398180D01*
X100101639Y-77606206D01*
X100062496Y-77799500D01*
X100062496Y-78398940D01*
X100101639Y-78606966D01*
X100062496Y-78800260D01*
X100062496Y-79399700D01*
X100101391Y-79606409D01*
X100062496Y-79798480D01*
X100062496Y-80397920D01*
X100101639Y-80605946D01*
X100062496Y-80799240D01*
X100062496Y-81398680D01*
X100101639Y-81606706D01*
X100062496Y-81800000D01*
X100062496Y-82399440D01*
X100101391Y-82606149D01*
X100062496Y-82798220D01*
X100062496Y-83397660D01*
X100101639Y-83605686D01*
X100062496Y-83798980D01*
X100062496Y-84398420D01*
X100101639Y-84606446D01*
X100062496Y-84799740D01*
X100062496Y-85399180D01*
X100101391Y-85605889D01*
X100062496Y-85797960D01*
X100062496Y-86397400D01*
X100101639Y-86605426D01*
X100062496Y-86798720D01*
X100062496Y-87244891D01*
X99977850Y-87118210D01*
X96579310Y-83719670D01*
X96572782Y-83715308D01*
X96572782Y-83665752D01*
X96729030Y-83822000D01*
X97171540Y-83822000D01*
X97401254Y-83726850D01*
X97577069Y-83551034D01*
X97672220Y-83321320D01*
X97672220Y-82878810D01*
X97515970Y-82722560D01*
X96572780Y-82722560D01*
X96572780Y-82742560D01*
X96322780Y-82742560D01*
X96322780Y-82722560D01*
X95379590Y-82722560D01*
X95223340Y-82878810D01*
X95223340Y-83321320D01*
X95297352Y-83500000D01*
X94598468Y-83500000D01*
X94672480Y-83321320D01*
X94672480Y-82878810D01*
X94516230Y-82722560D01*
X93573040Y-82722560D01*
X93573040Y-82742560D01*
X93323040Y-82742560D01*
X93323040Y-82722560D01*
X92379850Y-82722560D01*
X92223600Y-82878810D01*
X92223600Y-83321320D01*
X92297612Y-83500000D01*
X91598728Y-83500000D01*
X91672740Y-83321320D01*
X91672740Y-82878810D01*
X91516490Y-82722560D01*
X90573300Y-82722560D01*
X90573300Y-82742560D01*
X90323300Y-82742560D01*
X90323300Y-82722560D01*
X89380110Y-82722560D01*
X89223860Y-82878810D01*
X89223860Y-83321320D01*
X89297872Y-83500000D01*
X87308316Y-83500000D01*
X87274655Y-83466280D01*
X86934801Y-83325161D01*
X86769707Y-83325017D01*
X86667630Y-83222940D01*
X86462900Y-83222940D01*
X86446804Y-83211942D01*
X86198880Y-83161736D01*
X85454440Y-83161736D01*
X85454440Y-83036684D01*
X86198880Y-83036684D01*
X86430491Y-82993103D01*
X86461825Y-82972940D01*
X86667630Y-82972940D01*
X86823880Y-82816690D01*
X86823880Y-82673900D01*
X86794774Y-82603632D01*
X86836124Y-82399440D01*
X86836124Y-81923960D01*
X87115777Y-81923960D01*
X87225345Y-82033720D01*
X87565199Y-82174839D01*
X87933187Y-82175160D01*
X88273286Y-82034634D01*
X88434401Y-81873800D01*
X89223860Y-81873800D01*
X89223860Y-82316310D01*
X89380110Y-82472560D01*
X90323300Y-82472560D01*
X90323300Y-81529370D01*
X90573300Y-81529370D01*
X90573300Y-82472560D01*
X91516490Y-82472560D01*
X91672740Y-82316310D01*
X91672740Y-81873800D01*
X92223600Y-81873800D01*
X92223600Y-82316310D01*
X92379850Y-82472560D01*
X93323040Y-82472560D01*
X93323040Y-81529370D01*
X93573040Y-81529370D01*
X93573040Y-82472560D01*
X94516230Y-82472560D01*
X94672480Y-82316310D01*
X94672480Y-81873800D01*
X95223340Y-81873800D01*
X95223340Y-82316310D01*
X95379590Y-82472560D01*
X96322780Y-82472560D01*
X96322780Y-81529370D01*
X96572780Y-81529370D01*
X96572780Y-82472560D01*
X97515970Y-82472560D01*
X97672220Y-82316310D01*
X97672220Y-81873800D01*
X97577069Y-81644086D01*
X97401254Y-81468270D01*
X97171540Y-81373120D01*
X96729030Y-81373120D01*
X96572780Y-81529370D01*
X96322780Y-81529370D01*
X96166530Y-81373120D01*
X95724020Y-81373120D01*
X95494306Y-81468270D01*
X95318491Y-81644086D01*
X95223340Y-81873800D01*
X94672480Y-81873800D01*
X94577329Y-81644086D01*
X94401514Y-81468270D01*
X94171800Y-81373120D01*
X93729290Y-81373120D01*
X93573040Y-81529370D01*
X93323040Y-81529370D01*
X93166790Y-81373120D01*
X92724280Y-81373120D01*
X92494566Y-81468270D01*
X92318751Y-81644086D01*
X92223600Y-81873800D01*
X91672740Y-81873800D01*
X91577589Y-81644086D01*
X91401774Y-81468270D01*
X91172060Y-81373120D01*
X90729550Y-81373120D01*
X90573300Y-81529370D01*
X90323300Y-81529370D01*
X90167050Y-81373120D01*
X89724540Y-81373120D01*
X89494826Y-81468270D01*
X89319011Y-81644086D01*
X89223860Y-81873800D01*
X88434401Y-81873800D01*
X88533720Y-81774655D01*
X88674839Y-81434801D01*
X88675160Y-81066813D01*
X88534634Y-80726714D01*
X88274655Y-80466280D01*
X87934801Y-80325161D01*
X87856021Y-80325092D01*
X87598960Y-80273960D01*
X86718390Y-80273960D01*
X86667630Y-80223200D01*
X86462900Y-80223200D01*
X86446804Y-80212202D01*
X86198880Y-80161996D01*
X85000000Y-80161996D01*
X84768389Y-80205577D01*
X84741002Y-80223200D01*
X84531250Y-80223200D01*
X84405490Y-80348960D01*
X83848840Y-80348960D01*
X83561827Y-80406050D01*
X83397879Y-80515597D01*
X83318510Y-80568630D01*
X83276164Y-80610976D01*
X82451170Y-80610976D01*
X82219559Y-80654557D01*
X82053830Y-80761200D01*
X81918330Y-80625700D01*
X81125000Y-80625700D01*
X81125000Y-80645700D01*
X80875000Y-80645700D01*
X80875000Y-80625700D01*
X80855000Y-80625700D01*
X80855000Y-80375700D01*
X80875000Y-80375700D01*
X80875000Y-80355700D01*
X81125000Y-80355700D01*
X81125000Y-80375700D01*
X81918330Y-80375700D01*
X82074580Y-80219450D01*
X82074580Y-80076660D01*
X81979430Y-79846946D01*
X81803614Y-79671131D01*
X81628473Y-79598585D01*
X81833430Y-79393628D01*
X81921320Y-79605814D01*
X82097136Y-79781629D01*
X82326850Y-79876780D01*
X82968750Y-79876780D01*
X83125000Y-79720530D01*
X83125000Y-78927200D01*
X83105000Y-78927200D01*
X83105000Y-78677200D01*
X83125000Y-78677200D01*
X83125000Y-78657200D01*
X83375000Y-78657200D01*
X83375000Y-78677200D01*
X83395000Y-78677200D01*
X83395000Y-78927200D01*
X83375000Y-78927200D01*
X83375000Y-79720530D01*
X83531250Y-79876780D01*
X84173150Y-79876780D01*
X84375000Y-79793171D01*
X84375000Y-79816950D01*
X84531250Y-79973200D01*
X84732262Y-79973200D01*
X84752076Y-79986738D01*
X85000000Y-80036944D01*
X86198880Y-80036944D01*
X86430491Y-79993363D01*
X86461825Y-79973200D01*
X86667630Y-79973200D01*
X86823880Y-79816950D01*
X86823880Y-79674160D01*
X86794774Y-79603892D01*
X86827862Y-79440500D01*
X86965366Y-79773286D01*
X87225345Y-80033720D01*
X87565199Y-80174839D01*
X87933187Y-80175160D01*
X88273286Y-80034634D01*
X88533720Y-79774655D01*
X88674839Y-79434801D01*
X88674885Y-79381230D01*
X89223860Y-79381230D01*
X89223860Y-79823740D01*
X89319011Y-80053454D01*
X89494826Y-80229270D01*
X89724540Y-80324420D01*
X90167050Y-80324420D01*
X90323300Y-80168170D01*
X90323300Y-79224980D01*
X90573300Y-79224980D01*
X90573300Y-80168170D01*
X90729550Y-80324420D01*
X91172060Y-80324420D01*
X91401774Y-80229270D01*
X91577589Y-80053454D01*
X91672740Y-79823740D01*
X91672740Y-79381230D01*
X92223600Y-79381230D01*
X92223600Y-79823740D01*
X92318751Y-80053454D01*
X92494566Y-80229270D01*
X92724280Y-80324420D01*
X93166790Y-80324420D01*
X93323040Y-80168170D01*
X93323040Y-79224980D01*
X93573040Y-79224980D01*
X93573040Y-80168170D01*
X93729290Y-80324420D01*
X94171800Y-80324420D01*
X94401514Y-80229270D01*
X94577329Y-80053454D01*
X94672480Y-79823740D01*
X94672480Y-79381230D01*
X95223340Y-79381230D01*
X95223340Y-79823740D01*
X95318491Y-80053454D01*
X95494306Y-80229270D01*
X95724020Y-80324420D01*
X96166530Y-80324420D01*
X96322780Y-80168170D01*
X96322780Y-79224980D01*
X96572780Y-79224980D01*
X96572780Y-80168170D01*
X96729030Y-80324420D01*
X97171540Y-80324420D01*
X97401254Y-80229270D01*
X97577069Y-80053454D01*
X97672220Y-79823740D01*
X97672220Y-79381230D01*
X97515970Y-79224980D01*
X96572780Y-79224980D01*
X96322780Y-79224980D01*
X95379590Y-79224980D01*
X95223340Y-79381230D01*
X94672480Y-79381230D01*
X94516230Y-79224980D01*
X93573040Y-79224980D01*
X93323040Y-79224980D01*
X92379850Y-79224980D01*
X92223600Y-79381230D01*
X91672740Y-79381230D01*
X91516490Y-79224980D01*
X90573300Y-79224980D01*
X90323300Y-79224980D01*
X89380110Y-79224980D01*
X89223860Y-79381230D01*
X88674885Y-79381230D01*
X88675160Y-79066813D01*
X88575000Y-78824407D01*
X88575000Y-78376220D01*
X89223860Y-78376220D01*
X89223860Y-78818730D01*
X89380110Y-78974980D01*
X90323300Y-78974980D01*
X90323300Y-78031790D01*
X90573300Y-78031790D01*
X90573300Y-78974980D01*
X91516490Y-78974980D01*
X91672740Y-78818730D01*
X91672740Y-78376220D01*
X92223600Y-78376220D01*
X92223600Y-78818730D01*
X92379850Y-78974980D01*
X93323040Y-78974980D01*
X93323040Y-78031790D01*
X93573040Y-78031790D01*
X93573040Y-78974980D01*
X94516230Y-78974980D01*
X94672480Y-78818730D01*
X94672480Y-78376220D01*
X95223340Y-78376220D01*
X95223340Y-78818730D01*
X95379590Y-78974980D01*
X96322780Y-78974980D01*
X96322780Y-78031790D01*
X96572780Y-78031790D01*
X96572780Y-78974980D01*
X97515970Y-78974980D01*
X97672220Y-78818730D01*
X97672220Y-78376220D01*
X97577069Y-78146506D01*
X97401254Y-77970690D01*
X97171540Y-77875540D01*
X96729030Y-77875540D01*
X96572780Y-78031790D01*
X96322780Y-78031790D01*
X96166530Y-77875540D01*
X95724020Y-77875540D01*
X95494306Y-77970690D01*
X95318491Y-78146506D01*
X95223340Y-78376220D01*
X94672480Y-78376220D01*
X94577329Y-78146506D01*
X94401514Y-77970690D01*
X94171800Y-77875540D01*
X93729290Y-77875540D01*
X93573040Y-78031790D01*
X93323040Y-78031790D01*
X93166790Y-77875540D01*
X92724280Y-77875540D01*
X92494566Y-77970690D01*
X92318751Y-78146506D01*
X92223600Y-78376220D01*
X91672740Y-78376220D01*
X91577589Y-78146506D01*
X91401774Y-77970690D01*
X91172060Y-77875540D01*
X90729550Y-77875540D01*
X90573300Y-78031790D01*
X90323300Y-78031790D01*
X90167050Y-77875540D01*
X89724540Y-77875540D01*
X89494826Y-77970690D01*
X89319011Y-78146506D01*
X89223860Y-78376220D01*
X88575000Y-78376220D01*
X88575000Y-76721004D01*
X89223860Y-76072144D01*
X89223860Y-76323620D01*
X89319011Y-76553334D01*
X89494826Y-76729150D01*
X89724540Y-76824300D01*
X90167050Y-76824300D01*
X90323300Y-76668050D01*
X90323300Y-75724860D01*
X90573300Y-75724860D01*
X90573300Y-76668050D01*
X90729550Y-76824300D01*
X91172060Y-76824300D01*
X91401774Y-76729150D01*
X91577589Y-76553334D01*
X91672740Y-76323620D01*
X91672740Y-75881110D01*
X92223600Y-75881110D01*
X92223600Y-76323620D01*
X92318751Y-76553334D01*
X92494566Y-76729150D01*
X92724280Y-76824300D01*
X93166790Y-76824300D01*
X93323040Y-76668050D01*
X93323040Y-75724860D01*
X93573040Y-75724860D01*
X93573040Y-76668050D01*
X93729290Y-76824300D01*
X94171800Y-76824300D01*
X94401514Y-76729150D01*
X94577329Y-76553334D01*
X94672480Y-76323620D01*
X94672480Y-75881110D01*
X95223340Y-75881110D01*
X95223340Y-76323620D01*
X95318491Y-76553334D01*
X95494306Y-76729150D01*
X95724020Y-76824300D01*
X96166530Y-76824300D01*
X96322780Y-76668050D01*
X96322780Y-75724860D01*
X96572780Y-75724860D01*
X96572780Y-76668050D01*
X96729030Y-76824300D01*
X97171540Y-76824300D01*
X97401254Y-76729150D01*
X97577069Y-76553334D01*
X97672220Y-76323620D01*
X97672220Y-75881110D01*
X97515970Y-75724860D01*
X96572780Y-75724860D01*
X96322780Y-75724860D01*
X95379590Y-75724860D01*
X95223340Y-75881110D01*
X94672480Y-75881110D01*
X94516230Y-75724860D01*
X93573040Y-75724860D01*
X93323040Y-75724860D01*
X92379850Y-75724860D01*
X92223600Y-75881110D01*
X91672740Y-75881110D01*
X91516490Y-75724860D01*
X90573300Y-75724860D01*
X90323300Y-75724860D01*
X90303300Y-75724860D01*
X90303300Y-75474860D01*
X90323300Y-75474860D01*
X90323300Y-75454860D01*
X90573300Y-75454860D01*
X90573300Y-75474860D01*
X91516490Y-75474860D01*
X91672740Y-75318610D01*
X91672740Y-74876100D01*
X92223600Y-74876100D01*
X92223600Y-75318610D01*
X92379850Y-75474860D01*
X93323040Y-75474860D01*
X93323040Y-74531670D01*
X93573040Y-74531670D01*
X93573040Y-75474860D01*
X94516230Y-75474860D01*
X94672480Y-75318610D01*
X94672480Y-74876100D01*
X95223340Y-74876100D01*
X95223340Y-75318610D01*
X95379590Y-75474860D01*
X96322780Y-75474860D01*
X96322780Y-74531670D01*
X96572780Y-74531670D01*
X96572780Y-75474860D01*
X97515970Y-75474860D01*
X97672220Y-75318610D01*
X97672220Y-74876100D01*
X97577069Y-74646386D01*
X97401254Y-74470570D01*
X97171540Y-74375420D01*
X96729030Y-74375420D01*
X96572780Y-74531670D01*
X96322780Y-74531670D01*
X96166530Y-74375420D01*
X95724020Y-74375420D01*
X95494306Y-74470570D01*
X95318491Y-74646386D01*
X95223340Y-74876100D01*
X94672480Y-74876100D01*
X94577329Y-74646386D01*
X94401514Y-74470570D01*
X94171800Y-74375420D01*
X93729290Y-74375420D01*
X93573040Y-74531670D01*
X93323040Y-74531670D01*
X93166790Y-74375420D01*
X92724280Y-74375420D01*
X92494566Y-74470570D01*
X92318751Y-74646386D01*
X92223600Y-74876100D01*
X91672740Y-74876100D01*
X91577589Y-74646386D01*
X91401774Y-74470570D01*
X91172060Y-74375420D01*
X90920584Y-74375420D01*
X91721004Y-73575000D01*
X92074759Y-73575000D01*
X92315199Y-73674839D01*
X92683187Y-73675160D01*
X93023286Y-73534634D01*
X93283720Y-73274655D01*
X93424839Y-72934801D01*
X93425160Y-72566813D01*
X93284634Y-72226714D01*
X93024655Y-71966280D01*
X92684801Y-71825161D01*
X92316813Y-71824840D01*
X92074407Y-71925000D01*
X91379278Y-71925000D01*
X91063564Y-71987799D01*
X90795915Y-72166637D01*
X87166637Y-75795915D01*
X86987799Y-76063564D01*
X86925000Y-76379278D01*
X86925000Y-78824759D01*
X86836124Y-79038797D01*
X86836124Y-78800260D01*
X86796981Y-78592234D01*
X86836124Y-78398940D01*
X86836124Y-77799500D01*
X86796981Y-77591474D01*
X86836124Y-77398180D01*
X86836124Y-76798740D01*
X86796981Y-76590714D01*
X86836124Y-76397420D01*
X86836124Y-75797980D01*
X86797229Y-75591271D01*
X86836124Y-75399200D01*
X86836124Y-74799760D01*
X86796981Y-74591734D01*
X86836124Y-74398440D01*
X86836124Y-73799000D01*
X86796981Y-73590974D01*
X86836124Y-73397680D01*
X86836124Y-72798240D01*
X86797229Y-72591531D01*
X86836124Y-72399460D01*
X86836124Y-71800020D01*
X86796981Y-71591994D01*
X86836124Y-71398700D01*
X86836124Y-70923880D01*
X86871840Y-70923880D01*
X86942942Y-70894428D01*
X87148840Y-70936124D01*
X87748280Y-70936124D01*
X87959080Y-70896459D01*
X88025280Y-70923880D01*
X88168070Y-70923880D01*
X88324320Y-70767630D01*
X88324320Y-70562900D01*
X88335318Y-70546804D01*
X88385524Y-70298880D01*
X88385524Y-69554440D01*
X88510576Y-69554440D01*
X88510576Y-70298880D01*
X88510576Y-70298880D01*
G37*
X88510576Y-70298880D02*
X88554157Y-70530491D01*
X88574320Y-70561825D01*
X88574320Y-70767630D01*
X88730570Y-70923880D01*
X88873360Y-70923880D01*
X88943628Y-70894774D01*
X89147820Y-70936124D01*
X89747260Y-70936124D01*
X89955286Y-70896981D01*
X90148580Y-70936124D01*
X90748020Y-70936124D01*
X90956046Y-70896981D01*
X91149340Y-70936124D01*
X91748780Y-70936124D01*
X91956806Y-70896981D01*
X92150100Y-70936124D01*
X92749540Y-70936124D01*
X92956249Y-70897229D01*
X93148320Y-70936124D01*
X93747760Y-70936124D01*
X93955786Y-70896981D01*
X94149080Y-70936124D01*
X94748520Y-70936124D01*
X94959320Y-70896459D01*
X95025520Y-70923880D01*
X95168310Y-70923880D01*
X95324560Y-70767630D01*
X95324560Y-70562900D01*
X95335558Y-70546804D01*
X95385764Y-70298880D01*
X95385764Y-69574999D01*
X95510816Y-69574999D01*
X95510816Y-70298880D01*
X95554397Y-70530491D01*
X95574560Y-70561825D01*
X95574560Y-70767630D01*
X95622780Y-70815850D01*
X95622780Y-71450519D01*
X95575161Y-71565199D01*
X95574840Y-71933187D01*
X95715366Y-72273286D01*
X95975345Y-72533720D01*
X96315199Y-72674839D01*
X96683187Y-72675160D01*
X97023286Y-72534634D01*
X97283720Y-72274655D01*
X97424839Y-71934801D01*
X97425160Y-71566813D01*
X97284634Y-71226714D01*
X97272780Y-71214839D01*
X97272780Y-70818390D01*
X97323540Y-70767630D01*
X97323540Y-70562900D01*
X97334538Y-70546804D01*
X97384744Y-70298880D01*
X97384744Y-69554440D01*
X97512336Y-69554440D01*
X97512336Y-70298880D01*
X97555917Y-70530491D01*
X97573540Y-70557878D01*
X97573540Y-70767630D01*
X97729790Y-70923880D01*
X97872580Y-70923880D01*
X97943682Y-70894428D01*
X98149580Y-70936124D01*
X98749020Y-70936124D01*
X98955729Y-70897229D01*
X99147800Y-70936124D01*
X99747240Y-70936124D01*
X99958040Y-70896459D01*
X100024240Y-70923880D01*
X100062496Y-70923880D01*
X100062496Y-71398700D01*
X100101639Y-71606726D01*
X100062496Y-71800020D01*
X100062496Y-72399460D01*
X100101391Y-72606169D01*
X100062496Y-72798240D01*
X100062496Y-73397680D01*
X100101639Y-73605706D01*
X100062496Y-73799000D01*
X100062496Y-74398440D01*
X100101639Y-74606466D01*
X100062496Y-74799760D01*
X100062496Y-75399200D01*
X100101832Y-75608253D01*
X100074740Y-75673660D01*
X100074740Y-75816450D01*
X100230990Y-75972700D01*
X100432002Y-75972700D01*
X100451816Y-75986238D01*
X100699740Y-76036444D01*
X101444180Y-76036444D01*
X101444180Y-76161496D01*
X100699740Y-76161496D01*
X100468129Y-76205077D01*
X100440742Y-76222700D01*
X100230990Y-76222700D01*
X100074740Y-76378950D01*
X100074740Y-76521740D01*
X100104192Y-76592842D01*
X100062496Y-76798740D01*
X100062496Y-77398180D01*
X100101639Y-77606206D01*
X100062496Y-77799500D01*
X100062496Y-78398940D01*
X100101639Y-78606966D01*
X100062496Y-78800260D01*
X100062496Y-79399700D01*
X100101391Y-79606409D01*
X100062496Y-79798480D01*
X100062496Y-80397920D01*
X100101639Y-80605946D01*
X100062496Y-80799240D01*
X100062496Y-81398680D01*
X100101639Y-81606706D01*
X100062496Y-81800000D01*
X100062496Y-82399440D01*
X100101391Y-82606149D01*
X100062496Y-82798220D01*
X100062496Y-83397660D01*
X100101639Y-83605686D01*
X100062496Y-83798980D01*
X100062496Y-84398420D01*
X100101639Y-84606446D01*
X100062496Y-84799740D01*
X100062496Y-85399180D01*
X100101391Y-85605889D01*
X100062496Y-85797960D01*
X100062496Y-86397400D01*
X100101639Y-86605426D01*
X100062496Y-86798720D01*
X100062496Y-87244891D01*
X99977850Y-87118210D01*
X96579310Y-83719670D01*
X96572782Y-83715308D01*
X96572782Y-83665752D01*
X96729030Y-83822000D01*
X97171540Y-83822000D01*
X97401254Y-83726850D01*
X97577069Y-83551034D01*
X97672220Y-83321320D01*
X97672220Y-82878810D01*
X97515970Y-82722560D01*
X96572780Y-82722560D01*
X96572780Y-82742560D01*
X96322780Y-82742560D01*
X96322780Y-82722560D01*
X95379590Y-82722560D01*
X95223340Y-82878810D01*
X95223340Y-83321320D01*
X95297352Y-83500000D01*
X94598468Y-83500000D01*
X94672480Y-83321320D01*
X94672480Y-82878810D01*
X94516230Y-82722560D01*
X93573040Y-82722560D01*
X93573040Y-82742560D01*
X93323040Y-82742560D01*
X93323040Y-82722560D01*
X92379850Y-82722560D01*
X92223600Y-82878810D01*
X92223600Y-83321320D01*
X92297612Y-83500000D01*
X91598728Y-83500000D01*
X91672740Y-83321320D01*
X91672740Y-82878810D01*
X91516490Y-82722560D01*
X90573300Y-82722560D01*
X90573300Y-82742560D01*
X90323300Y-82742560D01*
X90323300Y-82722560D01*
X89380110Y-82722560D01*
X89223860Y-82878810D01*
X89223860Y-83321320D01*
X89297872Y-83500000D01*
X87308316Y-83500000D01*
X87274655Y-83466280D01*
X86934801Y-83325161D01*
X86769707Y-83325017D01*
X86667630Y-83222940D01*
X86462900Y-83222940D01*
X86446804Y-83211942D01*
X86198880Y-83161736D01*
X85454440Y-83161736D01*
X85454440Y-83036684D01*
X86198880Y-83036684D01*
X86430491Y-82993103D01*
X86461825Y-82972940D01*
X86667630Y-82972940D01*
X86823880Y-82816690D01*
X86823880Y-82673900D01*
X86794774Y-82603632D01*
X86836124Y-82399440D01*
X86836124Y-81923960D01*
X87115777Y-81923960D01*
X87225345Y-82033720D01*
X87565199Y-82174839D01*
X87933187Y-82175160D01*
X88273286Y-82034634D01*
X88434401Y-81873800D01*
X89223860Y-81873800D01*
X89223860Y-82316310D01*
X89380110Y-82472560D01*
X90323300Y-82472560D01*
X90323300Y-81529370D01*
X90573300Y-81529370D01*
X90573300Y-82472560D01*
X91516490Y-82472560D01*
X91672740Y-82316310D01*
X91672740Y-81873800D01*
X92223600Y-81873800D01*
X92223600Y-82316310D01*
X92379850Y-82472560D01*
X93323040Y-82472560D01*
X93323040Y-81529370D01*
X93573040Y-81529370D01*
X93573040Y-82472560D01*
X94516230Y-82472560D01*
X94672480Y-82316310D01*
X94672480Y-81873800D01*
X95223340Y-81873800D01*
X95223340Y-82316310D01*
X95379590Y-82472560D01*
X96322780Y-82472560D01*
X96322780Y-81529370D01*
X96572780Y-81529370D01*
X96572780Y-82472560D01*
X97515970Y-82472560D01*
X97672220Y-82316310D01*
X97672220Y-81873800D01*
X97577069Y-81644086D01*
X97401254Y-81468270D01*
X97171540Y-81373120D01*
X96729030Y-81373120D01*
X96572780Y-81529370D01*
X96322780Y-81529370D01*
X96166530Y-81373120D01*
X95724020Y-81373120D01*
X95494306Y-81468270D01*
X95318491Y-81644086D01*
X95223340Y-81873800D01*
X94672480Y-81873800D01*
X94577329Y-81644086D01*
X94401514Y-81468270D01*
X94171800Y-81373120D01*
X93729290Y-81373120D01*
X93573040Y-81529370D01*
X93323040Y-81529370D01*
X93166790Y-81373120D01*
X92724280Y-81373120D01*
X92494566Y-81468270D01*
X92318751Y-81644086D01*
X92223600Y-81873800D01*
X91672740Y-81873800D01*
X91577589Y-81644086D01*
X91401774Y-81468270D01*
X91172060Y-81373120D01*
X90729550Y-81373120D01*
X90573300Y-81529370D01*
X90323300Y-81529370D01*
X90167050Y-81373120D01*
X89724540Y-81373120D01*
X89494826Y-81468270D01*
X89319011Y-81644086D01*
X89223860Y-81873800D01*
X88434401Y-81873800D01*
X88533720Y-81774655D01*
X88674839Y-81434801D01*
X88675160Y-81066813D01*
X88534634Y-80726714D01*
X88274655Y-80466280D01*
X87934801Y-80325161D01*
X87856021Y-80325092D01*
X87598960Y-80273960D01*
X86718390Y-80273960D01*
X86667630Y-80223200D01*
X86462900Y-80223200D01*
X86446804Y-80212202D01*
X86198880Y-80161996D01*
X85000000Y-80161996D01*
X84768389Y-80205577D01*
X84741002Y-80223200D01*
X84531250Y-80223200D01*
X84405490Y-80348960D01*
X83848840Y-80348960D01*
X83561827Y-80406050D01*
X83397879Y-80515597D01*
X83318510Y-80568630D01*
X83276164Y-80610976D01*
X82451170Y-80610976D01*
X82219559Y-80654557D01*
X82053830Y-80761200D01*
X81918330Y-80625700D01*
X81125000Y-80625700D01*
X81125000Y-80645700D01*
X80875000Y-80645700D01*
X80875000Y-80625700D01*
X80855000Y-80625700D01*
X80855000Y-80375700D01*
X80875000Y-80375700D01*
X80875000Y-80355700D01*
X81125000Y-80355700D01*
X81125000Y-80375700D01*
X81918330Y-80375700D01*
X82074580Y-80219450D01*
X82074580Y-80076660D01*
X81979430Y-79846946D01*
X81803614Y-79671131D01*
X81628473Y-79598585D01*
X81833430Y-79393628D01*
X81921320Y-79605814D01*
X82097136Y-79781629D01*
X82326850Y-79876780D01*
X82968750Y-79876780D01*
X83125000Y-79720530D01*
X83125000Y-78927200D01*
X83105000Y-78927200D01*
X83105000Y-78677200D01*
X83125000Y-78677200D01*
X83125000Y-78657200D01*
X83375000Y-78657200D01*
X83375000Y-78677200D01*
X83395000Y-78677200D01*
X83395000Y-78927200D01*
X83375000Y-78927200D01*
X83375000Y-79720530D01*
X83531250Y-79876780D01*
X84173150Y-79876780D01*
X84375000Y-79793171D01*
X84375000Y-79816950D01*
X84531250Y-79973200D01*
X84732262Y-79973200D01*
X84752076Y-79986738D01*
X85000000Y-80036944D01*
X86198880Y-80036944D01*
X86430491Y-79993363D01*
X86461825Y-79973200D01*
X86667630Y-79973200D01*
X86823880Y-79816950D01*
X86823880Y-79674160D01*
X86794774Y-79603892D01*
X86827862Y-79440500D01*
X86965366Y-79773286D01*
X87225345Y-80033720D01*
X87565199Y-80174839D01*
X87933187Y-80175160D01*
X88273286Y-80034634D01*
X88533720Y-79774655D01*
X88674839Y-79434801D01*
X88674885Y-79381230D01*
X89223860Y-79381230D01*
X89223860Y-79823740D01*
X89319011Y-80053454D01*
X89494826Y-80229270D01*
X89724540Y-80324420D01*
X90167050Y-80324420D01*
X90323300Y-80168170D01*
X90323300Y-79224980D01*
X90573300Y-79224980D01*
X90573300Y-80168170D01*
X90729550Y-80324420D01*
X91172060Y-80324420D01*
X91401774Y-80229270D01*
X91577589Y-80053454D01*
X91672740Y-79823740D01*
X91672740Y-79381230D01*
X92223600Y-79381230D01*
X92223600Y-79823740D01*
X92318751Y-80053454D01*
X92494566Y-80229270D01*
X92724280Y-80324420D01*
X93166790Y-80324420D01*
X93323040Y-80168170D01*
X93323040Y-79224980D01*
X93573040Y-79224980D01*
X93573040Y-80168170D01*
X93729290Y-80324420D01*
X94171800Y-80324420D01*
X94401514Y-80229270D01*
X94577329Y-80053454D01*
X94672480Y-79823740D01*
X94672480Y-79381230D01*
X95223340Y-79381230D01*
X95223340Y-79823740D01*
X95318491Y-80053454D01*
X95494306Y-80229270D01*
X95724020Y-80324420D01*
X96166530Y-80324420D01*
X96322780Y-80168170D01*
X96322780Y-79224980D01*
X96572780Y-79224980D01*
X96572780Y-80168170D01*
X96729030Y-80324420D01*
X97171540Y-80324420D01*
X97401254Y-80229270D01*
X97577069Y-80053454D01*
X97672220Y-79823740D01*
X97672220Y-79381230D01*
X97515970Y-79224980D01*
X96572780Y-79224980D01*
X96322780Y-79224980D01*
X95379590Y-79224980D01*
X95223340Y-79381230D01*
X94672480Y-79381230D01*
X94516230Y-79224980D01*
X93573040Y-79224980D01*
X93323040Y-79224980D01*
X92379850Y-79224980D01*
X92223600Y-79381230D01*
X91672740Y-79381230D01*
X91516490Y-79224980D01*
X90573300Y-79224980D01*
X90323300Y-79224980D01*
X89380110Y-79224980D01*
X89223860Y-79381230D01*
X88674885Y-79381230D01*
X88675160Y-79066813D01*
X88575000Y-78824407D01*
X88575000Y-78376220D01*
X89223860Y-78376220D01*
X89223860Y-78818730D01*
X89380110Y-78974980D01*
X90323300Y-78974980D01*
X90323300Y-78031790D01*
X90573300Y-78031790D01*
X90573300Y-78974980D01*
X91516490Y-78974980D01*
X91672740Y-78818730D01*
X91672740Y-78376220D01*
X92223600Y-78376220D01*
X92223600Y-78818730D01*
X92379850Y-78974980D01*
X93323040Y-78974980D01*
X93323040Y-78031790D01*
X93573040Y-78031790D01*
X93573040Y-78974980D01*
X94516230Y-78974980D01*
X94672480Y-78818730D01*
X94672480Y-78376220D01*
X95223340Y-78376220D01*
X95223340Y-78818730D01*
X95379590Y-78974980D01*
X96322780Y-78974980D01*
X96322780Y-78031790D01*
X96572780Y-78031790D01*
X96572780Y-78974980D01*
X97515970Y-78974980D01*
X97672220Y-78818730D01*
X97672220Y-78376220D01*
X97577069Y-78146506D01*
X97401254Y-77970690D01*
X97171540Y-77875540D01*
X96729030Y-77875540D01*
X96572780Y-78031790D01*
X96322780Y-78031790D01*
X96166530Y-77875540D01*
X95724020Y-77875540D01*
X95494306Y-77970690D01*
X95318491Y-78146506D01*
X95223340Y-78376220D01*
X94672480Y-78376220D01*
X94577329Y-78146506D01*
X94401514Y-77970690D01*
X94171800Y-77875540D01*
X93729290Y-77875540D01*
X93573040Y-78031790D01*
X93323040Y-78031790D01*
X93166790Y-77875540D01*
X92724280Y-77875540D01*
X92494566Y-77970690D01*
X92318751Y-78146506D01*
X92223600Y-78376220D01*
X91672740Y-78376220D01*
X91577589Y-78146506D01*
X91401774Y-77970690D01*
X91172060Y-77875540D01*
X90729550Y-77875540D01*
X90573300Y-78031790D01*
X90323300Y-78031790D01*
X90167050Y-77875540D01*
X89724540Y-77875540D01*
X89494826Y-77970690D01*
X89319011Y-78146506D01*
X89223860Y-78376220D01*
X88575000Y-78376220D01*
X88575000Y-76721004D01*
X89223860Y-76072144D01*
X89223860Y-76323620D01*
X89319011Y-76553334D01*
X89494826Y-76729150D01*
X89724540Y-76824300D01*
X90167050Y-76824300D01*
X90323300Y-76668050D01*
X90323300Y-75724860D01*
X90573300Y-75724860D01*
X90573300Y-76668050D01*
X90729550Y-76824300D01*
X91172060Y-76824300D01*
X91401774Y-76729150D01*
X91577589Y-76553334D01*
X91672740Y-76323620D01*
X91672740Y-75881110D01*
X92223600Y-75881110D01*
X92223600Y-76323620D01*
X92318751Y-76553334D01*
X92494566Y-76729150D01*
X92724280Y-76824300D01*
X93166790Y-76824300D01*
X93323040Y-76668050D01*
X93323040Y-75724860D01*
X93573040Y-75724860D01*
X93573040Y-76668050D01*
X93729290Y-76824300D01*
X94171800Y-76824300D01*
X94401514Y-76729150D01*
X94577329Y-76553334D01*
X94672480Y-76323620D01*
X94672480Y-75881110D01*
X95223340Y-75881110D01*
X95223340Y-76323620D01*
X95318491Y-76553334D01*
X95494306Y-76729150D01*
X95724020Y-76824300D01*
X96166530Y-76824300D01*
X96322780Y-76668050D01*
X96322780Y-75724860D01*
X96572780Y-75724860D01*
X96572780Y-76668050D01*
X96729030Y-76824300D01*
X97171540Y-76824300D01*
X97401254Y-76729150D01*
X97577069Y-76553334D01*
X97672220Y-76323620D01*
X97672220Y-75881110D01*
X97515970Y-75724860D01*
X96572780Y-75724860D01*
X96322780Y-75724860D01*
X95379590Y-75724860D01*
X95223340Y-75881110D01*
X94672480Y-75881110D01*
X94516230Y-75724860D01*
X93573040Y-75724860D01*
X93323040Y-75724860D01*
X92379850Y-75724860D01*
X92223600Y-75881110D01*
X91672740Y-75881110D01*
X91516490Y-75724860D01*
X90573300Y-75724860D01*
X90323300Y-75724860D01*
X90303300Y-75724860D01*
X90303300Y-75474860D01*
X90323300Y-75474860D01*
X90323300Y-75454860D01*
X90573300Y-75454860D01*
X90573300Y-75474860D01*
X91516490Y-75474860D01*
X91672740Y-75318610D01*
X91672740Y-74876100D01*
X92223600Y-74876100D01*
X92223600Y-75318610D01*
X92379850Y-75474860D01*
X93323040Y-75474860D01*
X93323040Y-74531670D01*
X93573040Y-74531670D01*
X93573040Y-75474860D01*
X94516230Y-75474860D01*
X94672480Y-75318610D01*
X94672480Y-74876100D01*
X95223340Y-74876100D01*
X95223340Y-75318610D01*
X95379590Y-75474860D01*
X96322780Y-75474860D01*
X96322780Y-74531670D01*
X96572780Y-74531670D01*
X96572780Y-75474860D01*
X97515970Y-75474860D01*
X97672220Y-75318610D01*
X97672220Y-74876100D01*
X97577069Y-74646386D01*
X97401254Y-74470570D01*
X97171540Y-74375420D01*
X96729030Y-74375420D01*
X96572780Y-74531670D01*
X96322780Y-74531670D01*
X96166530Y-74375420D01*
X95724020Y-74375420D01*
X95494306Y-74470570D01*
X95318491Y-74646386D01*
X95223340Y-74876100D01*
X94672480Y-74876100D01*
X94577329Y-74646386D01*
X94401514Y-74470570D01*
X94171800Y-74375420D01*
X93729290Y-74375420D01*
X93573040Y-74531670D01*
X93323040Y-74531670D01*
X93166790Y-74375420D01*
X92724280Y-74375420D01*
X92494566Y-74470570D01*
X92318751Y-74646386D01*
X92223600Y-74876100D01*
X91672740Y-74876100D01*
X91577589Y-74646386D01*
X91401774Y-74470570D01*
X91172060Y-74375420D01*
X90920584Y-74375420D01*
X91721004Y-73575000D01*
X92074759Y-73575000D01*
X92315199Y-73674839D01*
X92683187Y-73675160D01*
X93023286Y-73534634D01*
X93283720Y-73274655D01*
X93424839Y-72934801D01*
X93425160Y-72566813D01*
X93284634Y-72226714D01*
X93024655Y-71966280D01*
X92684801Y-71825161D01*
X92316813Y-71824840D01*
X92074407Y-71925000D01*
X91379278Y-71925000D01*
X91063564Y-71987799D01*
X90795915Y-72166637D01*
X87166637Y-75795915D01*
X86987799Y-76063564D01*
X86925000Y-76379278D01*
X86925000Y-78824759D01*
X86836124Y-79038797D01*
X86836124Y-78800260D01*
X86796981Y-78592234D01*
X86836124Y-78398940D01*
X86836124Y-77799500D01*
X86796981Y-77591474D01*
X86836124Y-77398180D01*
X86836124Y-76798740D01*
X86796981Y-76590714D01*
X86836124Y-76397420D01*
X86836124Y-75797980D01*
X86797229Y-75591271D01*
X86836124Y-75399200D01*
X86836124Y-74799760D01*
X86796981Y-74591734D01*
X86836124Y-74398440D01*
X86836124Y-73799000D01*
X86796981Y-73590974D01*
X86836124Y-73397680D01*
X86836124Y-72798240D01*
X86797229Y-72591531D01*
X86836124Y-72399460D01*
X86836124Y-71800020D01*
X86796981Y-71591994D01*
X86836124Y-71398700D01*
X86836124Y-70923880D01*
X86871840Y-70923880D01*
X86942942Y-70894428D01*
X87148840Y-70936124D01*
X87748280Y-70936124D01*
X87959080Y-70896459D01*
X88025280Y-70923880D01*
X88168070Y-70923880D01*
X88324320Y-70767630D01*
X88324320Y-70562900D01*
X88335318Y-70546804D01*
X88385524Y-70298880D01*
X88385524Y-69554440D01*
X88510576Y-69554440D01*
X88510576Y-70298880D01*
G36*
X122016326Y-75983674D02*
X126627322Y-82884517D01*
X120859850Y-77117045D01*
X120592201Y-76938207D01*
X120276487Y-76875408D01*
X118542132Y-76875408D01*
X112848353Y-71181629D01*
X112899831Y-71171943D01*
X113112552Y-71035061D01*
X113255258Y-70826204D01*
X113305464Y-70578280D01*
X113305464Y-70163262D01*
X122016326Y-75983674D01*
X122016326Y-75983674D01*
G37*
X122016326Y-75983674D02*
X126627322Y-82884517D01*
X120859850Y-77117045D01*
X120592201Y-76938207D01*
X120276487Y-76875408D01*
X118542132Y-76875408D01*
X112848353Y-71181629D01*
X112899831Y-71171943D01*
X113112552Y-71035061D01*
X113255258Y-70826204D01*
X113305464Y-70578280D01*
X113305464Y-70163262D01*
X122016326Y-75983674D01*
G36*
X84362756Y-77398180D02*
X84401899Y-77606206D01*
X84362756Y-77799500D01*
X84362756Y-77806158D01*
X84173150Y-77727620D01*
X83531250Y-77727620D01*
X83375002Y-77883868D01*
X83375002Y-77852056D01*
X84362756Y-76864302D01*
X84362756Y-77398180D01*
X84362756Y-77398180D01*
G37*
X84362756Y-77398180D02*
X84401899Y-77606206D01*
X84362756Y-77799500D01*
X84362756Y-77806158D01*
X84173150Y-77727620D01*
X83531250Y-77727620D01*
X83375002Y-77883868D01*
X83375002Y-77852056D01*
X84362756Y-76864302D01*
X84362756Y-77398180D01*
G36*
X111120802Y-68860977D02*
X111025008Y-68922619D01*
X110882302Y-69131476D01*
X110832096Y-69379400D01*
X110832096Y-70578280D01*
X110875677Y-70809891D01*
X110903605Y-70853292D01*
X108370858Y-70853292D01*
X106542704Y-69025138D01*
X106653054Y-68979430D01*
X106828869Y-68803614D01*
X106924020Y-68573900D01*
X106924020Y-68281250D01*
X106767772Y-68125002D01*
X106924020Y-68125002D01*
X106924020Y-68026185D01*
X111120802Y-68860977D01*
X111120802Y-68860977D01*
G37*
X111120802Y-68860977D02*
X111025008Y-68922619D01*
X110882302Y-69131476D01*
X110832096Y-69379400D01*
X110832096Y-70578280D01*
X110875677Y-70809891D01*
X110903605Y-70853292D01*
X108370858Y-70853292D01*
X106542704Y-69025138D01*
X106653054Y-68979430D01*
X106828869Y-68803614D01*
X106924020Y-68573900D01*
X106924020Y-68281250D01*
X106767772Y-68125002D01*
X106924020Y-68125002D01*
X106924020Y-68026185D01*
X111120802Y-68860977D01*
G36*
X101625611Y-69473831D02*
X101658415Y-69473831D01*
X101658136Y-69793555D01*
X101798662Y-70133654D01*
X101826974Y-70162016D01*
X101373000Y-70162016D01*
X101373000Y-69980690D01*
X101216750Y-69824440D01*
X100573280Y-69824440D01*
X100573280Y-69844440D01*
X100384484Y-69844440D01*
X100384484Y-69554440D01*
X100573280Y-69554440D01*
X100573280Y-69574440D01*
X101216750Y-69574440D01*
X101368501Y-69422689D01*
X101625611Y-69473831D01*
X101625611Y-69473831D01*
G37*
X101625611Y-69473831D02*
X101658415Y-69473831D01*
X101658136Y-69793555D01*
X101798662Y-70133654D01*
X101826974Y-70162016D01*
X101373000Y-70162016D01*
X101373000Y-69980690D01*
X101216750Y-69824440D01*
X100573280Y-69824440D01*
X100573280Y-69844440D01*
X100384484Y-69844440D01*
X100384484Y-69554440D01*
X100573280Y-69554440D01*
X100573280Y-69574440D01*
X101216750Y-69574440D01*
X101368501Y-69422689D01*
X101625611Y-69473831D01*
G36*
X106124300Y-67867111D02*
X106124300Y-67875000D01*
X106144300Y-67875000D01*
X106144300Y-68125000D01*
X106124300Y-68125000D01*
X106124300Y-68145000D01*
X105874300Y-68145000D01*
X105874300Y-68125000D01*
X105854300Y-68125000D01*
X105854300Y-67875000D01*
X105874300Y-67875000D01*
X105874300Y-67855000D01*
X106063414Y-67855000D01*
X106124300Y-67867111D01*
X106124300Y-67867111D01*
G37*
X106124300Y-67867111D02*
X106124300Y-67875000D01*
X106144300Y-67875000D01*
X106144300Y-68125000D01*
X106124300Y-68125000D01*
X106124300Y-68145000D01*
X105874300Y-68145000D01*
X105874300Y-68125000D01*
X105854300Y-68125000D01*
X105854300Y-67875000D01*
X105874300Y-67875000D01*
X105874300Y-67855000D01*
X106063414Y-67855000D01*
X106124300Y-67867111D01*
G36*
X96610976Y-67804703D02*
X96429415Y-67986265D01*
X96372779Y-67974999D01*
X95876780Y-67974999D01*
X95876780Y-67781250D01*
X95720530Y-67625000D01*
X94927200Y-67625000D01*
X94927200Y-67645000D01*
X94677200Y-67645000D01*
X94677200Y-67625000D01*
X94657200Y-67625000D01*
X94657200Y-67375000D01*
X94677200Y-67375000D01*
X94677200Y-67355000D01*
X94927200Y-67355000D01*
X94927200Y-67375000D01*
X95720530Y-67375000D01*
X95876780Y-67218750D01*
X95876780Y-67071247D01*
X96610976Y-66925206D01*
X96610976Y-67804703D01*
X96610976Y-67804703D01*
G37*
X96610976Y-67804703D02*
X96429415Y-67986265D01*
X96372779Y-67974999D01*
X95876780Y-67974999D01*
X95876780Y-67781250D01*
X95720530Y-67625000D01*
X94927200Y-67625000D01*
X94927200Y-67645000D01*
X94677200Y-67645000D01*
X94677200Y-67625000D01*
X94657200Y-67625000D01*
X94657200Y-67375000D01*
X94677200Y-67375000D01*
X94677200Y-67355000D01*
X94927200Y-67355000D01*
X94927200Y-67375000D01*
X95720530Y-67375000D01*
X95876780Y-67218750D01*
X95876780Y-67071247D01*
X96610976Y-66925206D01*
X96610976Y-67804703D01*
G36*
X102822800Y-67375000D02*
X102842800Y-67375000D01*
X102842800Y-67625000D01*
X102822800Y-67625000D01*
X102822800Y-67645000D01*
X102572800Y-67645000D01*
X102572800Y-67625000D01*
X102552800Y-67625000D01*
X102552800Y-67375000D01*
X102572800Y-67375000D01*
X102572800Y-67355000D01*
X102822800Y-67355000D01*
X102822800Y-67375000D01*
X102822800Y-67375000D01*
G37*
X102822800Y-67375000D02*
X102842800Y-67375000D01*
X102842800Y-67625000D01*
X102822800Y-67625000D01*
X102822800Y-67645000D01*
X102572800Y-67645000D01*
X102572800Y-67625000D01*
X102552800Y-67625000D01*
X102552800Y-67375000D01*
X102572800Y-67375000D01*
X102572800Y-67355000D01*
X102822800Y-67355000D01*
X102822800Y-67375000D01*
M02*
