G04 #@! TF.FileFunction,Paste,Bot*
%FSLAX46Y46*%
G04 Gerber Fmt 4.6, Leading zero omitted, Abs format (unit mm)*
G04 Created by KiCad (PCBNEW 4.0.7) date Tuesday, April 03, 2018 'AMt' 10:26:05 AM*
%MOMM*%
%LPD*%
G01*
G04 APERTURE LIST*
%ADD10C,0.100000*%
%ADD11R,0.599440X0.899160*%
%ADD12R,1.498600X0.899160*%
%ADD13R,0.899160X1.498600*%
G04 APERTURE END LIST*
D10*
G36*
X102565585Y-68477052D02*
X103457052Y-68594416D01*
X103378809Y-69188728D01*
X102487342Y-69071364D01*
X102565585Y-68477052D01*
X102565585Y-68477052D01*
G37*
G36*
X102761191Y-66991272D02*
X103652658Y-67108636D01*
X103574415Y-67702948D01*
X102682948Y-67585584D01*
X102761191Y-66991272D01*
X102761191Y-66991272D01*
G37*
G36*
X79937011Y-74900363D02*
X80650363Y-74352989D01*
X81015279Y-74828557D01*
X80301927Y-75375931D01*
X79937011Y-74900363D01*
X79937011Y-74900363D01*
G37*
G36*
X79024721Y-73711443D02*
X79738073Y-73164069D01*
X80102989Y-73639637D01*
X79389637Y-74187011D01*
X79024721Y-73711443D01*
X79024721Y-73711443D01*
G37*
G36*
X68477052Y-95434415D02*
X68594416Y-94542948D01*
X69188728Y-94621191D01*
X69071364Y-95512658D01*
X68477052Y-95434415D01*
X68477052Y-95434415D01*
G37*
G36*
X66991272Y-95238809D02*
X67108636Y-94347342D01*
X67702948Y-94425585D01*
X67585584Y-95317052D01*
X66991272Y-95238809D01*
X66991272Y-95238809D01*
G37*
G36*
X74870363Y-118062989D02*
X74322989Y-117349637D01*
X74798557Y-116984721D01*
X75345931Y-117698073D01*
X74870363Y-118062989D01*
X74870363Y-118062989D01*
G37*
G36*
X73681443Y-118975279D02*
X73134069Y-118261927D01*
X73609637Y-117897011D01*
X74157011Y-118610363D01*
X73681443Y-118975279D01*
X73681443Y-118975279D01*
G37*
G36*
X95424415Y-129532948D02*
X94532948Y-129415584D01*
X94611191Y-128821272D01*
X95502658Y-128938636D01*
X95424415Y-129532948D01*
X95424415Y-129532948D01*
G37*
G36*
X95228809Y-131018728D02*
X94337342Y-130901364D01*
X94415585Y-130307052D01*
X95307052Y-130424416D01*
X95228809Y-131018728D01*
X95228809Y-131018728D01*
G37*
G36*
X118072989Y-123119637D02*
X117359637Y-123667011D01*
X116994721Y-123191443D01*
X117708073Y-122644069D01*
X118072989Y-123119637D01*
X118072989Y-123119637D01*
G37*
G36*
X118985279Y-124308557D02*
X118271927Y-124855931D01*
X117907011Y-124380363D01*
X118620363Y-123832989D01*
X118985279Y-124308557D01*
X118985279Y-124308557D01*
G37*
G36*
X129542948Y-102575585D02*
X129425584Y-103467052D01*
X128831272Y-103388809D01*
X128948636Y-102497342D01*
X129542948Y-102575585D01*
X129542948Y-102575585D01*
G37*
G36*
X131028728Y-102771191D02*
X130911364Y-103662658D01*
X130317052Y-103584415D01*
X130434416Y-102692948D01*
X131028728Y-102771191D01*
X131028728Y-102771191D01*
G37*
G36*
X123119637Y-79937011D02*
X123667011Y-80650363D01*
X123191443Y-81015279D01*
X122644069Y-80301927D01*
X123119637Y-79937011D01*
X123119637Y-79937011D01*
G37*
G36*
X124308557Y-79024721D02*
X124855931Y-79738073D01*
X124380363Y-80102989D01*
X123832989Y-79389637D01*
X124308557Y-79024721D01*
X124308557Y-79024721D01*
G37*
G36*
X103349379Y-81047901D02*
X104217901Y-81280621D01*
X104062755Y-81859635D01*
X103194233Y-81626915D01*
X103349379Y-81047901D01*
X103349379Y-81047901D01*
G37*
G36*
X103737245Y-79600365D02*
X104605767Y-79833085D01*
X104450621Y-80412099D01*
X103582099Y-80179379D01*
X103737245Y-79600365D01*
X103737245Y-79600365D01*
G37*
G36*
X81067901Y-94660621D02*
X81300621Y-93792099D01*
X81879635Y-93947245D01*
X81646915Y-94815767D01*
X81067901Y-94660621D01*
X81067901Y-94660621D01*
G37*
G36*
X79620365Y-94272755D02*
X79853085Y-93404233D01*
X80432099Y-93559379D01*
X80199379Y-94427901D01*
X79620365Y-94272755D01*
X79620365Y-94272755D01*
G37*
G36*
X94660621Y-116942099D02*
X93792099Y-116709379D01*
X93947245Y-116130365D01*
X94815767Y-116363085D01*
X94660621Y-116942099D01*
X94660621Y-116942099D01*
G37*
G36*
X94272755Y-118389635D02*
X93404233Y-118156915D01*
X93559379Y-117577901D01*
X94427901Y-117810621D01*
X94272755Y-118389635D01*
X94272755Y-118389635D01*
G37*
G36*
X116932099Y-103339379D02*
X116699379Y-104207901D01*
X116120365Y-104052755D01*
X116353085Y-103184233D01*
X116932099Y-103339379D01*
X116932099Y-103339379D01*
G37*
G36*
X118379635Y-103727245D02*
X118146915Y-104595767D01*
X117567901Y-104440621D01*
X117800621Y-103572099D01*
X118379635Y-103727245D01*
X118379635Y-103727245D01*
G37*
D11*
X99749300Y-74500000D03*
X98250700Y-74500000D03*
D12*
X96551440Y-70378460D03*
X96551440Y-67081540D03*
X101448560Y-67081540D03*
X101448560Y-70378460D03*
D10*
G36*
X88389618Y-71757140D02*
X89837154Y-71369274D01*
X90069874Y-72237796D01*
X88622338Y-72625662D01*
X88389618Y-71757140D01*
X88389618Y-71757140D01*
G37*
G36*
X87536312Y-68572560D02*
X88983848Y-68184694D01*
X89216568Y-69053216D01*
X87769032Y-69441082D01*
X87536312Y-68572560D01*
X87536312Y-68572560D01*
G37*
G36*
X92266566Y-67305092D02*
X93714102Y-66917226D01*
X93946822Y-67785748D01*
X92499286Y-68173614D01*
X92266566Y-67305092D01*
X92266566Y-67305092D01*
G37*
G36*
X93119872Y-70489672D02*
X94567408Y-70101806D01*
X94800128Y-70970328D01*
X93352592Y-71358194D01*
X93119872Y-70489672D01*
X93119872Y-70489672D01*
G37*
G36*
X81700012Y-75427190D02*
X82997838Y-74677890D01*
X83447418Y-75456586D01*
X82149592Y-76205886D01*
X81700012Y-75427190D01*
X81700012Y-75427190D01*
G37*
G36*
X80051552Y-72571974D02*
X81349378Y-71822674D01*
X81798958Y-72601370D01*
X80501132Y-73350670D01*
X80051552Y-72571974D01*
X80051552Y-72571974D01*
G37*
G36*
X84292582Y-70123414D02*
X85590408Y-69374114D01*
X86039988Y-70152810D01*
X84742162Y-70902110D01*
X84292582Y-70123414D01*
X84292582Y-70123414D01*
G37*
G36*
X85941042Y-72978630D02*
X87238868Y-72229330D01*
X87688448Y-73008026D01*
X86390622Y-73757326D01*
X85941042Y-72978630D01*
X85941042Y-72978630D01*
G37*
G36*
X76186508Y-80708965D02*
X77246178Y-79649295D01*
X77881980Y-80285097D01*
X76822310Y-81344767D01*
X76186508Y-80708965D01*
X76186508Y-80708965D01*
G37*
G36*
X73855233Y-78377690D02*
X74914903Y-77318020D01*
X75550705Y-77953822D01*
X74491035Y-79013492D01*
X73855233Y-78377690D01*
X73855233Y-78377690D01*
G37*
G36*
X77318020Y-74914903D02*
X78377690Y-73855233D01*
X79013492Y-74491035D01*
X77953822Y-75550705D01*
X77318020Y-74914903D01*
X77318020Y-74914903D01*
G37*
G36*
X79649295Y-77246178D02*
X80708965Y-76186508D01*
X81344767Y-76822310D01*
X80285097Y-77881980D01*
X79649295Y-77246178D01*
X79649295Y-77246178D01*
G37*
G36*
X72229330Y-87238868D02*
X72978630Y-85941042D01*
X73757326Y-86390622D01*
X73008026Y-87688448D01*
X72229330Y-87238868D01*
X72229330Y-87238868D01*
G37*
G36*
X69374114Y-85590408D02*
X70123414Y-84292582D01*
X70902110Y-84742162D01*
X70152810Y-86039988D01*
X69374114Y-85590408D01*
X69374114Y-85590408D01*
G37*
G36*
X71822674Y-81349378D02*
X72571974Y-80051552D01*
X73350670Y-80501132D01*
X72601370Y-81798958D01*
X71822674Y-81349378D01*
X71822674Y-81349378D01*
G37*
G36*
X74677890Y-82997838D02*
X75427190Y-81700012D01*
X76205886Y-82149592D01*
X75456586Y-83447418D01*
X74677890Y-82997838D01*
X74677890Y-82997838D01*
G37*
G36*
X70100362Y-94569188D02*
X70488228Y-93121652D01*
X71356750Y-93354372D01*
X70968884Y-94801908D01*
X70100362Y-94569188D01*
X70100362Y-94569188D01*
G37*
G36*
X66915782Y-93715882D02*
X67303648Y-92268346D01*
X68172170Y-92501066D01*
X67784304Y-93948602D01*
X66915782Y-93715882D01*
X66915782Y-93715882D01*
G37*
G36*
X68183250Y-88985628D02*
X68571116Y-87538092D01*
X69439638Y-87770812D01*
X69051772Y-89218348D01*
X68183250Y-88985628D01*
X68183250Y-88985628D01*
G37*
G36*
X71367830Y-89838934D02*
X71755696Y-88391398D01*
X72624218Y-88624118D01*
X72236352Y-90071654D01*
X71367830Y-89838934D01*
X71367830Y-89838934D01*
G37*
D13*
X70388460Y-101448560D03*
X67091540Y-101448560D03*
X67091540Y-96551440D03*
X70388460Y-96551440D03*
D10*
G36*
X71755696Y-109608602D02*
X71367830Y-108161066D01*
X72236352Y-107928346D01*
X72624218Y-109375882D01*
X71755696Y-109608602D01*
X71755696Y-109608602D01*
G37*
G36*
X68571116Y-110461908D02*
X68183250Y-109014372D01*
X69051772Y-108781652D01*
X69439638Y-110229188D01*
X68571116Y-110461908D01*
X68571116Y-110461908D01*
G37*
G36*
X67303648Y-105731654D02*
X66915782Y-104284118D01*
X67784304Y-104051398D01*
X68172170Y-105498934D01*
X67303648Y-105731654D01*
X67303648Y-105731654D01*
G37*
G36*
X70488228Y-104878348D02*
X70100362Y-103430812D01*
X70968884Y-103198092D01*
X71356750Y-104645628D01*
X70488228Y-104878348D01*
X70488228Y-104878348D01*
G37*
G36*
X75427190Y-116289988D02*
X74677890Y-114992162D01*
X75456586Y-114542582D01*
X76205886Y-115840408D01*
X75427190Y-116289988D01*
X75427190Y-116289988D01*
G37*
G36*
X72571974Y-117938448D02*
X71822674Y-116640622D01*
X72601370Y-116191042D01*
X73350670Y-117488868D01*
X72571974Y-117938448D01*
X72571974Y-117938448D01*
G37*
G36*
X70123414Y-113697418D02*
X69374114Y-112399592D01*
X70152810Y-111950012D01*
X70902110Y-113247838D01*
X70123414Y-113697418D01*
X70123414Y-113697418D01*
G37*
G36*
X72978630Y-112048958D02*
X72229330Y-110751132D01*
X73008026Y-110301552D01*
X73757326Y-111599378D01*
X72978630Y-112048958D01*
X72978630Y-112048958D01*
G37*
G36*
X80708965Y-121803492D02*
X79649295Y-120743822D01*
X80285097Y-120108020D01*
X81344767Y-121167690D01*
X80708965Y-121803492D01*
X80708965Y-121803492D01*
G37*
G36*
X78377690Y-124134767D02*
X77318020Y-123075097D01*
X77953822Y-122439295D01*
X79013492Y-123498965D01*
X78377690Y-124134767D01*
X78377690Y-124134767D01*
G37*
G36*
X74914903Y-120671980D02*
X73855233Y-119612310D01*
X74491035Y-118976508D01*
X75550705Y-120036178D01*
X74914903Y-120671980D01*
X74914903Y-120671980D01*
G37*
G36*
X77246178Y-118340705D02*
X76186508Y-117281035D01*
X76822310Y-116645233D01*
X77881980Y-117704903D01*
X77246178Y-118340705D01*
X77246178Y-118340705D01*
G37*
G36*
X87228868Y-125760670D02*
X85931042Y-125011370D01*
X86380622Y-124232674D01*
X87678448Y-124981974D01*
X87228868Y-125760670D01*
X87228868Y-125760670D01*
G37*
G36*
X85580408Y-128615886D02*
X84282582Y-127866586D01*
X84732162Y-127087890D01*
X86029988Y-127837190D01*
X85580408Y-128615886D01*
X85580408Y-128615886D01*
G37*
G36*
X81339378Y-126167326D02*
X80041552Y-125418026D01*
X80491132Y-124639330D01*
X81788958Y-125388630D01*
X81339378Y-126167326D01*
X81339378Y-126167326D01*
G37*
G36*
X82987838Y-123312110D02*
X81690012Y-122562810D01*
X82139592Y-121784114D01*
X83437418Y-122533414D01*
X82987838Y-123312110D01*
X82987838Y-123312110D01*
G37*
G36*
X94569188Y-127899638D02*
X93121652Y-127511772D01*
X93354372Y-126643250D01*
X94801908Y-127031116D01*
X94569188Y-127899638D01*
X94569188Y-127899638D01*
G37*
G36*
X93715882Y-131084218D02*
X92268346Y-130696352D01*
X92501066Y-129827830D01*
X93948602Y-130215696D01*
X93715882Y-131084218D01*
X93715882Y-131084218D01*
G37*
G36*
X88985628Y-129816750D02*
X87538092Y-129428884D01*
X87770812Y-128560362D01*
X89218348Y-128948228D01*
X88985628Y-129816750D01*
X88985628Y-129816750D01*
G37*
G36*
X89838934Y-126632170D02*
X88391398Y-126244304D01*
X88624118Y-125375782D01*
X90071654Y-125763648D01*
X89838934Y-126632170D01*
X89838934Y-126632170D01*
G37*
D12*
X101448560Y-127601540D03*
X101448560Y-130898460D03*
X96551440Y-130898460D03*
X96551440Y-127601540D03*
D10*
G36*
X109608602Y-126240328D02*
X108161066Y-126628194D01*
X107928346Y-125759672D01*
X109375882Y-125371806D01*
X109608602Y-126240328D01*
X109608602Y-126240328D01*
G37*
G36*
X110461908Y-129424908D02*
X109014372Y-129812774D01*
X108781652Y-128944252D01*
X110229188Y-128556386D01*
X110461908Y-129424908D01*
X110461908Y-129424908D01*
G37*
G36*
X105731654Y-130692376D02*
X104284118Y-131080242D01*
X104051398Y-130211720D01*
X105498934Y-129823854D01*
X105731654Y-130692376D01*
X105731654Y-130692376D01*
G37*
G36*
X104878348Y-127507796D02*
X103430812Y-127895662D01*
X103198092Y-127027140D01*
X104645628Y-126639274D01*
X104878348Y-127507796D01*
X104878348Y-127507796D01*
G37*
G36*
X116309988Y-122572810D02*
X115012162Y-123322110D01*
X114562582Y-122543414D01*
X115860408Y-121794114D01*
X116309988Y-122572810D01*
X116309988Y-122572810D01*
G37*
G36*
X117958448Y-125428026D02*
X116660622Y-126177326D01*
X116211042Y-125398630D01*
X117508868Y-124649330D01*
X117958448Y-125428026D01*
X117958448Y-125428026D01*
G37*
G36*
X113717418Y-127876586D02*
X112419592Y-128625886D01*
X111970012Y-127847190D01*
X113267838Y-127097890D01*
X113717418Y-127876586D01*
X113717418Y-127876586D01*
G37*
G36*
X112068958Y-125021370D02*
X110771132Y-125770670D01*
X110321552Y-124991974D01*
X111619378Y-124242674D01*
X112068958Y-125021370D01*
X112068958Y-125021370D01*
G37*
G36*
X121803492Y-117281035D02*
X120743822Y-118340705D01*
X120108020Y-117704903D01*
X121167690Y-116645233D01*
X121803492Y-117281035D01*
X121803492Y-117281035D01*
G37*
G36*
X124134767Y-119612310D02*
X123075097Y-120671980D01*
X122439295Y-120036178D01*
X123498965Y-118976508D01*
X124134767Y-119612310D01*
X124134767Y-119612310D01*
G37*
G36*
X120671980Y-123075097D02*
X119612310Y-124134767D01*
X118976508Y-123498965D01*
X120036178Y-122439295D01*
X120671980Y-123075097D01*
X120671980Y-123075097D01*
G37*
G36*
X118340705Y-120743822D02*
X117281035Y-121803492D01*
X116645233Y-121167690D01*
X117704903Y-120108020D01*
X118340705Y-120743822D01*
X118340705Y-120743822D01*
G37*
G36*
X125770670Y-110771132D02*
X125021370Y-112068958D01*
X124242674Y-111619378D01*
X124991974Y-110321552D01*
X125770670Y-110771132D01*
X125770670Y-110771132D01*
G37*
G36*
X128625886Y-112419592D02*
X127876586Y-113717418D01*
X127097890Y-113267838D01*
X127847190Y-111970012D01*
X128625886Y-112419592D01*
X128625886Y-112419592D01*
G37*
G36*
X126177326Y-116660622D02*
X125428026Y-117958448D01*
X124649330Y-117508868D01*
X125398630Y-116211042D01*
X126177326Y-116660622D01*
X126177326Y-116660622D01*
G37*
G36*
X123322110Y-115012162D02*
X122572810Y-116309988D01*
X121794114Y-115860408D01*
X122543414Y-114562582D01*
X123322110Y-115012162D01*
X123322110Y-115012162D01*
G37*
G36*
X127899638Y-103430812D02*
X127511772Y-104878348D01*
X126643250Y-104645628D01*
X127031116Y-103198092D01*
X127899638Y-103430812D01*
X127899638Y-103430812D01*
G37*
G36*
X131084218Y-104284118D02*
X130696352Y-105731654D01*
X129827830Y-105498934D01*
X130215696Y-104051398D01*
X131084218Y-104284118D01*
X131084218Y-104284118D01*
G37*
G36*
X129816750Y-109014372D02*
X129428884Y-110461908D01*
X128560362Y-110229188D01*
X128948228Y-108781652D01*
X129816750Y-109014372D01*
X129816750Y-109014372D01*
G37*
G36*
X126632170Y-108161066D02*
X126244304Y-109608602D01*
X125375782Y-109375882D01*
X125763648Y-107928346D01*
X126632170Y-108161066D01*
X126632170Y-108161066D01*
G37*
D13*
X127611540Y-96551440D03*
X130908460Y-96551440D03*
X130908460Y-101448560D03*
X127611540Y-101448560D03*
D10*
G36*
X126244304Y-88391398D02*
X126632170Y-89838934D01*
X125763648Y-90071654D01*
X125375782Y-88624118D01*
X126244304Y-88391398D01*
X126244304Y-88391398D01*
G37*
G36*
X129428884Y-87538092D02*
X129816750Y-88985628D01*
X128948228Y-89218348D01*
X128560362Y-87770812D01*
X129428884Y-87538092D01*
X129428884Y-87538092D01*
G37*
G36*
X130696352Y-92268346D02*
X131084218Y-93715882D01*
X130215696Y-93948602D01*
X129827830Y-92501066D01*
X130696352Y-92268346D01*
X130696352Y-92268346D01*
G37*
G36*
X127511772Y-93121652D02*
X127899638Y-94569188D01*
X127031116Y-94801908D01*
X126643250Y-93354372D01*
X127511772Y-93121652D01*
X127511772Y-93121652D01*
G37*
G36*
X122572810Y-81700012D02*
X123322110Y-82997838D01*
X122543414Y-83447418D01*
X121794114Y-82149592D01*
X122572810Y-81700012D01*
X122572810Y-81700012D01*
G37*
G36*
X125428026Y-80051552D02*
X126177326Y-81349378D01*
X125398630Y-81798958D01*
X124649330Y-80501132D01*
X125428026Y-80051552D01*
X125428026Y-80051552D01*
G37*
G36*
X127876586Y-84292582D02*
X128625886Y-85590408D01*
X127847190Y-86039988D01*
X127097890Y-84742162D01*
X127876586Y-84292582D01*
X127876586Y-84292582D01*
G37*
G36*
X125021370Y-85941042D02*
X125770670Y-87238868D01*
X124991974Y-87688448D01*
X124242674Y-86390622D01*
X125021370Y-85941042D01*
X125021370Y-85941042D01*
G37*
G36*
X117288066Y-76186508D02*
X118347736Y-77246178D01*
X117711934Y-77881980D01*
X116652264Y-76822310D01*
X117288066Y-76186508D01*
X117288066Y-76186508D01*
G37*
G36*
X119619341Y-73855233D02*
X120679011Y-74914903D01*
X120043209Y-75550705D01*
X118983539Y-74491035D01*
X119619341Y-73855233D01*
X119619341Y-73855233D01*
G37*
G36*
X123082128Y-77318020D02*
X124141798Y-78377690D01*
X123505996Y-79013492D01*
X122446326Y-77953822D01*
X123082128Y-77318020D01*
X123082128Y-77318020D01*
G37*
G36*
X120750853Y-79649295D02*
X121810523Y-80708965D01*
X121174721Y-81344767D01*
X120115051Y-80285097D01*
X120750853Y-79649295D01*
X120750853Y-79649295D01*
G37*
G36*
X110761132Y-72229330D02*
X112058958Y-72978630D01*
X111609378Y-73757326D01*
X110311552Y-73008026D01*
X110761132Y-72229330D01*
X110761132Y-72229330D01*
G37*
G36*
X112409592Y-69374114D02*
X113707418Y-70123414D01*
X113257838Y-70902110D01*
X111960012Y-70152810D01*
X112409592Y-69374114D01*
X112409592Y-69374114D01*
G37*
G36*
X116650622Y-71822674D02*
X117948448Y-72571974D01*
X117498868Y-73350670D01*
X116201042Y-72601370D01*
X116650622Y-71822674D01*
X116650622Y-71822674D01*
G37*
G36*
X115002162Y-74677890D02*
X116299988Y-75427190D01*
X115850408Y-76205886D01*
X114552582Y-75456586D01*
X115002162Y-74677890D01*
X115002162Y-74677890D01*
G37*
G36*
X103430812Y-70106386D02*
X104878348Y-70494252D01*
X104645628Y-71362774D01*
X103198092Y-70974908D01*
X103430812Y-70106386D01*
X103430812Y-70106386D01*
G37*
G36*
X104284118Y-66921806D02*
X105731654Y-67309672D01*
X105498934Y-68178194D01*
X104051398Y-67790328D01*
X104284118Y-66921806D01*
X104284118Y-66921806D01*
G37*
G36*
X109014372Y-68189274D02*
X110461908Y-68577140D01*
X110229188Y-69445662D01*
X108781652Y-69057796D01*
X109014372Y-68189274D01*
X109014372Y-68189274D01*
G37*
G36*
X108161066Y-71373854D02*
X109608602Y-71761720D01*
X109375882Y-72630242D01*
X107928346Y-72242376D01*
X108161066Y-71373854D01*
X108161066Y-71373854D01*
G37*
D12*
X96551440Y-81750000D03*
X96551440Y-78453080D03*
X101448560Y-78453080D03*
X101448560Y-81750000D03*
D10*
G36*
X87396297Y-85275302D02*
X88694123Y-84526002D01*
X89143703Y-85304698D01*
X87845877Y-86053998D01*
X87396297Y-85275302D01*
X87396297Y-85275302D01*
G37*
G36*
X85747837Y-82420086D02*
X87045663Y-81670786D01*
X87495243Y-82449482D01*
X86197417Y-83198782D01*
X85747837Y-82420086D01*
X85747837Y-82420086D01*
G37*
G36*
X89988867Y-79971526D02*
X91286693Y-79222226D01*
X91736273Y-80000922D01*
X90438447Y-80750222D01*
X89988867Y-79971526D01*
X89988867Y-79971526D01*
G37*
G36*
X91637327Y-82826742D02*
X92935153Y-82077442D01*
X93384733Y-82856138D01*
X92086907Y-83605438D01*
X91637327Y-82826742D01*
X91637327Y-82826742D01*
G37*
G36*
X82086002Y-92924123D02*
X82835302Y-91626297D01*
X83613998Y-92075877D01*
X82864698Y-93373703D01*
X82086002Y-92924123D01*
X82086002Y-92924123D01*
G37*
G36*
X79230786Y-91275663D02*
X79980086Y-89977837D01*
X80758782Y-90427417D01*
X80009482Y-91725243D01*
X79230786Y-91275663D01*
X79230786Y-91275663D01*
G37*
G36*
X81679346Y-87034633D02*
X82428646Y-85736807D01*
X83207342Y-86186387D01*
X82458042Y-87484213D01*
X81679346Y-87034633D01*
X81679346Y-87034633D01*
G37*
G36*
X84534562Y-88683093D02*
X85283862Y-87385267D01*
X86062558Y-87834847D01*
X85313258Y-89132673D01*
X84534562Y-88683093D01*
X84534562Y-88683093D01*
G37*
D13*
X81760000Y-101450000D03*
X78463080Y-101450000D03*
X78463080Y-96552880D03*
X81760000Y-96552880D03*
D10*
G36*
X85267190Y-110614733D02*
X84517890Y-109316907D01*
X85296586Y-108867327D01*
X86045886Y-110165153D01*
X85267190Y-110614733D01*
X85267190Y-110614733D01*
G37*
G36*
X82411974Y-112263193D02*
X81662674Y-110965367D01*
X82441370Y-110515787D01*
X83190670Y-111813613D01*
X82411974Y-112263193D01*
X82411974Y-112263193D01*
G37*
G36*
X79963414Y-108022163D02*
X79214114Y-106724337D01*
X79992810Y-106274757D01*
X80742110Y-107572583D01*
X79963414Y-108022163D01*
X79963414Y-108022163D01*
G37*
G36*
X82818630Y-106373703D02*
X82069330Y-105075877D01*
X82848026Y-104626297D01*
X83597326Y-105924123D01*
X82818630Y-106373703D01*
X82818630Y-106373703D01*
G37*
G36*
X92918868Y-115920670D02*
X91621042Y-115171370D01*
X92070622Y-114392674D01*
X93368448Y-115141974D01*
X92918868Y-115920670D01*
X92918868Y-115920670D01*
G37*
G36*
X91270408Y-118775886D02*
X89972582Y-118026586D01*
X90422162Y-117247890D01*
X91719988Y-117997190D01*
X91270408Y-118775886D01*
X91270408Y-118775886D01*
G37*
G36*
X87029378Y-116327326D02*
X85731552Y-115578026D01*
X86181132Y-114799330D01*
X87478958Y-115548630D01*
X87029378Y-116327326D01*
X87029378Y-116327326D01*
G37*
G36*
X88677838Y-113472110D02*
X87380012Y-112722810D01*
X87829592Y-111944114D01*
X89127418Y-112693414D01*
X88677838Y-113472110D01*
X88677838Y-113472110D01*
G37*
D12*
X101448560Y-116251540D03*
X101448560Y-119548460D03*
X96551440Y-119548460D03*
X96551440Y-116251540D03*
D10*
G36*
X110619988Y-112732810D02*
X109322162Y-113482110D01*
X108872582Y-112703414D01*
X110170408Y-111954114D01*
X110619988Y-112732810D01*
X110619988Y-112732810D01*
G37*
G36*
X112268448Y-115588026D02*
X110970622Y-116337326D01*
X110521042Y-115558630D01*
X111818868Y-114809330D01*
X112268448Y-115588026D01*
X112268448Y-115588026D01*
G37*
G36*
X108027418Y-118036586D02*
X106729592Y-118785886D01*
X106280012Y-118007190D01*
X107577838Y-117257890D01*
X108027418Y-118036586D01*
X108027418Y-118036586D01*
G37*
G36*
X106378958Y-115181370D02*
X105081132Y-115930670D01*
X104631552Y-115151974D01*
X105929378Y-114402674D01*
X106378958Y-115181370D01*
X106378958Y-115181370D01*
G37*
G36*
X115930670Y-105081132D02*
X115181370Y-106378958D01*
X114402674Y-105929378D01*
X115151974Y-104631552D01*
X115930670Y-105081132D01*
X115930670Y-105081132D01*
G37*
G36*
X118785886Y-106729592D02*
X118036586Y-108027418D01*
X117257890Y-107577838D01*
X118007190Y-106280012D01*
X118785886Y-106729592D01*
X118785886Y-106729592D01*
G37*
G36*
X116337326Y-110970622D02*
X115588026Y-112268448D01*
X114809330Y-111818868D01*
X115558630Y-110521042D01*
X116337326Y-110970622D01*
X116337326Y-110970622D01*
G37*
G36*
X113482110Y-109322162D02*
X112732810Y-110619988D01*
X111954114Y-110170408D01*
X112703414Y-108872582D01*
X113482110Y-109322162D01*
X113482110Y-109322162D01*
G37*
D13*
X116250000Y-96551440D03*
X119546920Y-96551440D03*
X119546920Y-101448560D03*
X116250000Y-101448560D03*
D10*
G36*
X112732810Y-87380012D02*
X113482110Y-88677838D01*
X112703414Y-89127418D01*
X111954114Y-87829592D01*
X112732810Y-87380012D01*
X112732810Y-87380012D01*
G37*
G36*
X115588026Y-85731552D02*
X116337326Y-87029378D01*
X115558630Y-87478958D01*
X114809330Y-86181132D01*
X115588026Y-85731552D01*
X115588026Y-85731552D01*
G37*
G36*
X118036586Y-89972582D02*
X118785886Y-91270408D01*
X118007190Y-91719988D01*
X117257890Y-90422162D01*
X118036586Y-89972582D01*
X118036586Y-89972582D01*
G37*
G36*
X115181370Y-91621042D02*
X115930670Y-92918868D01*
X115151974Y-93368448D01*
X114402674Y-92070622D01*
X115181370Y-91621042D01*
X115181370Y-91621042D01*
G37*
G36*
X105091132Y-82069330D02*
X106388958Y-82818630D01*
X105939378Y-83597326D01*
X104641552Y-82848026D01*
X105091132Y-82069330D01*
X105091132Y-82069330D01*
G37*
G36*
X106739592Y-79214114D02*
X108037418Y-79963414D01*
X107587838Y-80742110D01*
X106290012Y-79992810D01*
X106739592Y-79214114D01*
X106739592Y-79214114D01*
G37*
G36*
X110980622Y-81662674D02*
X112278448Y-82411974D01*
X111828868Y-83190670D01*
X110531042Y-82441370D01*
X110980622Y-81662674D01*
X110980622Y-81662674D01*
G37*
G36*
X109332162Y-84517890D02*
X110629988Y-85267190D01*
X110180408Y-86045886D01*
X108882582Y-85296586D01*
X109332162Y-84517890D01*
X109332162Y-84517890D01*
G37*
M02*
